DinishCondensed-Italic.ufo
<glyph name="dollar" format="2">
  <advance width="380"/>
  <unicode hex="0024"/>
  <outline>
    <contour>
      <point x="168" y="28" type="curve"/>
      <point x="147" y="-74" type="line"/>
      <point x="93" y="-74" type="line"/>
      <point x="114" y="27" type="line"/>
      <point x="81" y="30"/>
      <point x="56" y="40"/>
      <point x="38" y="58" type="curve" smooth="yes"/>
      <point x="11" y="86"/>
      <point x="3" y="133"/>
      <point x="14" y="200" type="curve"/>
      <point x="84" y="200" type="line"/>
      <point x="74" y="137"/>
      <point x="88" y="99"/>
      <point x="126" y="88" type="curve"/>
      <point x="176" y="327" type="line"/>
      <point x="166" y="332" type="line" smooth="yes"/>
      <point x="125" y="351"/>
      <point x="98" y="374"/>
      <point x="85" y="400" type="curve" smooth="yes"/>
      <point x="72" y="425"/>
      <point x="69" y="459"/>
      <point x="78" y="502" type="curve" smooth="yes"/>
      <point x="89" y="554"/>
      <point x="110" y="595"/>
      <point x="140" y="624" type="curve" smooth="yes"/>
      <point x="170" y="653"/>
      <point x="206" y="670"/>
      <point x="248" y="675" type="curve"/>
      <point x="268" y="771" type="line"/>
      <point x="322" y="771" type="line"/>
      <point x="302" y="674" type="line"/>
      <point x="374" y="663"/>
      <point x="402" y="605"/>
      <point x="386" y="502" type="curve"/>
      <point x="322" y="502" type="line"/>
      <point x="333" y="561"/>
      <point x="321" y="597"/>
      <point x="288" y="608" type="curve"/>
      <point x="242" y="386" type="line"/>
      <point x="282" y="367"/>
      <point x="309" y="344"/>
      <point x="324" y="315" type="curve" smooth="yes"/>
      <point x="338" y="286"/>
      <point x="340" y="248"/>
      <point x="331" y="202" type="curve" smooth="yes"/>
      <point x="320" y="151"/>
      <point x="301" y="111"/>
      <point x="274" y="82" type="curve" smooth="yes"/>
      <point x="247" y="52"/>
      <point x="211" y="34"/>
    </contour>
    <contour>
      <point x="193" y="408" type="curve"/>
      <point x="235" y="611" type="line"/>
      <point x="213" y="606"/>
      <point x="195" y="596"/>
      <point x="180" y="579" type="curve" smooth="yes"/>
      <point x="165" y="562"/>
      <point x="154" y="539"/>
      <point x="148" y="512" type="curve" smooth="yes"/>
      <point x="143" y="485"/>
      <point x="144" y="464"/>
      <point x="151" y="448" type="curve" smooth="yes"/>
      <point x="158" y="432"/>
      <point x="172" y="419"/>
    </contour>
    <contour>
      <point x="260" y="193" type="curve" smooth="yes"/>
      <point x="266" y="221"/>
      <point x="266" y="243"/>
      <point x="261" y="260" type="curve" smooth="yes"/>
      <point x="255" y="276"/>
      <point x="243" y="290"/>
      <point x="225" y="301" type="curve"/>
      <point x="181" y="89" type="line"/>
      <point x="222" y="101"/>
      <point x="248" y="136"/>
    </contour>
  </outline>
</glyph>
<glyph name="ampersand" format="2">
  <advance width="531"/>
  <unicode hex="0026"/>
  <outline>
    <contour>
      <point x="439" y="69" type="line"/>
      <point x="425" y="-1" type="line"/>
      <point x="391" y="-1" type="line" smooth="yes"/>
      <point x="374" y="-1"/>
      <point x="361" y="2"/>
      <point x="353" y="9" type="curve" smooth="yes"/>
      <point x="345" y="15"/>
      <point x="338" y="27"/>
      <point x="331" y="45" type="curve" smooth="yes"/>
      <point x="317" y="79" type="line"/>
      <point x="290" y="48"/>
      <point x="262" y="25"/>
      <point x="235" y="11" type="curve" smooth="yes"/>
      <point x="207" y="-3"/>
      <point x="177" y="-10"/>
      <point x="145" y="-10" type="curve" smooth="yes"/>
      <point x="98" y="-10"/>
      <point x="65" y="5"/>
      <point x="44" y="34" type="curve" smooth="yes"/>
      <point x="23" y="63"/>
      <point x="17" y="102"/>
      <point x="27" y="151" type="curve" smooth="yes"/>
      <point x="34" y="186"/>
      <point x="52" y="222"/>
      <point x="79" y="257" type="curve" smooth="yes"/>
      <point x="106" y="292"/>
      <point x="146" y="335"/>
      <point x="201" y="384" type="curve"/>
      <point x="198" y="392" type="line" smooth="yes"/>
      <point x="179" y="439"/>
      <point x="167" y="476"/>
      <point x="162" y="502" type="curve" smooth="yes"/>
      <point x="156" y="527"/>
      <point x="156" y="552"/>
      <point x="161" y="575" type="curve" smooth="yes"/>
      <point x="170" y="617"/>
      <point x="190" y="651"/>
      <point x="221" y="678" type="curve" smooth="yes"/>
      <point x="252" y="704"/>
      <point x="288" y="717"/>
      <point x="328" y="717" type="curve" smooth="yes"/>
      <point x="369" y="717"/>
      <point x="399" y="704"/>
      <point x="420" y="678" type="curve" smooth="yes"/>
      <point x="441" y="652"/>
      <point x="447" y="618"/>
      <point x="438" y="575" type="curve" smooth="yes"/>
      <point x="431" y="544"/>
      <point x="417" y="514"/>
      <point x="395" y="485" type="curve" smooth="yes"/>
      <point x="373" y="455"/>
      <point x="337" y="419"/>
      <point x="288" y="376" type="curve"/>
      <point x="350" y="212" type="line"/>
      <point x="425" y="304" type="line"/>
      <point x="473" y="268" type="line"/>
      <point x="375" y="148" type="line"/>
      <point x="394" y="99" type="line" smooth="yes"/>
      <point x="398" y="88"/>
      <point x="403" y="80"/>
      <point x="408" y="76" type="curve" smooth="yes"/>
      <point x="413" y="71"/>
      <point x="419" y="69"/>
      <point x="428" y="69" type="curve" smooth="yes"/>
    </contour>
    <contour>
      <point x="293" y="142" type="curve"/>
      <point x="226" y="321" type="line"/>
      <point x="187" y="286"/>
      <point x="158" y="256"/>
      <point x="139" y="231" type="curve" smooth="yes"/>
      <point x="120" y="206"/>
      <point x="108" y="180"/>
      <point x="103" y="155" type="curve" smooth="yes"/>
      <point x="97" y="125"/>
      <point x="100" y="102"/>
      <point x="111" y="85" type="curve" smooth="yes"/>
      <point x="122" y="68"/>
      <point x="140" y="60"/>
      <point x="165" y="60" type="curve" smooth="yes"/>
      <point x="185" y="60"/>
      <point x="205" y="66"/>
      <point x="225" y="78" type="curve" smooth="yes"/>
      <point x="244" y="90"/>
      <point x="267" y="111"/>
    </contour>
    <contour>
      <point x="236" y="578" type="curve" smooth="yes"/>
      <point x="233" y="563"/>
      <point x="233" y="545"/>
      <point x="237" y="526" type="curve" smooth="yes"/>
      <point x="240" y="507"/>
      <point x="249" y="478"/>
      <point x="263" y="440" type="curve"/>
      <point x="298" y="472"/>
      <point x="322" y="498"/>
      <point x="337" y="517" type="curve" smooth="yes"/>
      <point x="351" y="536"/>
      <point x="360" y="557"/>
      <point x="364" y="578" type="curve" smooth="yes"/>
      <point x="369" y="602"/>
      <point x="368" y="621"/>
      <point x="359" y="634" type="curve" smooth="yes"/>
      <point x="350" y="647"/>
      <point x="336" y="653"/>
      <point x="317" y="653" type="curve" smooth="yes"/>
      <point x="297" y="653"/>
      <point x="280" y="646"/>
      <point x="265" y="633" type="curve" smooth="yes"/>
      <point x="250" y="619"/>
      <point x="241" y="601"/>
    </contour>
  </outline>
</glyph>
<glyph name="plus" format="2">
  <advance width="430"/>
  <unicode hex="002B"/>
  <outline>
    <contour>
      <point x="387" y="249" type="line"/>
      <point x="246" y="249" type="line"/>
      <point x="217" y="109" type="line"/>
      <point x="150" y="109" type="line"/>
      <point x="179" y="249" type="line"/>
      <point x="38" y="249" type="line"/>
      <point x="52" y="316" type="line"/>
      <point x="193" y="316" type="line"/>
      <point x="222" y="457" type="line"/>
      <point x="289" y="457" type="line"/>
      <point x="260" y="316" type="line"/>
      <point x="401" y="316" type="line"/>
    </contour>
  </outline>
</glyph>
<glyph name="one.tosf" format="2">
  <advance width="418"/>
  <unicode hex="0031"/>
  <outline>
    <contour>
      <point x="307" y="453" type="line"/>
      <point x="154" y="370" type="line"/>
      <point x="172" y="456" type="line"/>
      <point x="324" y="539" type="line"/>
      <point x="399" y="539" type="line"/>
      <point x="287" y="0" type="line"/>
      <point x="213" y="0" type="line"/>
    </contour>
  </outline>
</glyph>
<glyph name="three" format="2">
  <advance width="414"/>
  <unicode hex="0033"/>
  <outline>
    <contour>
      <point x="22" y="139" type="curve" smooth="yes"/>
      <point x="31" y="184" type="line"/>
      <point x="105" y="184" type="line"/>
      <point x="97" y="145" type="line" smooth="yes"/>
      <point x="91" y="117"/>
      <point x="94" y="95"/>
      <point x="105" y="80" type="curve" smooth="yes"/>
      <point x="116" y="65"/>
      <point x="135" y="57"/>
      <point x="161" y="57" type="curve" smooth="yes"/>
      <point x="188" y="57"/>
      <point x="211" y="65"/>
      <point x="228" y="82" type="curve" smooth="yes"/>
      <point x="245" y="98"/>
      <point x="257" y="121"/>
      <point x="264" y="152" type="curve" smooth="yes"/>
      <point x="280" y="230" type="line" smooth="yes"/>
      <point x="287" y="264"/>
      <point x="285" y="290"/>
      <point x="275" y="308" type="curve" smooth="yes"/>
      <point x="265" y="325"/>
      <point x="245" y="334"/>
      <point x="214" y="334" type="curve" smooth="yes"/>
      <point x="184" y="334" type="line"/>
      <point x="198" y="400" type="line"/>
      <point x="228" y="400" type="line" smooth="yes"/>
      <point x="258" y="400"/>
      <point x="281" y="409"/>
      <point x="298" y="426" type="curve" smooth="yes"/>
      <point x="315" y="443"/>
      <point x="326" y="467"/>
      <point x="333" y="500" type="curve" smooth="yes"/>
      <point x="344" y="555" type="line" smooth="yes"/>
      <point x="351" y="586"/>
      <point x="349" y="609"/>
      <point x="338" y="625" type="curve" smooth="yes"/>
      <point x="327" y="641"/>
      <point x="309" y="649"/>
      <point x="283" y="649" type="curve" smooth="yes"/>
      <point x="258" y="649"/>
      <point x="237" y="641"/>
      <point x="220" y="626" type="curve" smooth="yes"/>
      <point x="203" y="611"/>
      <point x="191" y="589"/>
      <point x="186" y="561" type="curve" smooth="yes"/>
      <point x="177" y="520" type="line"/>
      <point x="103" y="520" type="line"/>
      <point x="112" y="562" type="line" smooth="yes"/>
      <point x="122" y="611"/>
      <point x="143" y="649"/>
      <point x="176" y="676" type="curve" smooth="yes"/>
      <point x="208" y="703"/>
      <point x="249" y="716"/>
      <point x="299" y="716" type="curve" smooth="yes"/>
      <point x="348" y="716"/>
      <point x="383" y="703"/>
      <point x="404" y="676" type="curve" smooth="yes"/>
      <point x="424" y="649"/>
      <point x="429" y="612"/>
      <point x="419" y="563" type="curve" smooth="yes"/>
      <point x="407" y="503" type="line" smooth="yes"/>
      <point x="400" y="469"/>
      <point x="388" y="442"/>
      <point x="373" y="421" type="curve" smooth="yes"/>
      <point x="358" y="400"/>
      <point x="335" y="383"/>
      <point x="306" y="371" type="curve"/>
      <point x="333" y="358"/>
      <point x="349" y="340"/>
      <point x="356" y="318" type="curve" smooth="yes"/>
      <point x="362" y="296"/>
      <point x="361" y="266"/>
      <point x="354" y="229" type="curve" smooth="yes"/>
      <point x="338" y="155" type="line" smooth="yes"/>
      <point x="327" y="102"/>
      <point x="306" y="62"/>
      <point x="273" y="34" type="curve" smooth="yes"/>
      <point x="240" y="5"/>
      <point x="197" y="-9"/>
      <point x="146" y="-9" type="curve" smooth="yes"/>
      <point x="96" y="-9"/>
      <point x="60" y="4"/>
      <point x="39" y="30" type="curve" smooth="yes"/>
      <point x="18" y="56"/>
      <point x="12" y="92"/>
    </contour>
  </outline>
</glyph>
<glyph name="three.tosf" format="2">
  <advance width="418"/>
  <unicode hex="0033"/>
  <outline>
    <contour>
      <point x="-17" y="-88"/>
      <point x="-3" y="-21" type="qcurve" smooth="yes"/>
      <point x="5" y="21" type="line"/>
      <point x="79" y="21" type="line"/>
      <point x="72" y="-16" type="line" smooth="yes"/>
      <point x="63" y="-56"/>
      <point x="97" y="-99"/>
      <point x="136" y="-99" type="qcurve" smooth="yes"/>
      <point x="177" y="-99"/>
      <point x="229" y="-53"/>
      <point x="238" y="-9" type="qcurve" smooth="yes"/>
      <point x="251" y="55" type="line" smooth="yes"/>
      <point x="263" y="112"/>
      <point x="233" y="165"/>
      <point x="187" y="165" type="qcurve" smooth="yes"/>
      <point x="157" y="165" type="line"/>
      <point x="171" y="231" type="line"/>
      <point x="201" y="231" type="line" smooth="yes"/>
      <point x="246" y="231"/>
      <point x="296" y="282"/>
      <point x="307" y="336" type="qcurve" smooth="yes"/>
      <point x="317" y="387" type="line" smooth="yes"/>
      <point x="326" y="430"/>
      <point x="294" y="476"/>
      <point x="255" y="476" type="qcurve" smooth="yes"/>
      <point x="217" y="476"/>
      <point x="167" y="432"/>
      <point x="159" y="392" type="qcurve" smooth="yes"/>
      <point x="150" y="353" type="line"/>
      <point x="76" y="353" type="line"/>
      <point x="85" y="393" type="line" smooth="yes"/>
      <point x="99" y="463"/>
      <point x="195" y="540"/>
      <point x="270" y="540" type="qcurve" smooth="yes"/>
      <point x="344" y="540"/>
      <point x="406" y="464"/>
      <point x="392" y="394" type="qcurve" smooth="yes"/>
      <point x="381" y="339" type="line" smooth="yes"/>
      <point x="369" y="283"/>
      <point x="323" y="220"/>
      <point x="279" y="202" type="qcurve"/>
      <point x="319" y="182"/>
      <point x="338" y="116"/>
      <point x="325" y="54" type="qcurve" smooth="yes"/>
      <point x="313" y="-6" type="line" smooth="yes"/>
      <point x="297" y="-81"/>
      <point x="199" y="-162"/>
      <point x="122" y="-162" type="qcurve" smooth="yes"/>
      <point x="47" y="-162"/>
    </contour>
  </outline>
</glyph>
<glyph name="six" format="2">
  <advance width="404"/>
  <unicode hex="0036"/>
  <outline>
    <contour>
      <point x="9" y="79"/>
      <point x="25" y="155" type="qcurve" smooth="yes"/>
      <point x="46" y="257" type="line" smooth="yes"/>
      <point x="55" y="300"/>
      <point x="82" y="360"/>
      <point x="110" y="404" type="qcurve" smooth="yes"/>
      <point x="300" y="707" type="line"/>
      <point x="375" y="707" type="line"/>
      <point x="189" y="408" type="line"/>
      <point x="198" y="414"/>
      <point x="231" y="422"/>
      <point x="248" y="422" type="qcurve" smooth="yes"/>
      <point x="314" y="422"/>
      <point x="372" y="340"/>
      <point x="357" y="268" type="qcurve" smooth="yes"/>
      <point x="333" y="153" type="line" smooth="yes"/>
      <point x="317" y="78"/>
      <point x="215" y="-9"/>
      <point x="146" y="-9" type="qcurve" smooth="yes"/>
      <point x="74" y="-9"/>
    </contour>
    <contour>
      <point x="249" y="106"/>
      <point x="259" y="152" type="qcurve" smooth="yes"/>
      <point x="281" y="262" type="line" smooth="yes"/>
      <point x="291" y="307"/>
      <point x="260" y="356"/>
      <point x="222" y="356" type="qcurve" smooth="yes"/>
      <point x="184" y="356"/>
      <point x="132" y="309"/>
      <point x="123" y="266" type="qcurve" smooth="yes"/>
      <point x="100" y="153" type="line" smooth="yes"/>
      <point x="90" y="107"/>
      <point x="121" y="57"/>
      <point x="160" y="57" type="qcurve" smooth="yes"/>
      <point x="198" y="57"/>
    </contour>
  </outline>
</glyph>
<glyph name="eight" format="2">
  <advance width="412"/>
  <unicode hex="0038"/>
  <outline>
    <contour>
      <point x="14" y="79"/>
      <point x="31" y="157" type="qcurve" smooth="yes"/>
      <point x="47" y="234" type="line" smooth="yes"/>
      <point x="67" y="332"/>
      <point x="146" y="371" type="qcurve"/>
      <point x="118" y="388"/>
      <point x="97" y="455"/>
      <point x="105" y="497" type="qcurve" smooth="yes"/>
      <point x="119" y="562" type="line" smooth="yes"/>
      <point x="133" y="632"/>
      <point x="232" y="716"/>
      <point x="300" y="716" type="qcurve" smooth="yes"/>
      <point x="369" y="716"/>
      <point x="431" y="632"/>
      <point x="417" y="562" type="qcurve" smooth="yes"/>
      <point x="403" y="497" type="line" smooth="yes"/>
      <point x="394" y="454"/>
      <point x="346" y="387"/>
      <point x="311" y="371" type="qcurve"/>
      <point x="374" y="333"/>
      <point x="353" y="234" type="qcurve" smooth="yes"/>
      <point x="337" y="157" type="line" smooth="yes"/>
      <point x="320" y="79"/>
      <point x="222" y="-9"/>
      <point x="149" y="-9" type="qcurve" smooth="yes"/>
      <point x="77" y="-9"/>
    </contour>
    <contour>
      <point x="326" y="453"/>
      <point x="335" y="497" type="qcurve" smooth="yes"/>
      <point x="349" y="562" type="line" smooth="yes"/>
      <point x="358" y="604"/>
      <point x="325" y="652"/>
      <point x="287" y="652" type="qcurve" smooth="yes"/>
      <point x="249" y="652"/>
      <point x="196" y="603"/>
      <point x="188" y="562" type="qcurve" smooth="yes"/>
      <point x="174" y="497" type="line" smooth="yes"/>
      <point x="165" y="452"/>
      <point x="195" y="401"/>
      <point x="234" y="401" type="qcurve" smooth="yes"/>
      <point x="275" y="401"/>
    </contour>
    <contour>
      <point x="269" y="159" type="qcurve" smooth="yes"/>
      <point x="285" y="236" type="line" smooth="yes"/>
      <point x="306" y="339"/>
      <point x="221" y="339" type="qcurve" smooth="yes"/>
      <point x="178" y="339"/>
      <point x="126" y="284"/>
      <point x="116" y="236" type="qcurve" smooth="yes"/>
      <point x="100" y="159" type="line" smooth="yes"/>
      <point x="90" y="110"/>
      <point x="119" y="54"/>
      <point x="162" y="54" type="qcurve" smooth="yes"/>
      <point x="247" y="55"/>
    </contour>
  </outline>
</glyph>
<glyph name="less" format="2">
  <advance width="430"/>
  <unicode hex="003C"/>
  <outline>
    <contour>
      <point x="38" y="250" type="line"/>
      <point x="51" y="315" type="line"/>
      <point x="430" y="458" type="line"/>
      <point x="416" y="389" type="line"/>
      <point x="130" y="283" type="line"/>
      <point x="372" y="176" type="line"/>
      <point x="357" y="108" type="line"/>
    </contour>
  </outline>
</glyph>
<glyph name="equal" format="2">
  <advance width="430"/>
  <unicode hex="003D"/>
  <outline>
    <contour>
      <point x="71" y="411" type="line"/>
      <point x="420" y="411" type="line"/>
      <point x="407" y="344" type="line"/>
      <point x="58" y="344" type="line"/>
    </contour>
    <contour>
      <point x="32" y="220" type="line"/>
      <point x="381" y="220" type="line"/>
      <point x="367" y="153" type="line"/>
      <point x="18" y="153" type="line"/>
    </contour>
  </outline>
</glyph>
<glyph name="greater" format="2">
  <advance width="430"/>
  <unicode hex="003E"/>
  <outline>
    <contour>
      <point x="23" y="176" type="line"/>
      <point x="309" y="283" type="line"/>
      <point x="67" y="389" type="line"/>
      <point x="81" y="458" type="line"/>
      <point x="400" y="315" type="line"/>
      <point x="387" y="250" type="line"/>
      <point x="8" y="108" type="line"/>
    </contour>
  </outline>
</glyph>
<glyph name="question" format="2">
  <advance width="371"/>
  <unicode hex="003F"/>
  <outline>
    <contour>
      <point x="142" y="252" type="line" smooth="yes"/>
      <point x="149" y="286"/>
      <point x="173" y="332"/>
      <point x="203" y="371" type="qcurve" smooth="yes"/>
      <point x="261" y="442" type="line" smooth="yes"/>
      <point x="287" y="475"/>
      <point x="312" y="520"/>
      <point x="319" y="552" type="qcurve" smooth="yes"/>
      <point x="339" y="650"/>
      <point x="263" y="650" type="qcurve" smooth="yes"/>
      <point x="219" y="650"/>
      <point x="173" y="591"/>
      <point x="159" y="524" type="qcurve"/>
      <point x="85" y="524" type="line"/>
      <point x="125" y="717"/>
      <point x="276" y="717" type="qcurve" smooth="yes"/>
      <point x="350" y="717"/>
      <point x="410" y="629"/>
      <point x="394" y="552" type="qcurve" smooth="yes"/>
      <point x="386" y="514"/>
      <point x="352" y="455"/>
      <point x="313" y="404" type="qcurve" smooth="yes"/>
      <point x="262" y="341" type="line" smooth="yes"/>
      <point x="240" y="313"/>
      <point x="222" y="276"/>
      <point x="216" y="247" type="qcurve" smooth="yes"/>
      <point x="203" y="182" type="line"/>
      <point x="128" y="182" type="line"/>
    </contour>
    <contour>
      <point x="108" y="99" type="line"/>
      <point x="188" y="99" type="line"/>
      <point x="167" y="0" type="line"/>
      <point x="87" y="0" type="line"/>
    </contour>
  </outline>
</glyph>
<glyph name="at" format="2">
  <advance width="751"/>
  <unicode hex="0040"/>
  <outline>
    <contour>
      <point x="40" y="213" type="curve" smooth="yes"/>
      <point x="73" y="371" type="line" smooth="yes"/>
      <point x="87" y="438"/>
      <point x="113" y="498"/>
      <point x="150" y="549" type="curve" smooth="yes"/>
      <point x="187" y="600"/>
      <point x="233" y="640"/>
      <point x="288" y="668" type="curve" smooth="yes"/>
      <point x="343" y="695"/>
      <point x="402" y="709"/>
      <point x="467" y="709" type="curve" smooth="yes"/>
      <point x="531" y="709"/>
      <point x="585" y="695"/>
      <point x="629" y="668" type="curve" smooth="yes"/>
      <point x="673" y="640"/>
      <point x="703" y="601"/>
      <point x="720" y="551" type="curve" smooth="yes"/>
      <point x="736" y="501"/>
      <point x="737" y="444"/>
      <point x="724" y="380" type="curve" smooth="yes"/>
      <point x="691" y="221" type="line" smooth="yes"/>
      <point x="680" y="167"/>
      <point x="660" y="126"/>
      <point x="632" y="99" type="curve" smooth="yes"/>
      <point x="603" y="71"/>
      <point x="568" y="57"/>
      <point x="526" y="57" type="curve" smooth="yes"/>
      <point x="500" y="57"/>
      <point x="479" y="63"/>
      <point x="462" y="75" type="curve" smooth="yes"/>
      <point x="445" y="86"/>
      <point x="435" y="103"/>
      <point x="431" y="124" type="curve"/>
      <point x="417" y="101"/>
      <point x="400" y="85"/>
      <point x="381" y="74" type="curve" smooth="yes"/>
      <point x="362" y="63"/>
      <point x="338" y="57"/>
      <point x="311" y="57" type="curve" smooth="yes"/>
      <point x="271" y="57"/>
      <point x="245" y="70"/>
      <point x="232" y="97" type="curve" smooth="yes"/>
      <point x="219" y="123"/>
      <point x="217" y="161"/>
      <point x="228" y="210" type="curve" smooth="yes"/>
      <point x="259" y="360" type="line" smooth="yes"/>
      <point x="269" y="409"/>
      <point x="286" y="446"/>
      <point x="309" y="472" type="curve" smooth="yes"/>
      <point x="332" y="497"/>
      <point x="363" y="510"/>
      <point x="403" y="510" type="curve" smooth="yes"/>
      <point x="442" y="510"/>
      <point x="468" y="494"/>
      <point x="481" y="463" type="curve"/>
      <point x="489" y="502" type="line"/>
      <point x="559" y="502" type="line"/>
      <point x="495" y="190" type="line" smooth="yes"/>
      <point x="490" y="167"/>
      <point x="492" y="149"/>
      <point x="501" y="137" type="curve" smooth="yes"/>
      <point x="510" y="125"/>
      <point x="523" y="119"/>
      <point x="540" y="119" type="curve" smooth="yes"/>
      <point x="563" y="119"/>
      <point x="581" y="127"/>
      <point x="594" y="143" type="curve" smooth="yes"/>
      <point x="607" y="159"/>
      <point x="617" y="183"/>
      <point x="624" y="214" type="curve" smooth="yes"/>
      <point x="658" y="379" type="line" smooth="yes"/>
      <point x="675" y="461"/>
      <point x="665" y="526"/>
      <point x="629" y="574" type="curve" smooth="yes"/>
      <point x="593" y="622"/>
      <point x="535" y="646"/>
      <point x="454" y="646" type="curve" smooth="yes"/>
      <point x="373" y="646"/>
      <point x="305" y="622"/>
      <point x="250" y="574" type="curve" smooth="yes"/>
      <point x="195" y="525"/>
      <point x="159" y="458"/>
      <point x="141" y="371" type="curve" smooth="yes"/>
      <point x="109" y="214" type="line" smooth="yes"/>
      <point x="90" y="125"/>
      <point x="98" y="56"/>
      <point x="133" y="6" type="curve" smooth="yes"/>
      <point x="167" y="-44"/>
      <point x="225" y="-69"/>
      <point x="306" y="-69" type="curve" smooth="yes"/>
      <point x="343" y="-69"/>
      <point x="376" y="-65"/>
      <point x="406" y="-56" type="curve" smooth="yes"/>
      <point x="435" y="-48"/>
      <point x="465" y="-35"/>
      <point x="496" y="-16" type="curve"/>
      <point x="518" y="-68" type="line"/>
      <point x="481" y="-90"/>
      <point x="445" y="-106"/>
      <point x="409" y="-116" type="curve" smooth="yes"/>
      <point x="372" y="-126"/>
      <point x="334" y="-131"/>
      <point x="293" y="-131" type="curve" smooth="yes"/>
      <point x="226" y="-131"/>
      <point x="172" y="-117"/>
      <point x="129" y="-88" type="curve" smooth="yes"/>
      <point x="86" y="-60"/>
      <point x="57" y="-20"/>
      <point x="42" y="32" type="curve" smooth="yes"/>
      <point x="27" y="83"/>
      <point x="26" y="144"/>
    </contour>
    <contour>
      <point x="429" y="212" type="curve" smooth="yes"/>
      <point x="459" y="358" type="line" smooth="yes"/>
      <point x="465" y="387"/>
      <point x="465" y="409"/>
      <point x="458" y="424" type="curve" smooth="yes"/>
      <point x="451" y="439"/>
      <point x="436" y="446"/>
      <point x="412" y="446" type="curve" smooth="yes"/>
      <point x="388" y="446"/>
      <point x="370" y="439"/>
      <point x="357" y="424" type="curve" smooth="yes"/>
      <point x="344" y="409"/>
      <point x="334" y="387"/>
      <point x="329" y="359" type="curve" smooth="yes"/>
      <point x="298" y="211" type="line" smooth="yes"/>
      <point x="292" y="182"/>
      <point x="292" y="159"/>
      <point x="299" y="144" type="curve" smooth="yes"/>
      <point x="306" y="129"/>
      <point x="321" y="121"/>
      <point x="344" y="121" type="curve" smooth="yes"/>
      <point x="369" y="121"/>
      <point x="388" y="129"/>
      <point x="401" y="145" type="curve" smooth="yes"/>
      <point x="414" y="161"/>
      <point x="423" y="183"/>
    </contour>
  </outline>
</glyph>
<glyph name="B" format="2">
  <advance width="481"/>
  <unicode hex="0042"/>
  <outline>
    <contour>
      <point x="414" y="195" type="curve" smooth="yes"/>
      <point x="401" y="131"/>
      <point x="376" y="83"/>
      <point x="339" y="50" type="curve" smooth="yes"/>
      <point x="302" y="17"/>
      <point x="252" y="0"/>
      <point x="188" y="0" type="curve" smooth="yes"/>
      <point x="6" y="0" type="line"/>
      <point x="153" y="707" type="line"/>
      <point x="334" y="707" type="line" smooth="yes"/>
      <point x="397" y="707"/>
      <point x="439" y="692"/>
      <point x="461" y="661" type="curve" smooth="yes"/>
      <point x="483" y="630"/>
      <point x="488" y="584"/>
      <point x="475" y="522" type="curve" smooth="yes"/>
      <point x="458" y="441"/>
      <point x="416" y="390"/>
      <point x="349" y="367" type="curve"/>
      <point x="412" y="348"/>
      <point x="433" y="291"/>
    </contour>
    <contour>
      <point x="340" y="200" type="curve" smooth="yes"/>
      <point x="350" y="250"/>
      <point x="345" y="286"/>
      <point x="325" y="308" type="curve" smooth="yes"/>
      <point x="309" y="325"/>
      <point x="285" y="333"/>
      <point x="251" y="333" type="curve" smooth="yes"/>
      <point x="150" y="333" type="line"/>
      <point x="95" y="67" type="line"/>
      <point x="196" y="67" type="line" smooth="yes"/>
      <point x="237" y="67"/>
      <point x="268" y="78"/>
      <point x="291" y="100" type="curve" smooth="yes"/>
      <point x="314" y="121"/>
      <point x="330" y="155"/>
    </contour>
    <contour>
      <point x="214" y="640" type="line"/>
      <point x="164" y="399" type="line"/>
      <point x="264" y="399" type="line" smooth="yes"/>
      <point x="338" y="399"/>
      <point x="383" y="439"/>
      <point x="399" y="518" type="curve" smooth="yes"/>
      <point x="408" y="562"/>
      <point x="405" y="593"/>
      <point x="392" y="612" type="curve" smooth="yes"/>
      <point x="379" y="631"/>
      <point x="353" y="640"/>
      <point x="315" y="640" type="curve" smooth="yes"/>
    </contour>
  </outline>
</glyph>
<glyph name="E" format="2">
  <advance width="412"/>
  <unicode hex="0045"/>
  <outline>
    <contour>
      <point x="213" y="640" type="line"/>
      <point x="162" y="393" type="line"/>
      <point x="369" y="393" type="line"/>
      <point x="355" y="326" type="line"/>
      <point x="148" y="326" type="line"/>
      <point x="94" y="67" type="line"/>
      <point x="335" y="67" type="line"/>
      <point x="321" y="0" type="line"/>
      <point x="6" y="0" type="line"/>
      <point x="153" y="707" type="line"/>
      <point x="468" y="707" type="line"/>
      <point x="454" y="640" type="line"/>
    </contour>
  </outline>
</glyph>
<glyph name="G" format="2">
  <advance width="489"/>
  <unicode hex="0047"/>
  <outline>
    <contour>
      <point x="41" y="206" type="curve" smooth="yes"/>
      <point x="102" y="501" type="line" smooth="yes"/>
      <point x="117" y="573"/>
      <point x="146" y="627"/>
      <point x="189" y="663" type="curve" smooth="yes"/>
      <point x="232" y="698"/>
      <point x="282" y="716"/>
      <point x="340" y="716" type="curve" smooth="yes"/>
      <point x="397" y="716"/>
      <point x="439" y="699"/>
      <point x="467" y="665" type="curve" smooth="yes"/>
      <point x="495" y="631"/>
      <point x="502" y="583"/>
      <point x="489" y="520" type="curve" smooth="yes"/>
      <point x="487" y="508" type="line"/>
      <point x="412" y="508" type="line"/>
      <point x="414" y="520" type="line" smooth="yes"/>
      <point x="423" y="561"/>
      <point x="419" y="592"/>
      <point x="403" y="615" type="curve" smooth="yes"/>
      <point x="387" y="637"/>
      <point x="361" y="648"/>
      <point x="326" y="648" type="curve" smooth="yes"/>
      <point x="247" y="648"/>
      <point x="197" y="597"/>
      <point x="176" y="494" type="curve" smooth="yes"/>
      <point x="116" y="205" type="line" smooth="yes"/>
      <point x="104" y="148"/>
      <point x="109" y="107"/>
      <point x="132" y="84" type="curve" smooth="yes"/>
      <point x="147" y="67"/>
      <point x="171" y="59"/>
      <point x="203" y="59" type="curve" smooth="yes"/>
      <point x="240" y="59"/>
      <point x="271" y="71"/>
      <point x="296" y="95" type="curve" smooth="yes"/>
      <point x="321" y="118"/>
      <point x="338" y="154"/>
      <point x="348" y="202" type="curve" smooth="yes"/>
      <point x="368" y="300" type="line"/>
      <point x="252" y="300" type="line"/>
      <point x="265" y="362" type="line"/>
      <point x="456" y="362" type="line"/>
      <point x="424" y="205" type="line" smooth="yes"/>
      <point x="409" y="134"/>
      <point x="381" y="81"/>
      <point x="339" y="46" type="curve" smooth="yes"/>
      <point x="296" y="10"/>
      <point x="246" y="-8"/>
      <point x="189" y="-8" type="curve" smooth="yes"/>
      <point x="131" y="-8"/>
      <point x="88" y="10"/>
      <point x="61" y="46" type="curve" smooth="yes"/>
      <point x="33" y="81"/>
      <point x="26" y="135"/>
    </contour>
  </outline>
</glyph>
<glyph name="J" format="2">
  <advance width="269"/>
  <unicode hex="004A"/>
  <outline>
    <contour>
      <point x="-16" y="67" type="line"/>
      <point x="13" y="67" type="line" smooth="yes"/>
      <point x="37" y="67"/>
      <point x="57" y="74"/>
      <point x="72" y="88" type="curve" smooth="yes"/>
      <point x="87" y="102"/>
      <point x="98" y="122"/>
      <point x="103" y="148" type="curve" smooth="yes"/>
      <point x="219" y="707" type="line"/>
      <point x="294" y="707" type="line"/>
      <point x="176" y="140" type="line" smooth="yes"/>
      <point x="167" y="94"/>
      <point x="147" y="59"/>
      <point x="118" y="36" type="curve" smooth="yes"/>
      <point x="89" y="12"/>
      <point x="51" y="0"/>
      <point x="5" y="0" type="curve" smooth="yes"/>
      <point x="-30" y="0" type="line"/>
    </contour>
  </outline>
</glyph>
<glyph name="Q" format="2">
  <advance width="489"/>
  <unicode hex="0051"/>
  <outline>
    <contour>
      <point x="294" y="16" type="qcurve"/>
      <point x="323" y="-122" type="line"/>
      <point x="257" y="-146" type="line"/>
      <point x="228" y="-5" type="line"/>
      <point x="209" y="-8"/>
      <point x="188" y="-8" type="qcurve" smooth="yes"/>
      <point x="101" y="-8"/>
      <point x="19" y="99"/>
      <point x="41" y="206" type="qcurve" smooth="yes"/>
      <point x="102" y="501" type="line" smooth="yes"/>
      <point x="125" y="610"/>
      <point x="252" y="716"/>
      <point x="339" y="716" type="qcurve" smooth="yes"/>
      <point x="426" y="716"/>
      <point x="508" y="609"/>
      <point x="485" y="501" type="qcurve" smooth="yes"/>
      <point x="424" y="206" type="line" smooth="yes"/>
      <point x="409" y="135"/>
      <point x="342" y="40"/>
    </contour>
    <contour>
      <point x="409" y="494" type="line" smooth="yes"/>
      <point x="425" y="572"/>
      <point x="382" y="648"/>
      <point x="326" y="648" type="qcurve" smooth="yes"/>
      <point x="267" y="648"/>
      <point x="192" y="572"/>
      <point x="176" y="494" type="qcurve" smooth="yes"/>
      <point x="116" y="205" type="line" smooth="yes"/>
      <point x="85" y="60"/>
      <point x="203" y="59" type="qcurve" smooth="yes"/>
      <point x="258" y="59"/>
      <point x="333" y="132"/>
      <point x="349" y="205" type="qcurve" smooth="yes"/>
    </contour>
  </outline>
</glyph>
<glyph name="U" format="2">
  <advance width="491"/>
  <unicode hex="0055"/>
  <outline>
    <contour>
      <point x="43" y="180" type="curve" smooth="yes"/>
      <point x="153" y="707" type="line"/>
      <point x="228" y="707" type="line"/>
      <point x="119" y="184" type="line" smooth="yes"/>
      <point x="111" y="144"/>
      <point x="115" y="113"/>
      <point x="130" y="92" type="curve" smooth="yes"/>
      <point x="145" y="70"/>
      <point x="169" y="59"/>
      <point x="203" y="59" type="curve" smooth="yes"/>
      <point x="237" y="59"/>
      <point x="266" y="70"/>
      <point x="290" y="92" type="curve" smooth="yes"/>
      <point x="314" y="114"/>
      <point x="330" y="145"/>
      <point x="338" y="184" type="curve" smooth="yes"/>
      <point x="447" y="707" type="line"/>
      <point x="522" y="707" type="line"/>
      <point x="412" y="180" type="line" smooth="yes"/>
      <point x="401" y="123"/>
      <point x="374" y="78"/>
      <point x="333" y="44" type="curve" smooth="yes"/>
      <point x="292" y="9"/>
      <point x="244" y="-8"/>
      <point x="189" y="-8" type="curve" smooth="yes"/>
      <point x="154" y="-8"/>
      <point x="124" y="0"/>
      <point x="99" y="16" type="curve" smooth="yes"/>
      <point x="74" y="31"/>
      <point x="57" y="53"/>
      <point x="47" y="82" type="curve" smooth="yes"/>
      <point x="37" y="111"/>
      <point x="36" y="143"/>
    </contour>
  </outline>
</glyph>
<glyph name="Z" format="2">
  <advance width="394"/>
  <unicode hex="005A"/>
  <outline>
    <contour>
      <point x="326" y="67" type="line"/>
      <point x="312" y="0" type="line"/>
      <point x="-24" y="0" type="line"/>
      <point x="-10" y="67" type="line"/>
      <point x="364" y="640" type="line"/>
      <point x="120" y="640" type="line"/>
      <point x="134" y="707" type="line"/>
      <point x="451" y="707" type="line"/>
      <point x="437" y="640" type="line"/>
      <point x="62" y="67" type="line"/>
    </contour>
  </outline>
</glyph>
<glyph name="backslash" format="2">
  <advance width="303"/>
  <unicode hex="005C"/>
  <outline>
    <contour>
      <point x="143" y="707" type="line"/>
      <point x="210" y="707" type="line"/>
      <point x="195" y="-10" type="line"/>
      <point x="128" y="-10" type="line"/>
    </contour>
  </outline>
</glyph>
<glyph name="asciicircum" format="2">
  <advance width="430"/>
  <unicode hex="005E"/>
  <outline>
    <contour>
      <point x="273" y="707" type="line"/>
      <point x="340" y="707" type="line"/>
      <point x="398" y="287" type="line"/>
      <point x="331" y="287" type="line"/>
      <point x="288" y="614" type="line"/>
      <point x="108" y="287" type="line"/>
      <point x="42" y="287" type="line"/>
    </contour>
  </outline>
</glyph>
<glyph name="c" format="2">
  <advance width="418"/>
  <unicode hex="0063"/>
  <outline>
    <contour>
      <point x="32" y="172" type="curve" smooth="yes"/>
      <point x="70" y="357" type="line" smooth="yes"/>
      <point x="83" y="419"/>
      <point x="107" y="465"/>
      <point x="141" y="494" type="curve" smooth="yes"/>
      <point x="175" y="523"/>
      <point x="217" y="538"/>
      <point x="268" y="538" type="curve" smooth="yes"/>
      <point x="318" y="538"/>
      <point x="354" y="524"/>
      <point x="375" y="496" type="curve" smooth="yes"/>
      <point x="396" y="468"/>
      <point x="401" y="426"/>
      <point x="390" y="369" type="curve" smooth="yes"/>
      <point x="387" y="354" type="line"/>
      <point x="317" y="354" type="line"/>
      <point x="320" y="369" type="line" smooth="yes"/>
      <point x="329" y="411"/>
      <point x="325" y="441"/>
      <point x="308" y="458" type="curve" smooth="yes"/>
      <point x="297" y="469"/>
      <point x="279" y="475"/>
      <point x="256" y="475" type="curve" smooth="yes"/>
      <point x="226" y="475"/>
      <point x="201" y="466"/>
      <point x="182" y="447" type="curve" smooth="yes"/>
      <point x="163" y="428"/>
      <point x="148" y="395"/>
      <point x="139" y="349" type="curve" smooth="yes"/>
      <point x="103" y="180" type="line" smooth="yes"/>
      <point x="94" y="134"/>
      <point x="95" y="102"/>
      <point x="106" y="83" type="curve" smooth="yes"/>
      <point x="117" y="64"/>
      <point x="138" y="54"/>
      <point x="167" y="54" type="curve" smooth="yes"/>
      <point x="225" y="54"/>
      <point x="261" y="90"/>
      <point x="276" y="161" type="curve" smooth="yes"/>
      <point x="279" y="175" type="line"/>
      <point x="349" y="175" type="line"/>
      <point x="347" y="162" type="line" smooth="yes"/>
      <point x="335" y="105"/>
      <point x="312" y="63"/>
      <point x="279" y="35" type="curve" smooth="yes"/>
      <point x="246" y="6"/>
      <point x="204" y="-8"/>
      <point x="155" y="-8" type="curve" smooth="yes"/>
      <point x="104" y="-8"/>
      <point x="67" y="7"/>
      <point x="45" y="36" type="curve" smooth="yes"/>
      <point x="23" y="65"/>
      <point x="19" y="110"/>
    </contour>
  </outline>
</glyph>
<glyph name="e" format="2">
  <advance width="417"/>
  <unicode hex="0065"/>
  <outline>
    <contour>
      <point x="117" y="244" type="line"/>
      <point x="104" y="181" type="line" smooth="yes"/>
      <point x="89" y="111"/>
      <point x="125" y="52"/>
      <point x="169" y="52" type="qcurve" smooth="yes"/>
      <point x="253" y="52"/>
      <point x="275" y="158" type="qcurve" smooth="yes"/>
      <point x="276" y="162" type="line"/>
      <point x="345" y="162" type="line"/>
      <point x="344" y="159" type="line" smooth="yes"/>
      <point x="327" y="76"/>
      <point x="228" y="-8"/>
      <point x="154" y="-8" type="qcurve" smooth="yes"/>
      <point x="-6" y="-8"/>
      <point x="33" y="180" type="qcurve" smooth="yes"/>
      <point x="69" y="351" type="line" smooth="yes"/>
      <point x="88" y="443"/>
      <point x="191" y="538"/>
      <point x="265" y="538" type="qcurve" smooth="yes"/>
      <point x="339" y="538"/>
      <point x="404" y="443"/>
      <point x="385" y="351" type="qcurve" smooth="yes"/>
      <point x="363" y="244" type="line"/>
    </contour>
    <contour>
      <point x="153" y="417"/>
      <point x="139" y="349" type="qcurve" smooth="yes"/>
      <point x="128" y="297" type="line"/>
      <point x="305" y="297" type="line"/>
      <point x="316" y="351" type="line" smooth="yes"/>
      <point x="330" y="418"/>
      <point x="296" y="475"/>
      <point x="253" y="475" type="qcurve" smooth="yes"/>
      <point x="210" y="475"/>
    </contour>
  </outline>
</glyph>
<glyph name="f" format="2">
  <advance width="294"/>
  <unicode hex="0066"/>
  <outline>
    <contour>
      <point x="238" y="578" type="curve" smooth="yes"/>
      <point x="228" y="529" type="line"/>
      <point x="319" y="529" type="line"/>
      <point x="308" y="475" type="line"/>
      <point x="217" y="475" type="line"/>
      <point x="118" y="0" type="line"/>
      <point x="48" y="0" type="line"/>
      <point x="147" y="475" type="line"/>
      <point x="84" y="475" type="line"/>
      <point x="95" y="529" type="line"/>
      <point x="158" y="529" type="line"/>
      <point x="166" y="568" type="line" smooth="yes"/>
      <point x="175" y="613"/>
      <point x="194" y="648"/>
      <point x="222" y="672" type="curve" smooth="yes"/>
      <point x="250" y="695"/>
      <point x="286" y="707"/>
      <point x="330" y="707" type="curve" smooth="yes"/>
      <point x="356" y="707" type="line"/>
      <point x="344" y="651" type="line"/>
      <point x="324" y="651" type="line" smooth="yes"/>
      <point x="299" y="651"/>
      <point x="279" y="645"/>
      <point x="266" y="634" type="curve" smooth="yes"/>
      <point x="253" y="622"/>
      <point x="243" y="603"/>
    </contour>
  </outline>
</glyph>
<glyph name="g" format="2">
  <advance width="421"/>
  <unicode hex="0067"/>
  <outline>
    <contour>
      <point x="-5" y="-32" type="qcurve"/>
      <point x="62" y="-32" type="line"/>
      <point x="57" y="-66"/>
      <point x="92" y="-105"/>
      <point x="129" y="-105" type="qcurve" smooth="yes"/>
      <point x="174" y="-105"/>
      <point x="227" y="-48"/>
      <point x="239" y="10" type="qcurve" smooth="yes"/>
      <point x="255" y="88" type="line"/>
      <point x="210" y="33"/>
      <point x="142" y="33" type="qcurve" smooth="yes"/>
      <point x="80" y="33"/>
      <point x="21" y="122"/>
      <point x="40" y="212" type="qcurve" smooth="yes"/>
      <point x="70" y="358" type="line" smooth="yes"/>
      <point x="89" y="448"/>
      <point x="185" y="538"/>
      <point x="247" y="538" type="qcurve" smooth="yes"/>
      <point x="315" y="538"/>
      <point x="336" y="478" type="qcurve"/>
      <point x="347" y="529" type="line"/>
      <point x="416" y="529" type="line"/>
      <point x="309" y="16" type="line" smooth="yes"/>
      <point x="292" y="-68"/>
      <point x="195" y="-166"/>
      <point x="116" y="-166" type="qcurve" smooth="yes"/>
      <point x="46" y="-166"/>
      <point x="-16" y="-94"/>
    </contour>
    <contour>
      <point x="283" y="220" type="qcurve" smooth="yes"/>
      <point x="310" y="349" type="line" smooth="yes"/>
      <point x="336" y="475"/>
      <point x="248" y="475" type="qcurve" smooth="yes"/>
      <point x="209" y="475"/>
      <point x="153" y="418"/>
      <point x="139" y="350" type="qcurve" smooth="yes"/>
      <point x="112" y="220" type="line" smooth="yes"/>
      <point x="98" y="152"/>
      <point x="128" y="95"/>
      <point x="169" y="95" type="qcurve" smooth="yes"/>
      <point x="212" y="95"/>
      <point x="270" y="159"/>
    </contour>
  </outline>
</glyph>
<glyph name="h" format="2">
  <advance width="425"/>
  <unicode hex="0068"/>
  <outline>
    <contour>
      <point x="152" y="707" type="line"/>
      <point x="222" y="707" type="line"/>
      <point x="175" y="483" type="line"/>
      <point x="190" y="500"/>
      <point x="207" y="514"/>
      <point x="228" y="524" type="curve" smooth="yes"/>
      <point x="248" y="533"/>
      <point x="268" y="538"/>
      <point x="289" y="538" type="curve" smooth="yes"/>
      <point x="331" y="538"/>
      <point x="361" y="525"/>
      <point x="379" y="498" type="curve" smooth="yes"/>
      <point x="397" y="471"/>
      <point x="401" y="432"/>
      <point x="391" y="383" type="curve" smooth="yes"/>
      <point x="311" y="0" type="line"/>
      <point x="241" y="0" type="line"/>
      <point x="320" y="380" type="line" smooth="yes"/>
      <point x="327" y="411"/>
      <point x="324" y="434"/>
      <point x="313" y="451" type="curve" smooth="yes"/>
      <point x="301" y="467"/>
      <point x="282" y="475"/>
      <point x="257" y="475" type="curve" smooth="yes"/>
      <point x="232" y="475"/>
      <point x="211" y="467"/>
      <point x="192" y="451" type="curve" smooth="yes"/>
      <point x="173" y="434"/>
      <point x="161" y="411"/>
      <point x="154" y="380" type="curve" smooth="yes"/>
      <point x="75" y="0" type="line"/>
      <point x="5" y="0" type="line"/>
    </contour>
  </outline>
</glyph>
<glyph name="n" format="2">
  <advance width="425"/>
  <unicode hex="006E"/>
  <outline>
    <contour>
      <point x="115" y="529" type="line"/>
      <point x="183" y="529" type="line"/>
      <point x="173" y="481" type="line"/>
      <point x="186" y="498"/>
      <point x="204" y="512"/>
      <point x="225" y="523" type="curve" smooth="yes"/>
      <point x="246" y="533"/>
      <point x="267" y="538"/>
      <point x="289" y="538" type="curve" smooth="yes"/>
      <point x="331" y="538"/>
      <point x="361" y="524"/>
      <point x="379" y="497" type="curve" smooth="yes"/>
      <point x="397" y="470"/>
      <point x="401" y="432"/>
      <point x="391" y="383" type="curve" smooth="yes"/>
      <point x="311" y="0" type="line"/>
      <point x="241" y="0" type="line"/>
      <point x="320" y="380" type="line" smooth="yes"/>
      <point x="327" y="411"/>
      <point x="324" y="434"/>
      <point x="313" y="451" type="curve" smooth="yes"/>
      <point x="301" y="467"/>
      <point x="282" y="475"/>
      <point x="257" y="475" type="curve" smooth="yes"/>
      <point x="232" y="475"/>
      <point x="211" y="467"/>
      <point x="192" y="450" type="curve" smooth="yes"/>
      <point x="173" y="433"/>
      <point x="160" y="410"/>
      <point x="154" y="380" type="curve" smooth="yes"/>
      <point x="75" y="0" type="line"/>
      <point x="5" y="0" type="line"/>
    </contour>
  </outline>
</glyph>
<glyph name="s" format="2">
  <advance width="391"/>
  <unicode hex="0073"/>
  <outline>
    <contour>
      <point x="16" y="142" type="curve" smooth="yes"/>
      <point x="17" y="148" type="line"/>
      <point x="81" y="148" type="line"/>
      <point x="80" y="142" type="line" smooth="yes"/>
      <point x="74" y="113"/>
      <point x="78" y="91"/>
      <point x="91" y="76" type="curve" smooth="yes"/>
      <point x="104" y="61"/>
      <point x="125" y="53"/>
      <point x="154" y="53" type="curve" smooth="yes"/>
      <point x="181" y="53"/>
      <point x="204" y="60"/>
      <point x="223" y="74" type="curve" smooth="yes"/>
      <point x="242" y="88"/>
      <point x="254" y="109"/>
      <point x="260" y="138" type="curve" smooth="yes"/>
      <point x="265" y="161"/>
      <point x="263" y="179"/>
      <point x="255" y="192" type="curve" smooth="yes"/>
      <point x="246" y="205"/>
      <point x="230" y="216"/>
      <point x="206" y="227" type="curve" smooth="yes"/>
      <point x="145" y="255" type="line" smooth="yes"/>
      <point x="84" y="283"/>
      <point x="60" y="329"/>
      <point x="73" y="393" type="curve" smooth="yes"/>
      <point x="82" y="437"/>
      <point x="103" y="472"/>
      <point x="136" y="499" type="curve" smooth="yes"/>
      <point x="169" y="525"/>
      <point x="209" y="538"/>
      <point x="256" y="538" type="curve" smooth="yes"/>
      <point x="303" y="538"/>
      <point x="337" y="525"/>
      <point x="358" y="498" type="curve" smooth="yes"/>
      <point x="379" y="471"/>
      <point x="384" y="435"/>
      <point x="375" y="390" type="curve" smooth="yes"/>
      <point x="372" y="377" type="line"/>
      <point x="308" y="377" type="line"/>
      <point x="310" y="383" type="line" smooth="yes"/>
      <point x="316" y="413"/>
      <point x="313" y="436"/>
      <point x="302" y="453" type="curve" smooth="yes"/>
      <point x="290" y="469"/>
      <point x="270" y="477"/>
      <point x="242" y="477" type="curve" smooth="yes"/>
      <point x="217" y="477"/>
      <point x="195" y="470"/>
      <point x="178" y="456" type="curve" smooth="yes"/>
      <point x="160" y="442"/>
      <point x="149" y="423"/>
      <point x="144" y="398" type="curve" smooth="yes"/>
      <point x="140" y="379"/>
      <point x="141" y="363"/>
      <point x="148" y="350" type="curve" smooth="yes"/>
      <point x="155" y="337"/>
      <point x="169" y="325"/>
      <point x="190" y="314" type="curve" smooth="yes"/>
      <point x="252" y="287" type="line" smooth="yes"/>
      <point x="285" y="272"/>
      <point x="308" y="254"/>
      <point x="322" y="233" type="curve" smooth="yes"/>
      <point x="335" y="212"/>
      <point x="338" y="182"/>
      <point x="330" y="143" type="curve" smooth="yes"/>
      <point x="320" y="95"/>
      <point x="298" y="58"/>
      <point x="264" y="32" type="curve" smooth="yes"/>
      <point x="230" y="5"/>
      <point x="188" y="-8"/>
      <point x="139" y="-8" type="curve" smooth="yes"/>
      <point x="91" y="-8"/>
      <point x="56" y="6"/>
      <point x="34" y="33" type="curve" smooth="yes"/>
      <point x="12" y="60"/>
      <point x="6" y="96"/>
    </contour>
  </outline>
</glyph>
<glyph name="t" format="2">
  <advance width="302"/>
  <unicode hex="0074"/>
  <outline>
    <contour>
      <point x="209" y="475" type="line"/>
      <point x="140" y="142" type="line" smooth="yes"/>
      <point x="131" y="101"/>
      <point x="162" y="61"/>
      <point x="202" y="61" type="qcurve" smooth="yes"/>
      <point x="216" y="61" type="line"/>
      <point x="203" y="0" type="line"/>
      <point x="186" y="0" type="line" smooth="yes"/>
      <point x="41" y="0"/>
      <point x="69" y="139" type="qcurve" smooth="yes"/>
      <point x="139" y="475" type="line"/>
      <point x="72" y="475" type="line"/>
      <point x="83" y="529" type="line"/>
      <point x="150" y="529" type="line"/>
      <point x="173" y="640" type="line"/>
      <point x="250" y="672" type="line"/>
      <point x="220" y="529" type="line"/>
      <point x="321" y="529" type="line"/>
      <point x="310" y="475" type="line"/>
    </contour>
  </outline>
</glyph>
<glyph name="u" format="2">
  <advance width="425"/>
  <unicode hex="0075"/>
  <outline>
    <contour>
      <point x="21" y="77"/>
      <point x="39" y="163" type="qcurve" smooth="yes"/>
      <point x="115" y="529" type="line"/>
      <point x="185" y="529" type="line"/>
      <point x="119" y="210" type="line" smooth="yes"/>
      <point x="101" y="126"/>
      <point x="120" y="54"/>
      <point x="170" y="54" type="qcurve" smooth="yes"/>
      <point x="204" y="54"/>
      <point x="246" y="85"/>
      <point x="272" y="151"/>
      <point x="285" y="210" type="qcurve" smooth="yes"/>
      <point x="351" y="529" type="line"/>
      <point x="421" y="529" type="line"/>
      <point x="345" y="163" type="line" smooth="yes"/>
      <point x="327" y="77"/>
      <point x="234" y="-8"/>
      <point x="156" y="-8" type="qcurve" smooth="yes"/>
      <point x="78" y="-8"/>
    </contour>
  </outline>
</glyph>
<glyph name="x" format="2">
  <advance width="357"/>
  <unicode hex="0078"/>
  <outline>
    <contour>
      <point x="212" y="0" type="line"/>
      <point x="163" y="197" type="line"/>
      <point x="34" y="0" type="line"/>
      <point x="-40" y="0" type="line"/>
      <point x="143" y="275" type="line"/>
      <point x="80" y="529" type="line"/>
      <point x="154" y="529" type="line"/>
      <point x="199" y="354" type="line"/>
      <point x="312" y="529" type="line"/>
      <point x="387" y="529" type="line"/>
      <point x="217" y="280" type="line"/>
      <point x="287" y="0" type="line"/>
    </contour>
  </outline>
</glyph>
<glyph name="bar" format="2">
  <advance width="272"/>
  <unicode hex="007C"/>
  <outline>
    <contour>
      <point x="205" y="758" type="line"/>
      <point x="273" y="758" type="line"/>
      <point x="97" y="-85" type="line"/>
      <point x="29" y="-85" type="line"/>
    </contour>
  </outline>
</glyph>
<glyph name="asciitilde" format="2">
  <advance width="430"/>
  <unicode hex="007E"/>
  <outline>
    <contour>
      <point x="220" y="237"/>
      <point x="201" y="251" type="qcurve" smooth="yes"/>
      <point x="172" y="274"/>
      <point x="153" y="273" type="qcurve" smooth="yes"/>
      <point x="135" y="273"/>
      <point x="101" y="251"/>
      <point x="76" y="218" type="qcurve"/>
      <point x="28" y="252" type="line"/>
      <point x="61" y="299"/>
      <point x="128" y="344"/>
      <point x="163" y="344" type="qcurve" smooth="yes"/>
      <point x="185" y="344"/>
      <point x="216" y="329"/>
      <point x="236" y="313" type="qcurve" smooth="yes"/>
      <point x="253" y="301"/>
      <point x="274" y="291"/>
      <point x="286" y="291" type="qcurve" smooth="yes"/>
      <point x="305" y="291"/>
      <point x="336" y="313"/>
      <point x="361" y="347" type="qcurve"/>
      <point x="409" y="313" type="line"/>
      <point x="376" y="265"/>
      <point x="312" y="221"/>
      <point x="275" y="221" type="qcurve" smooth="yes"/>
      <point x="253" y="221"/>
    </contour>
  </outline>
</glyph>
<glyph name="cent" format="2">
  <advance width="418"/>
  <unicode hex="00A2"/>
  <outline>
    <contour>
      <point x="317" y="354" type="line"/>
      <point x="320" y="369" type="line" smooth="yes"/>
      <point x="332" y="428"/>
      <point x="320" y="462"/>
      <point x="284" y="471" type="curve"/>
      <point x="198" y="58" type="line"/>
      <point x="238" y="69"/>
      <point x="264" y="103"/>
      <point x="276" y="161" type="curve" smooth="yes"/>
      <point x="279" y="175" type="line"/>
      <point x="349" y="175" type="line"/>
      <point x="347" y="162" type="line" smooth="yes"/>
      <point x="336" y="111"/>
      <point x="317" y="72"/>
      <point x="289" y="44" type="curve" smooth="yes"/>
      <point x="260" y="16"/>
      <point x="226" y="-1"/>
      <point x="185" y="-6" type="curve"/>
      <point x="165" y="-102" type="line"/>
      <point x="110" y="-102" type="line"/>
      <point x="130" y="-7" type="line"/>
      <point x="95" y="-3"/>
      <point x="69" y="9"/>
      <point x="52" y="28" type="curve" smooth="yes"/>
      <point x="25" y="58"/>
      <point x="18" y="106"/>
      <point x="32" y="172" type="curve" smooth="yes"/>
      <point x="70" y="357" type="line" smooth="yes"/>
      <point x="82" y="414"/>
      <point x="103" y="457"/>
      <point x="133" y="486" type="curve" smooth="yes"/>
      <point x="162" y="515"/>
      <point x="199" y="532"/>
      <point x="243" y="537" type="curve"/>
      <point x="261" y="627" type="line"/>
      <point x="316" y="627" type="line"/>
      <point x="297" y="536" type="line"/>
      <point x="336" y="531"/>
      <point x="364" y="514"/>
      <point x="381" y="486" type="curve" smooth="yes"/>
      <point x="397" y="458"/>
      <point x="400" y="419"/>
      <point x="390" y="369" type="curve" smooth="yes"/>
      <point x="387" y="354" type="line"/>
    </contour>
    <contour>
      <point x="143" y="56" type="curve"/>
      <point x="229" y="473" type="line"/>
      <point x="207" y="468"/>
      <point x="189" y="456"/>
      <point x="174" y="437" type="curve" smooth="yes"/>
      <point x="159" y="417"/>
      <point x="147" y="388"/>
      <point x="139" y="349" type="curve" smooth="yes"/>
      <point x="103" y="180" type="line" smooth="yes"/>
      <point x="96" y="142"/>
      <point x="96" y="113"/>
      <point x="103" y="93" type="curve" smooth="yes"/>
      <point x="110" y="73"/>
      <point x="123" y="61"/>
    </contour>
  </outline>
</glyph>
<glyph name="brokenbar" format="2">
  <advance width="272"/>
  <unicode hex="00A6"/>
  <outline>
    <contour>
      <point x="205" y="758" type="line"/>
      <point x="273" y="758" type="line"/>
      <point x="198" y="397" type="line"/>
      <point x="130" y="397" type="line"/>
    </contour>
    <contour>
      <point x="105" y="278" type="line"/>
      <point x="173" y="278" type="line"/>
      <point x="97" y="-85" type="line"/>
      <point x="29" y="-85" type="line"/>
    </contour>
  </outline>
</glyph>
<glyph name="section" format="2">
  <advance width="438"/>
  <unicode hex="00A7"/>
  <outline>
    <contour>
      <point x="1" y="-90"/>
      <point x="19" y="-6" type="qcurve"/>
      <point x="89" y="-6" type="line"/>
      <point x="78" y="-59"/>
      <point x="100" y="-106"/>
      <point x="141" y="-106" type="qcurve" smooth="yes"/>
      <point x="179" y="-106"/>
      <point x="222" y="-62"/>
      <point x="231" y="-20" type="qcurve" smooth="yes"/>
      <point x="238" y="16"/>
      <point x="228" y="57"/>
      <point x="188" y="85"/>
      <point x="146" y="97" type="qcurve" smooth="yes"/>
      <point x="84" y="115"/>
      <point x="49" y="205"/>
      <point x="65" y="282" type="qcurve" smooth="yes"/>
      <point x="92" y="412"/>
      <point x="189" y="443" type="qcurve"/>
      <point x="152" y="459"/>
      <point x="134" y="528"/>
      <point x="145" y="581" type="qcurve" smooth="yes"/>
      <point x="160" y="653"/>
      <point x="248" y="732"/>
      <point x="318" y="732" type="qcurve" smooth="yes"/>
      <point x="393" y="732"/>
      <point x="440" y="647"/>
      <point x="423" y="567" type="qcurve"/>
      <point x="353" y="567" type="line"/>
      <point x="363" y="617"/>
      <point x="344" y="666"/>
      <point x="305" y="666" type="qcurve" smooth="yes"/>
      <point x="267" y="666"/>
      <point x="229" y="623"/>
      <point x="220" y="581" type="qcurve" smooth="yes"/>
      <point x="210" y="532"/>
      <point x="245" y="485"/>
      <point x="301" y="468" type="qcurve" smooth="yes"/>
      <point x="364" y="451"/>
      <point x="397" y="361"/>
      <point x="381" y="282" type="qcurve" smooth="yes"/>
      <point x="354" y="153"/>
      <point x="260" y="123" type="qcurve"/>
      <point x="298" y="106"/>
      <point x="317" y="35"/>
      <point x="306" y="-18" type="qcurve" smooth="yes"/>
      <point x="291" y="-92"/>
      <point x="199" y="-172"/>
      <point x="126" y="-172" type="qcurve" smooth="yes"/>
      <point x="49" y="-172"/>
    </contour>
    <contour>
      <point x="294" y="223"/>
      <point x="307" y="282" type="qcurve" smooth="yes"/>
      <point x="319" y="342"/>
      <point x="294" y="402"/>
      <point x="249" y="402" type="qcurve" smooth="yes"/>
      <point x="203" y="402"/>
      <point x="151" y="341"/>
      <point x="139" y="282" type="qcurve" smooth="yes"/>
      <point x="127" y="224"/>
      <point x="153" y="163"/>
      <point x="199" y="163" type="qcurve" smooth="yes"/>
      <point x="243" y="163"/>
    </contour>
  </outline>
</glyph>
<glyph name="copyright" format="2">
  <advance width="763"/>
  <unicode hex="00A9"/>
  <outline>
    <contour>
      <point x="92" y="78"/>
      <point x="48" y="240"/>
      <point x="70" y="348" type="qcurve" smooth="yes"/>
      <point x="93" y="458"/>
      <point x="206" y="620"/>
      <point x="373" y="707"/>
      <point x="474" y="707" type="qcurve" smooth="yes"/>
      <point x="577" y="707"/>
      <point x="706" y="618"/>
      <point x="751" y="457"/>
      <point x="728" y="348" type="qcurve" smooth="yes"/>
      <point x="705" y="238"/>
      <point x="594" y="77"/>
      <point x="427" y="-10"/>
      <point x="325" y="-10" type="qcurve" smooth="yes"/>
      <point x="223" y="-10"/>
    </contour>
    <contour>
      <point x="642" y="203"/>
      <point x="672" y="348" type="qcurve" smooth="yes"/>
      <point x="703" y="494"/>
      <point x="595" y="656"/>
      <point x="463" y="656" type="qcurve" smooth="yes"/>
      <point x="331" y="656"/>
      <point x="158" y="494"/>
      <point x="127" y="348" type="qcurve" smooth="yes"/>
      <point x="97" y="202"/>
      <point x="204" y="40"/>
      <point x="335" y="40" type="qcurve" smooth="yes"/>
      <point x="467" y="40"/>
    </contour>
    <contour>
      <point x="268" y="284" type="qcurve" smooth="yes"/>
      <point x="296" y="417" type="line" smooth="yes"/>
      <point x="324" y="551"/>
      <point x="444" y="551" type="qcurve" smooth="yes"/>
      <point x="500" y="551"/>
      <point x="548" y="488"/>
      <point x="535" y="425" type="qcurve" smooth="yes"/>
      <point x="533" y="414" type="line"/>
      <point x="478" y="414" type="line"/>
      <point x="480" y="424" type="line" smooth="yes"/>
      <point x="497" y="503"/>
      <point x="435" y="503" type="qcurve" smooth="yes"/>
      <point x="402" y="503"/>
      <point x="359" y="461"/>
      <point x="348" y="411" type="qcurve" smooth="yes"/>
      <point x="323" y="290" type="line" smooth="yes"/>
      <point x="313" y="240"/>
      <point x="338" y="197"/>
      <point x="371" y="197" type="qcurve" smooth="yes"/>
      <point x="433" y="197"/>
      <point x="449" y="275" type="qcurve" smooth="yes"/>
      <point x="452" y="287" type="line"/>
      <point x="507" y="287" type="line"/>
      <point x="504" y="275" type="line" smooth="yes"/>
      <point x="491" y="212"/>
      <point x="415" y="148"/>
      <point x="360" y="148" type="qcurve" smooth="yes"/>
      <point x="240" y="149"/>
    </contour>
  </outline>
</glyph>
<glyph name="guillemotleft" format="2">
  <advance width="432"/>
  <unicode hex="00AB"/>
  <outline>
    <contour>
      <point x="21" y="270" type="line"/>
      <point x="244" y="458" type="line"/>
      <point x="228" y="380" type="line"/>
      <point x="98" y="270" type="line"/>
      <point x="182" y="161" type="line"/>
      <point x="166" y="83" type="line"/>
    </contour>
    <contour>
      <point x="190" y="270" type="line"/>
      <point x="412" y="458" type="line"/>
      <point x="396" y="380" type="line"/>
      <point x="267" y="270" type="line"/>
      <point x="350" y="161" type="line"/>
      <point x="334" y="83" type="line"/>
    </contour>
  </outline>
</glyph>
<glyph name="logicalnot" format="2">
  <advance width="430"/>
  <unicode hex="00AC"/>
  <outline>
    <contour>
      <point x="319" y="270" type="line"/>
      <point x="44" y="270" type="line"/>
      <point x="57" y="333" type="line"/>
      <point x="402" y="333" type="line"/>
      <point x="366" y="159" type="line"/>
      <point x="296" y="159" type="line"/>
    </contour>
  </outline>
</glyph>
<glyph name="registered" format="2">
  <advance width="483"/>
  <unicode hex="00AE"/>
  <outline>
    <contour>
      <point x="94" y="421"/>
      <point x="112" y="511" type="qcurve" smooth="yes"/>
      <point x="131" y="600"/>
      <point x="252" y="706"/>
      <point x="334" y="706" type="qcurve" smooth="yes"/>
      <point x="418" y="706"/>
      <point x="492" y="600"/>
      <point x="473" y="511" type="qcurve" smooth="yes"/>
      <point x="455" y="421"/>
      <point x="335" y="314"/>
      <point x="252" y="314" type="qcurve" smooth="yes"/>
      <point x="169" y="314"/>
    </contour>
    <contour>
      <point x="421" y="435"/>
      <point x="437" y="511" type="qcurve" smooth="yes"/>
      <point x="453" y="587"/>
      <point x="394" y="673"/>
      <point x="327" y="673" type="qcurve" smooth="yes"/>
      <point x="258" y="673"/>
      <point x="164" y="586"/>
      <point x="148" y="511" type="qcurve" smooth="yes"/>
      <point x="132" y="433"/>
      <point x="190" y="347"/>
      <point x="259" y="347" type="qcurve" smooth="yes"/>
      <point x="327" y="347"/>
    </contour>
    <contour>
      <point x="257" y="621" type="line"/>
      <point x="321" y="621" type="line" smooth="yes"/>
      <point x="384" y="621"/>
      <point x="371" y="557" type="qcurve" smooth="yes"/>
      <point x="362" y="517"/>
      <point x="330" y="501" type="qcurve"/>
      <point x="345" y="403" type="line"/>
      <point x="305" y="403" type="line"/>
      <point x="293" y="493" type="line"/>
      <point x="268" y="493" type="line"/>
      <point x="249" y="403" type="line"/>
      <point x="212" y="403" type="line"/>
    </contour>
    <contour>
      <point x="298" y="526" type="line" smooth="yes"/>
      <point x="314" y="526"/>
      <point x="330" y="541"/>
      <point x="334" y="558" type="qcurve" smooth="yes"/>
      <point x="337" y="574"/>
      <point x="327" y="588"/>
      <point x="311" y="588" type="qcurve" smooth="yes"/>
      <point x="287" y="588" type="line"/>
      <point x="274" y="526" type="line"/>
    </contour>
  </outline>
</glyph>
<glyph name="macron" format="2">
  <advance width="513"/>
  <unicode hex="00AF"/>
  <outline>
    <contour>
      <point x="222" y="668" type="line"/>
      <point x="459" y="668" type="line"/>
      <point x="446" y="605" type="line"/>
      <point x="209" y="605" type="line"/>
    </contour>
  </outline>
</glyph>
<glyph name="degree" format="2">
  <advance width="360"/>
  <unicode hex="00B0"/>
  <outline>
    <contour>
      <point x="109" y="536"/>
      <point x="121" y="590" type="qcurve" smooth="yes"/>
      <point x="132" y="644"/>
      <point x="220" y="717"/>
      <point x="274" y="717" type="qcurve" smooth="yes"/>
      <point x="328" y="717"/>
      <point x="386" y="644"/>
      <point x="375" y="590" type="qcurve" smooth="yes"/>
      <point x="363" y="536"/>
      <point x="275" y="464"/>
      <point x="221" y="464" type="qcurve" smooth="yes"/>
      <point x="167" y="464"/>
    </contour>
    <contour>
      <point x="314" y="557"/>
      <point x="321" y="590" type="qcurve" smooth="yes"/>
      <point x="328" y="623"/>
      <point x="295" y="666"/>
      <point x="263" y="666" type="qcurve" smooth="yes"/>
      <point x="231" y="666"/>
      <point x="183" y="623"/>
      <point x="176" y="590" type="qcurve" smooth="yes"/>
      <point x="169" y="557"/>
      <point x="200" y="515"/>
      <point x="232" y="515" type="qcurve" smooth="yes"/>
      <point x="264" y="515"/>
    </contour>
  </outline>
</glyph>
<glyph name="plusminus" format="2">
  <advance width="430"/>
  <unicode hex="00B1"/>
  <outline>
    <contour>
      <point x="409" y="357" type="line"/>
      <point x="395" y="290" type="line"/>
      <point x="254" y="290" type="line"/>
      <point x="225" y="150" type="line"/>
      <point x="158" y="150" type="line"/>
      <point x="187" y="290" type="line"/>
      <point x="46" y="290" type="line"/>
      <point x="60" y="357" type="line"/>
      <point x="201" y="357" type="line"/>
      <point x="231" y="498" type="line"/>
      <point x="298" y="498" type="line"/>
      <point x="268" y="357" type="line"/>
    </contour>
    <contour>
      <point x="5" y="92" type="line"/>
      <point x="354" y="92" type="line"/>
      <point x="340" y="25" type="line"/>
      <point x="-9" y="25" type="line"/>
    </contour>
  </outline>
</glyph>
<glyph name="mu" format="2">
  <advance width="422"/>
  <unicode hex="00B5"/>
  <outline>
    <contour>
      <point x="115" y="529" type="line"/>
      <point x="184" y="529" type="line"/>
      <point x="105" y="147" type="line" smooth="yes"/>
      <point x="98" y="116"/>
      <point x="101" y="93"/>
      <point x="113" y="77" type="curve" smooth="yes"/>
      <point x="124" y="61"/>
      <point x="142" y="53"/>
      <point x="167" y="53" type="curve" smooth="yes"/>
      <point x="191" y="53"/>
      <point x="212" y="61"/>
      <point x="231" y="78" type="curve" smooth="yes"/>
      <point x="250" y="95"/>
      <point x="262" y="118"/>
      <point x="269" y="147" type="curve" smooth="yes"/>
      <point x="348" y="529" type="line"/>
      <point x="417" y="529" type="line"/>
      <point x="307" y="0" type="line"/>
      <point x="241" y="0" type="line"/>
      <point x="251" y="48" type="line"/>
      <point x="237" y="29"/>
      <point x="220" y="15"/>
      <point x="201" y="6" type="curve" smooth="yes"/>
      <point x="182" y="-3"/>
      <point x="162" y="-8"/>
      <point x="142" y="-8" type="curve" smooth="yes"/>
      <point x="113" y="-8"/>
      <point x="92" y="1"/>
      <point x="79" y="18" type="curve"/>
      <point x="42" y="-158" type="line"/>
      <point x="-28" y="-158" type="line"/>
    </contour>
  </outline>
</glyph>
<glyph name="ordmasculine" format="2">
  <advance width="302"/>
  <unicode hex="00BA"/>
  <outline>
    <contour>
      <point x="103" y="558" type="qcurve" smooth="yes"/>
      <point x="121" y="644" type="line" smooth="yes"/>
      <point x="134" y="709"/>
      <point x="202" y="766"/>
      <point x="256" y="766" type="qcurve" smooth="yes"/>
      <point x="309" y="766"/>
      <point x="352" y="709"/>
      <point x="339" y="644" type="qcurve" smooth="yes"/>
      <point x="321" y="558" type="line" smooth="yes"/>
      <point x="308" y="493"/>
      <point x="240" y="435"/>
      <point x="187" y="435" type="qcurve" smooth="yes"/>
      <point x="77" y="435"/>
    </contour>
    <contour>
      <point x="255" y="557" type="qcurve" smooth="yes"/>
      <point x="273" y="645" type="line" smooth="yes"/>
      <point x="286" y="706"/>
      <point x="244" y="707" type="qcurve" smooth="yes"/>
      <point x="201" y="707"/>
      <point x="188" y="645" type="qcurve" smooth="yes"/>
      <point x="170" y="557" type="line" smooth="yes"/>
      <point x="157" y="496"/>
      <point x="200" y="496" type="qcurve" smooth="yes"/>
      <point x="242" y="496"/>
    </contour>
  </outline>
</glyph>
<glyph name="onehalf" format="2">
  <advance width="659"/>
  <unicode hex="00BD"/>
  <outline>
    <contour>
      <point x="160" y="627" type="line"/>
      <point x="87" y="575" type="line"/>
      <point x="103" y="656" type="line"/>
      <point x="177" y="707" type="line"/>
      <point x="250" y="707" type="line"/>
      <point x="161" y="279" type="line"/>
      <point x="88" y="279" type="line"/>
    </contour>
    <contour>
      <point x="484" y="707" type="line"/>
      <point x="549" y="707" type="line"/>
      <point x="148" y="0" type="line"/>
      <point x="83" y="0" type="line"/>
    </contour>
    <contour>
      <point x="373" y="61" type="line"/>
      <point x="528" y="244" type="line" smooth="yes"/>
      <point x="544" y="263"/>
      <point x="561" y="292"/>
      <point x="564" y="310" type="qcurve" smooth="yes"/>
      <point x="569" y="331" type="line" smooth="yes"/>
      <point x="573" y="350"/>
      <point x="561" y="373"/>
      <point x="543" y="373" type="qcurve" smooth="yes"/>
      <point x="508" y="373"/>
      <point x="498" y="326" type="qcurve" smooth="yes"/>
      <point x="493" y="303" type="line"/>
      <point x="425" y="303" type="line"/>
      <point x="431" y="334" type="line" smooth="yes"/>
      <point x="441" y="380"/>
      <point x="509" y="435"/>
      <point x="557" y="435" type="qcurve" smooth="yes"/>
      <point x="604" y="435"/>
      <point x="650" y="379"/>
      <point x="640" y="333" type="qcurve" smooth="yes"/>
      <point x="635" y="308" type="line" smooth="yes"/>
      <point x="629" y="281"/>
      <point x="604" y="239"/>
      <point x="581" y="212" type="qcurve" smooth="yes"/>
      <point x="455" y="63" type="line"/>
      <point x="584" y="63" type="line"/>
      <point x="571" y="0" type="line"/>
      <point x="360" y="0" type="line"/>
    </contour>
  </outline>
</glyph>
<glyph name="Aring" format="2">
  <advance width="472"/>
  <unicode hex="00C5"/>
  <outline>
    <contour>
      <point x="321" y="180" type="line"/>
      <point x="114" y="180" type="line"/>
      <point x="32" y="0" type="line"/>
      <point x="-46" y="0" type="line"/>
      <point x="294" y="707" type="line"/>
      <point x="270" y="717"/>
      <point x="248" y="762"/>
      <point x="255" y="792" type="qcurve" smooth="yes"/>
      <point x="263" y="831"/>
      <point x="326" y="883"/>
      <point x="365" y="883" type="qcurve" smooth="yes"/>
      <point x="405" y="883"/>
      <point x="446" y="830"/>
      <point x="438" y="792" type="qcurve" smooth="yes"/>
      <point x="431" y="762"/>
      <point x="391" y="717"/>
      <point x="362" y="707" type="qcurve"/>
      <point x="408" y="0" type="line"/>
      <point x="329" y="0" type="line"/>
    </contour>
    <contour>
      <point x="313" y="740"/>
      <point x="335" y="740" type="qcurve" smooth="yes"/>
      <point x="358" y="740"/>
      <point x="391" y="769"/>
      <point x="396" y="792" type="qcurve" smooth="yes"/>
      <point x="400" y="815"/>
      <point x="378" y="844"/>
      <point x="356" y="844" type="qcurve" smooth="yes"/>
      <point x="334" y="844"/>
      <point x="300" y="814"/>
      <point x="296" y="792" type="qcurve" smooth="yes"/>
      <point x="291" y="769"/>
    </contour>
    <contour>
      <point x="319" y="245" type="line"/>
      <point x="305" y="594" type="line"/>
      <point x="144" y="245" type="line"/>
    </contour>
  </outline>
</glyph>
<glyph name="Ccedilla" format="2">
  <advance width="489"/>
  <unicode hex="00C7"/>
  <outline>
    <contour>
      <point x="410" y="501" type="line"/>
      <point x="412" y="508" type="line" smooth="yes"/>
      <point x="427" y="581"/>
      <point x="379" y="648"/>
      <point x="327" y="648" type="qcurve" smooth="yes"/>
      <point x="268" y="648"/>
      <point x="192" y="573"/>
      <point x="176" y="494" type="qcurve" smooth="yes"/>
      <point x="116" y="205" type="line" smooth="yes"/>
      <point x="85" y="60"/>
      <point x="204" y="59" type="qcurve" smooth="yes"/>
      <point x="257" y="59"/>
      <point x="332" y="127"/>
      <point x="347" y="197" type="qcurve" smooth="yes"/>
      <point x="349" y="206" type="line"/>
      <point x="422" y="206" type="line"/>
      <point x="420" y="196" type="line" smooth="yes"/>
      <point x="402" y="110"/>
      <point x="306" y="10"/>
      <point x="240" y="-3" type="qcurve"/>
      <point x="155" y="-156" type="line"/>
      <point x="77" y="-156" type="line"/>
      <point x="170" y="-7" type="line"/>
      <point x="92" y="-1"/>
      <point x="20" y="105"/>
      <point x="41" y="206" type="qcurve" smooth="yes"/>
      <point x="102" y="501" type="line" smooth="yes"/>
      <point x="125" y="609"/>
      <point x="253" y="716"/>
      <point x="340" y="716" type="qcurve" smooth="yes"/>
      <point x="424" y="716"/>
      <point x="508" y="613"/>
      <point x="487" y="510" type="qcurve" smooth="yes"/>
      <point x="485" y="501" type="line"/>
    </contour>
  </outline>
</glyph>
<glyph name="Eth" format="2">
  <advance width="517"/>
  <unicode hex="00D0"/>
  <outline>
    <contour>
      <point x="512" y="493" type="curve" smooth="yes"/>
      <point x="454" y="214" type="line" smooth="yes"/>
      <point x="439" y="143"/>
      <point x="410" y="90"/>
      <point x="368" y="54" type="curve" smooth="yes"/>
      <point x="325" y="18"/>
      <point x="275" y="0"/>
      <point x="218" y="0" type="curve" smooth="yes"/>
      <point x="35" y="0" type="line"/>
      <point x="103" y="326" type="line"/>
      <point x="44" y="326" type="line"/>
      <point x="58" y="392" type="line"/>
      <point x="117" y="392" type="line"/>
      <point x="182" y="707" type="line"/>
      <point x="365" y="707" type="line" smooth="yes"/>
      <point x="422" y="707"/>
      <point x="465" y="689"/>
      <point x="493" y="654" type="curve" smooth="yes"/>
      <point x="520" y="618"/>
      <point x="527" y="564"/>
    </contour>
    <contour>
      <point x="435" y="485" type="line" smooth="yes"/>
      <point x="446" y="537"/>
      <point x="444" y="576"/>
      <point x="430" y="602" type="curve" smooth="yes"/>
      <point x="415" y="627"/>
      <point x="389" y="640"/>
      <point x="351" y="640" type="curve" smooth="yes"/>
      <point x="243" y="640" type="line"/>
      <point x="192" y="392" type="line"/>
      <point x="301" y="392" type="line"/>
      <point x="287" y="326" type="line"/>
      <point x="178" y="326" type="line"/>
      <point x="124" y="67" type="line"/>
      <point x="232" y="67" type="line" smooth="yes"/>
      <point x="269" y="67"/>
      <point x="300" y="79"/>
      <point x="325" y="104" type="curve" smooth="yes"/>
      <point x="350" y="128"/>
      <point x="368" y="164"/>
      <point x="378" y="213" type="curve" smooth="yes"/>
    </contour>
  </outline>
</glyph>
<glyph name="multiply" format="2">
  <advance width="430"/>
  <unicode hex="00D7"/>
  <outline>
    <contour>
      <point x="47" y="176" type="line"/>
      <point x="175" y="283" type="line"/>
      <point x="91" y="389" type="line"/>
      <point x="145" y="433" type="line"/>
      <point x="229" y="328" type="line"/>
      <point x="357" y="433" type="line"/>
      <point x="392" y="389" type="line"/>
      <point x="264" y="283" type="line"/>
      <point x="348" y="176" type="line"/>
      <point x="294" y="132" type="line"/>
      <point x="211" y="239" type="line"/>
      <point x="82" y="132" type="line"/>
    </contour>
  </outline>
</glyph>
<glyph name="Oslash" format="2">
  <advance width="489"/>
  <unicode hex="00D8"/>
  <outline>
    <contour>
      <point x="478" y="641" type="line"/>
      <point x="503" y="588"/>
      <point x="485" y="501" type="qcurve" smooth="yes"/>
      <point x="424" y="206" type="line" smooth="yes"/>
      <point x="402" y="100"/>
      <point x="274" y="-8"/>
      <point x="188" y="-8" type="qcurve" smooth="yes"/>
      <point x="120" y="-8"/>
      <point x="79" y="26" type="qcurve"/>
      <point x="50" y="-20" type="line"/>
      <point x="-5" y="-20" type="line"/>
      <point x="49" y="63" type="line"/>
      <point x="22" y="117"/>
      <point x="41" y="206" type="qcurve" smooth="yes"/>
      <point x="102" y="501" type="line" smooth="yes"/>
      <point x="125" y="610"/>
      <point x="252" y="716"/>
      <point x="339" y="716" type="qcurve" smooth="yes"/>
      <point x="411" y="716"/>
      <point x="451" y="681" type="qcurve"/>
      <point x="480" y="727" type="line"/>
      <point x="534" y="727" type="line"/>
    </contour>
    <contour>
      <point x="109" y="156" type="qcurve"/>
      <point x="404" y="609" type="line"/>
      <point x="383" y="648"/>
      <point x="326" y="648" type="qcurve" smooth="yes"/>
      <point x="267" y="648"/>
      <point x="192" y="572"/>
      <point x="176" y="494" type="qcurve" smooth="yes"/>
      <point x="116" y="205" type="line" smooth="yes"/>
      <point x="109" y="175"/>
    </contour>
    <contour>
      <point x="415" y="544" type="qcurve"/>
      <point x="124" y="94" type="line"/>
      <point x="145" y="59"/>
      <point x="203" y="59" type="qcurve" smooth="yes"/>
      <point x="258" y="59"/>
      <point x="333" y="132"/>
      <point x="349" y="205" type="qcurve" smooth="yes"/>
      <point x="409" y="494" type="line" smooth="yes"/>
      <point x="415" y="525"/>
    </contour>
  </outline>
</glyph>
<glyph name="germandbls" format="2">
  <advance width="422"/>
  <unicode hex="00DF"/>
  <outline>
    <contour>
      <point x="172" y="59" type="line"/>
      <point x="191" y="59" type="line" smooth="yes"/>
      <point x="212" y="59"/>
      <point x="229" y="64"/>
      <point x="241" y="75" type="curve" smooth="yes"/>
      <point x="252" y="85"/>
      <point x="261" y="101"/>
      <point x="268" y="123" type="curve" smooth="yes"/>
      <point x="275" y="144"/>
      <point x="283" y="178"/>
      <point x="293" y="225" type="curve" smooth="yes"/>
      <point x="302" y="266"/>
      <point x="307" y="298"/>
      <point x="309" y="319" type="curve" smooth="yes"/>
      <point x="311" y="340"/>
      <point x="308" y="356"/>
      <point x="301" y="368" type="curve" smooth="yes"/>
      <point x="294" y="379"/>
      <point x="279" y="385"/>
      <point x="258" y="385" type="curve" smooth="yes"/>
      <point x="237" y="385" type="line"/>
      <point x="250" y="447" type="line"/>
      <point x="271" y="447" type="line" smooth="yes"/>
      <point x="296" y="447"/>
      <point x="314" y="456"/>
      <point x="327" y="473" type="curve" smooth="yes"/>
      <point x="339" y="490"/>
      <point x="349" y="517"/>
      <point x="356" y="553" type="curve" smooth="yes"/>
      <point x="363" y="588"/>
      <point x="362" y="613"/>
      <point x="352" y="629" type="curve" smooth="yes"/>
      <point x="341" y="644"/>
      <point x="323" y="652"/>
      <point x="296" y="652" type="curve" smooth="yes"/>
      <point x="240" y="652"/>
      <point x="205" y="621"/>
      <point x="192" y="558" type="curve" smooth="yes"/>
      <point x="76" y="0" type="line"/>
      <point x="5" y="0" type="line"/>
      <point x="116" y="535" type="line" smooth="yes"/>
      <point x="129" y="594"/>
      <point x="150" y="639"/>
      <point x="181" y="670" type="curve" smooth="yes"/>
      <point x="212" y="701"/>
      <point x="255" y="716"/>
      <point x="310" y="716" type="curve" smooth="yes"/>
      <point x="356" y="716"/>
      <point x="390" y="702"/>
      <point x="411" y="674" type="curve" smooth="yes"/>
      <point x="432" y="646"/>
      <point x="438" y="607"/>
      <point x="428" y="558" type="curve" smooth="yes"/>
      <point x="420" y="519"/>
      <point x="410" y="490"/>
      <point x="397" y="471" type="curve" smooth="yes"/>
      <point x="384" y="452"/>
      <point x="364" y="436"/>
      <point x="338" y="423" type="curve"/>
      <point x="356" y="413"/>
      <point x="368" y="400"/>
      <point x="374" y="385" type="curve" smooth="yes"/>
      <point x="379" y="370"/>
      <point x="381" y="350"/>
      <point x="380" y="327" type="curve" smooth="yes"/>
      <point x="379" y="303"/>
      <point x="373" y="269"/>
      <point x="364" y="225" type="curve" smooth="yes"/>
      <point x="351" y="166"/>
      <point x="339" y="121"/>
      <point x="327" y="90" type="curve" smooth="yes"/>
      <point x="315" y="59"/>
      <point x="298" y="35"/>
      <point x="277" y="20" type="curve" smooth="yes"/>
      <point x="255" y="4"/>
      <point x="225" y="-4"/>
      <point x="187" y="-4" type="curve" smooth="yes"/>
      <point x="159" y="-4" type="line"/>
    </contour>
  </outline>
</glyph>
<glyph name="ae" format="2">
  <advance width="648"/>
  <unicode hex="00E6"/>
  <outline>
    <contour>
      <point x="346" y="245" type="line"/>
      <point x="333" y="181" type="line" smooth="yes"/>
      <point x="323" y="134"/>
      <point x="324" y="101"/>
      <point x="336" y="82" type="curve" smooth="yes"/>
      <point x="348" y="62"/>
      <point x="369" y="52"/>
      <point x="398" y="52" type="curve" smooth="yes"/>
      <point x="425" y="52"/>
      <point x="448" y="61"/>
      <point x="467" y="78" type="curve" smooth="yes"/>
      <point x="485" y="95"/>
      <point x="498" y="122"/>
      <point x="505" y="158" type="curve" smooth="yes"/>
      <point x="506" y="162" type="line"/>
      <point x="575" y="162" type="line"/>
      <point x="574" y="159" type="line"/>
      <point x="563" y="104"/>
      <point x="541" y="62"/>
      <point x="508" y="34" type="curve" smooth="yes"/>
      <point x="475" y="6"/>
      <point x="434" y="-8"/>
      <point x="385" y="-8" type="curve" smooth="yes"/>
      <point x="326" y="-8"/>
      <point x="287" y="12"/>
      <point x="268" y="51" type="curve"/>
      <point x="251" y="32"/>
      <point x="230" y="17"/>
      <point x="206" y="7" type="curve" smooth="yes"/>
      <point x="182" y="-3"/>
      <point x="156" y="-8"/>
      <point x="129" y="-8" type="curve" smooth="yes"/>
      <point x="82" y="-8"/>
      <point x="49" y="6"/>
      <point x="30" y="33" type="curve" smooth="yes"/>
      <point x="11" y="60"/>
      <point x="6" y="98"/>
      <point x="17" y="147" type="curve" smooth="yes"/>
      <point x="26" y="194"/>
      <point x="47" y="231"/>
      <point x="80" y="258" type="curve" smooth="yes"/>
      <point x="113" y="285"/>
      <point x="155" y="298"/>
      <point x="206" y="298" type="curve" smooth="yes"/>
      <point x="288" y="298" type="line"/>
      <point x="306" y="387" type="line" smooth="yes"/>
      <point x="313" y="419"/>
      <point x="310" y="443"/>
      <point x="297" y="457" type="curve" smooth="yes"/>
      <point x="286" y="470"/>
      <point x="268" y="476"/>
      <point x="243" y="476" type="curve" smooth="yes"/>
      <point x="218" y="476"/>
      <point x="197" y="469"/>
      <point x="180" y="456" type="curve" smooth="yes"/>
      <point x="163" y="442"/>
      <point x="153" y="423"/>
      <point x="148" y="398" type="curve" smooth="yes"/>
      <point x="146" y="390" type="line"/>
      <point x="80" y="390" type="line"/>
      <point x="82" y="399" type="line" smooth="yes"/>
      <point x="91" y="442"/>
      <point x="111" y="476"/>
      <point x="143" y="501" type="curve" smooth="yes"/>
      <point x="174" y="526"/>
      <point x="212" y="538"/>
      <point x="256" y="538" type="curve" smooth="yes"/>
      <point x="311" y="538"/>
      <point x="348" y="521"/>
      <point x="365" y="487" type="curve"/>
      <point x="400" y="520"/>
      <point x="443" y="537"/>
      <point x="495" y="538" type="curve" smooth="yes"/>
      <point x="544" y="538"/>
      <point x="580" y="522"/>
      <point x="602" y="491" type="curve" smooth="yes"/>
      <point x="623" y="459"/>
      <point x="628" y="412"/>
      <point x="615" y="351" type="curve" smooth="yes"/>
      <point x="593" y="245" type="line"/>
    </contour>
    <contour>
      <point x="277" y="246" type="line"/>
      <point x="202" y="246" type="line" smooth="yes"/>
      <point x="139" y="246"/>
      <point x="100" y="213"/>
      <point x="87" y="148" type="curve" smooth="yes"/>
      <point x="79" y="111"/>
      <point x="83" y="85"/>
      <point x="98" y="69" type="curve" smooth="yes"/>
      <point x="109" y="58"/>
      <point x="126" y="52"/>
      <point x="149" y="52" type="curve" smooth="yes"/>
      <point x="177" y="52"/>
      <point x="201" y="61"/>
      <point x="220" y="79" type="curve" smooth="yes"/>
      <point x="239" y="96"/>
      <point x="251" y="121"/>
      <point x="258" y="153" type="curve" smooth="yes"/>
    </contour>
    <contour>
      <point x="368" y="349" type="curve" smooth="yes"/>
      <point x="357" y="298" type="line"/>
      <point x="534" y="298" type="line"/>
      <point x="545" y="351" type="line" smooth="yes"/>
      <point x="554" y="396"/>
      <point x="554" y="428"/>
      <point x="543" y="447" type="curve" smooth="yes"/>
      <point x="532" y="466"/>
      <point x="512" y="475"/>
      <point x="483" y="475" type="curve" smooth="yes"/>
      <point x="454" y="475"/>
      <point x="430" y="466"/>
      <point x="411" y="447" type="curve" smooth="yes"/>
      <point x="392" y="428"/>
      <point x="377" y="395"/>
    </contour>
  </outline>
</glyph>
<glyph name="ccedilla" format="2">
  <advance width="418"/>
  <unicode hex="00E7"/>
  <outline>
    <contour>
      <point x="317" y="354" type="line"/>
      <point x="320" y="369" type="line" smooth="yes"/>
      <point x="329" y="411"/>
      <point x="325" y="441"/>
      <point x="308" y="458" type="curve" smooth="yes"/>
      <point x="297" y="469"/>
      <point x="279" y="475"/>
      <point x="256" y="475" type="curve" smooth="yes"/>
      <point x="226" y="475"/>
      <point x="201" y="466"/>
      <point x="182" y="447" type="curve" smooth="yes"/>
      <point x="163" y="428"/>
      <point x="148" y="395"/>
      <point x="139" y="349" type="curve" smooth="yes"/>
      <point x="103" y="180" type="line" smooth="yes"/>
      <point x="94" y="134"/>
      <point x="95" y="102"/>
      <point x="106" y="83" type="curve" smooth="yes"/>
      <point x="117" y="64"/>
      <point x="138" y="54"/>
      <point x="167" y="54" type="curve" smooth="yes"/>
      <point x="225" y="54"/>
      <point x="261" y="90"/>
      <point x="276" y="161" type="curve" smooth="yes"/>
      <point x="279" y="175" type="line"/>
      <point x="349" y="175" type="line"/>
      <point x="347" y="162" type="line" smooth="yes"/>
      <point x="338" y="117"/>
      <point x="321" y="81"/>
      <point x="298" y="54" type="curve" smooth="yes"/>
      <point x="275" y="27"/>
      <point x="246" y="8"/>
      <point x="211" y="-1" type="curve"/>
      <point x="125" y="-156" type="line"/>
      <point x="47" y="-156" type="line"/>
      <point x="140" y="-8" type="line"/>
      <point x="100" y="-5"/>
      <point x="71" y="7"/>
      <point x="52" y="28" type="curve" smooth="yes"/>
      <point x="25" y="58"/>
      <point x="18" y="106"/>
      <point x="32" y="172" type="curve" smooth="yes"/>
      <point x="70" y="357" type="line" smooth="yes"/>
      <point x="83" y="419"/>
      <point x="107" y="465"/>
      <point x="141" y="494" type="curve" smooth="yes"/>
      <point x="175" y="523"/>
      <point x="217" y="538"/>
      <point x="268" y="538" type="curve" smooth="yes"/>
      <point x="318" y="538"/>
      <point x="354" y="524"/>
      <point x="375" y="496" type="curve" smooth="yes"/>
      <point x="396" y="468"/>
      <point x="401" y="426"/>
      <point x="390" y="369" type="curve" smooth="yes"/>
      <point x="387" y="354" type="line"/>
    </contour>
  </outline>
</glyph>
<glyph name="divide" format="2">
  <advance width="430"/>
  <unicode hex="00F7"/>
  <outline>
    <contour>
      <point x="195" y="401"/>
      <point x="200" y="422" type="qcurve" smooth="yes"/>
      <point x="204" y="442"/>
      <point x="239" y="470"/>
      <point x="259" y="470" type="qcurve" smooth="yes"/>
      <point x="279" y="470"/>
      <point x="301" y="442"/>
      <point x="297" y="422" type="qcurve" smooth="yes"/>
      <point x="293" y="402"/>
      <point x="260" y="373"/>
      <point x="239" y="373" type="qcurve" smooth="yes"/>
      <point x="219" y="373"/>
    </contour>
    <contour>
      <point x="52" y="316" type="line"/>
      <point x="401" y="316" type="line"/>
      <point x="387" y="249" type="line"/>
      <point x="38" y="249" type="line"/>
    </contour>
    <contour>
      <point x="138" y="127"/>
      <point x="143" y="147" type="qcurve" smooth="yes"/>
      <point x="147" y="167"/>
      <point x="182" y="196"/>
      <point x="202" y="196" type="qcurve" smooth="yes"/>
      <point x="222" y="196"/>
      <point x="244" y="168"/>
      <point x="240" y="147" type="qcurve" smooth="yes"/>
      <point x="235" y="127"/>
      <point x="202" y="98"/>
      <point x="181" y="98" type="qcurve" smooth="yes"/>
      <point x="161" y="98"/>
    </contour>
  </outline>
</glyph>
<glyph name="thorn" format="2">
  <advance width="421"/>
  <unicode hex="00FE"/>
  <outline>
    <contour>
      <point x="152" y="707" type="line"/>
      <point x="222" y="707" type="line"/>
      <point x="174" y="478" type="line"/>
      <point x="222" y="537"/>
      <point x="287" y="538" type="qcurve" smooth="yes"/>
      <point x="350" y="538"/>
      <point x="409" y="449"/>
      <point x="390" y="357" type="qcurve" smooth="yes"/>
      <point x="352" y="172" type="line" smooth="yes"/>
      <point x="333" y="81"/>
      <point x="237" y="-8"/>
      <point x="174" y="-8" type="qcurve" smooth="yes"/>
      <point x="107" y="-8"/>
      <point x="85" y="48" type="qcurve"/>
      <point x="43" y="-156" type="line"/>
      <point x="-27" y="-156" type="line"/>
    </contour>
    <contour>
      <point x="270" y="113"/>
      <point x="283" y="180" type="qcurve" smooth="yes"/>
      <point x="319" y="349" type="line" smooth="yes"/>
      <point x="345" y="475"/>
      <point x="262" y="475" type="qcurve" smooth="yes"/>
      <point x="219" y="475"/>
      <point x="160" y="411"/>
      <point x="147" y="348" type="qcurve" smooth="yes"/>
      <point x="112" y="179" type="line" smooth="yes"/>
      <point x="100" y="118"/>
      <point x="131" y="54"/>
      <point x="174" y="54" type="qcurve" smooth="yes"/>
      <point x="215" y="54"/>
    </contour>
  </outline>
</glyph>
<glyph name="Iogonek" format="2">
  <advance width="208"/>
  <unicode hex="012E"/>
  <outline>
    <component base="I" xOffset="0.0" yOffset="0"/>
    <contour>
      <point x="34.50229806851576" y="12" type="line"/>
      <point x="87.50229806851576" y="12" type="line"/>
      <point x="85.00735777870266" y="0" type="line"/>
      <point x="8.948479711272611" y="-58" type="line"/>
      <point x="17.750687440828628" y="-83"/>
      <point x="41.46365884183328" y="-94"/>
      <point x="65.25574715101551" y="-95" type="curve"/>
      <point x="52.36522232031443" y="-157" type="line"/>
      <point x="16.573134011132197" y="-156"/>
      <point x="-9.892367244965897" y="-139"/>
      <point x="-24.031281447979836" y="-106" type="curve" smooth="yes"/>
      <point x="-32.49678270407793" y="-89"/>
      <point x="-34.92272550608722" y="-67"/>
      <point x="-35.30910985400772" y="-40" type="curve"/>
    </contour>
  </outline>
</glyph>
<glyph name="iogonek" format="2">
  <advance width="203"/>
  <unicode hex="012F"/>
  <outline>
    <component base="i" xOffset="0.0" yOffset="0"/>
    <contour>
      <point x="33.50229806851576" y="12" type="line"/>
      <point x="83.50229806851576" y="12" type="line"/>
      <point x="81.00735777870266" y="0" type="line"/>
      <point x="4.948479711272611" y="-58" type="line"/>
      <point x="13.750687440828628" y="-83"/>
      <point x="37.46365884183328" y="-94"/>
      <point x="61.25574715101551" y="-95" type="curve"/>
      <point x="48.36522232031443" y="-157" type="line"/>
      <point x="12.573134011132197" y="-156"/>
      <point x="-13.892367244965897" y="-139"/>
      <point x="-28.031281447979836" y="-106" type="curve" smooth="yes"/>
      <point x="-36.49678270407793" y="-89"/>
      <point x="-38.92272550608722" y="-67"/>
      <point x="-39.30910985400772" y="-40" type="curve"/>
    </contour>
  </outline>
</glyph>
<glyph name="dotlessi" format="2">
  <advance width="202"/>
  <unicode hex="0131"/>
  <outline>
    <contour>
      <point x="122" y="529" type="line"/>
      <point x="191" y="529" type="line"/>
      <point x="81" y="0" type="line"/>
      <point x="12" y="0" type="line"/>
    </contour>
  </outline>
</glyph>
<glyph name="IJ" format="2">
  <advance width="491"/>
  <unicode hex="0132"/>
  <outline>
    <contour>
      <point x="188" y="59"/>
      <point x="259" y="59" type="qcurve" smooth="yes"/>
      <point x="311" y="59"/>
      <point x="346" y="92" type="qcurve" smooth="yes"/>
      <point x="382" y="126"/>
      <point x="394" y="184" type="qcurve" smooth="yes"/>
      <point x="505" y="707" type="line"/>
      <point x="580" y="707" type="line"/>
      <point x="468" y="180" type="line" smooth="yes"/>
      <point x="450" y="95"/>
      <point x="388" y="44" type="qcurve" smooth="yes"/>
      <point x="326" y="-8"/>
      <point x="244" y="-8" type="qcurve" smooth="yes"/>
      <point x="191" y="-8"/>
      <point x="154" y="16" type="qcurve" smooth="yes"/>
      <point x="102" y="47"/>
      <point x="94" y="119" type="qcurve"/>
      <point x="173" y="119" type="line"/>
    </contour>
    <contour>
      <point x="211" y="707" type="line"/>
      <point x="286" y="707" type="line"/>
      <point x="182" y="217" type="line"/>
      <point x="107" y="217" type="line"/>
    </contour>
  </outline>
</glyph>
<glyph name="ij" format="2">
  <advance width="379"/>
  <unicode hex="0133"/>
  <outline>
    <contour>
      <point x="187" y="706" type="line"/>
      <point x="257" y="706" type="line"/>
      <point x="237" y="613" type="line"/>
      <point x="167" y="613" type="line"/>
    </contour>
    <contour>
      <point x="423" y="706" type="line"/>
      <point x="493" y="706" type="line"/>
      <point x="473" y="613" type="line"/>
      <point x="403" y="613" type="line"/>
    </contour>
    <contour>
      <point x="31" y="-32" type="line"/>
      <point x="20" y="-94"/>
      <point x="51" y="-130" type="qcurve" smooth="yes"/>
      <point x="81" y="-166"/>
      <point x="152" y="-166" type="qcurve" smooth="yes"/>
      <point x="232" y="-166"/>
      <point x="279" y="-117" type="qcurve" smooth="yes"/>
      <point x="328" y="-67"/>
      <point x="345" y="16" type="qcurve" smooth="yes"/>
      <point x="455" y="529" type="line"/>
      <point x="386" y="529" type="line"/>
      <point x="320" y="220" type="line" smooth="yes"/>
      <point x="293" y="95"/>
      <point x="205" y="95" type="qcurve" smooth="yes"/>
      <point x="164" y="95"/>
      <point x="149" y="124" type="qcurve" smooth="yes"/>
      <point x="134" y="152"/>
      <point x="149" y="220" type="qcurve" smooth="yes"/>
      <point x="215" y="529" type="line"/>
      <point x="145" y="529" type="line"/>
      <point x="77" y="212" type="line" smooth="yes"/>
      <point x="58" y="122"/>
      <point x="88" y="78" type="qcurve" smooth="yes"/>
      <point x="115" y="33"/>
      <point x="178" y="33" type="qcurve" smooth="yes"/>
      <point x="246" y="33"/>
      <point x="292" y="88" type="qcurve"/>
      <point x="275" y="10" type="line" smooth="yes"/>
      <point x="263" y="-47"/>
      <point x="237" y="-76" type="qcurve" smooth="yes"/>
      <point x="210" y="-105"/>
      <point x="165" y="-105" type="qcurve" smooth="yes"/>
      <point x="129" y="-105"/>
      <point x="111" y="-85" type="qcurve" smooth="yes"/>
      <point x="92" y="-65"/>
      <point x="98" y="-32" type="qcurve"/>
    </contour>
  </outline>
</glyph>
<glyph name="Lslash" format="2">
  <advance width="400"/>
  <unicode hex="0141"/>
  <outline>
    <component base="L" xOffset="0.0" yOffset="0"/>
    <contour>
      <point x="39.77644956491842" y="350" type="line"/>
      <point x="52.835327632348466" y="408" type="line"/>
      <point x="253.3891459895916" y="478" type="line"/>
      <point x="241.33026792216157" y="420" type="line"/>
    </contour>
  </outline>
</glyph>
<glyph name="lslash" format="2">
  <advance width="239"/>
  <unicode hex="0142"/>
  <outline>
    <component base="l" xOffset="0.0" yOffset="0"/>
    <contour>
      <point x="226.51794077223178" y="469" type="line"/>
      <point x="214.45906270480174" y="411" type="line"/>
      <point x="45.19227294655394" y="352" type="line"/>
      <point x="57.251151013983986" y="410" type="line"/>
    </contour>
  </outline>
</glyph>
<glyph name="eng" format="2">
  <advance width="425"/>
  <unicode hex="014B"/>
  <outline>
    <contour>
      <point x="115" y="529" type="line"/>
      <point x="183" y="529" type="line"/>
      <point x="173" y="481" type="line"/>
      <point x="187" y="498"/>
      <point x="203" y="512"/>
      <point x="225" y="523" type="curve" smooth="yes"/>
      <point x="246" y="533"/>
      <point x="267" y="538"/>
      <point x="289" y="538" type="curve" smooth="yes"/>
      <point x="331" y="538"/>
      <point x="361" y="524"/>
      <point x="379" y="497" type="curve" smooth="yes"/>
      <point x="397" y="470"/>
      <point x="401" y="432"/>
      <point x="391" y="383" type="curve" smooth="yes"/>
      <point x="304" y="-33" type="line" smooth="yes"/>
      <point x="295" y="-78"/>
      <point x="276" y="-113"/>
      <point x="246" y="-137" type="curve" smooth="yes"/>
      <point x="217" y="-161"/>
      <point x="179" y="-173"/>
      <point x="133" y="-173" type="curve" smooth="yes"/>
      <point x="116" y="-173" type="line"/>
      <point x="129" y="-111" type="line"/>
      <point x="144" y="-111" type="line" smooth="yes"/>
      <point x="193" y="-111"/>
      <point x="224" y="-84"/>
      <point x="235" y="-30" type="curve" smooth="yes"/>
      <point x="320" y="380" type="line" smooth="yes"/>
      <point x="326" y="411"/>
      <point x="324" y="434"/>
      <point x="313" y="451" type="curve" smooth="yes"/>
      <point x="301" y="467"/>
      <point x="282" y="475"/>
      <point x="257" y="475" type="curve" smooth="yes"/>
      <point x="232" y="475"/>
      <point x="210" y="467"/>
      <point x="192" y="450" type="curve" smooth="yes"/>
      <point x="173" y="433"/>
      <point x="160" y="410"/>
      <point x="154" y="380" type="curve" smooth="yes"/>
      <point x="75" y="0" type="line"/>
      <point x="5" y="0" type="line"/>
    </contour>
  </outline>
</glyph>
<glyph name="OE" format="2">
  <advance width="699"/>
  <unicode hex="0152"/>
  <outline>
    <contour>
      <point x="513" y="640" type="line"/>
      <point x="476" y="461" type="line" smooth="yes"/>
      <point x="474" y="448"/>
      <point x="468" y="419" type="qcurve" smooth="yes"/>
      <point x="463" y="393" type="line"/>
      <point x="656" y="393" type="line"/>
      <point x="642" y="326" type="line"/>
      <point x="449" y="326" type="line"/>
      <point x="443" y="296" type="line" smooth="yes"/>
      <point x="437" y="267"/>
      <point x="433" y="253" type="qcurve" smooth="yes"/>
      <point x="394" y="67" type="line"/>
      <point x="622" y="67" type="line"/>
      <point x="608" y="0" type="line"/>
      <point x="314" y="0" type="line"/>
      <point x="323" y="43" type="line"/>
      <point x="265" y="-8"/>
      <point x="182" y="-8" type="qcurve" smooth="yes"/>
      <point x="96" y="-8"/>
      <point x="18" y="98"/>
      <point x="41" y="206" type="qcurve" smooth="yes"/>
      <point x="102" y="502" type="line" smooth="yes"/>
      <point x="125" y="611"/>
      <point x="247" y="717"/>
      <point x="333" y="717" type="qcurve" smooth="yes"/>
      <point x="415" y="717"/>
      <point x="453" y="668" type="qcurve"/>
      <point x="461" y="707" type="line"/>
      <point x="755" y="707" type="line"/>
      <point x="741" y="640" type="line"/>
    </contour>
    <contour>
      <point x="409" y="495" type="line" smooth="yes"/>
      <point x="425" y="573"/>
      <point x="382" y="649"/>
      <point x="326" y="649" type="qcurve" smooth="yes"/>
      <point x="267" y="649"/>
      <point x="192" y="573"/>
      <point x="176" y="495" type="qcurve" smooth="yes"/>
      <point x="116" y="205" type="line" smooth="yes"/>
      <point x="85" y="60"/>
      <point x="203" y="59" type="qcurve" smooth="yes"/>
      <point x="258" y="59"/>
      <point x="333" y="132"/>
      <point x="349" y="205" type="qcurve" smooth="yes"/>
    </contour>
  </outline>
</glyph>
<glyph name="oe" format="2">
  <advance width="665"/>
  <unicode hex="0153"/>
  <outline>
    <contour>
      <point x="364" y="245" type="line"/>
      <point x="351" y="181" type="line" smooth="yes"/>
      <point x="336" y="111"/>
      <point x="372" y="52"/>
      <point x="416" y="52" type="qcurve" smooth="yes"/>
      <point x="457" y="52"/>
      <point x="512" y="104"/>
      <point x="523" y="158" type="qcurve" smooth="yes"/>
      <point x="524" y="162" type="line"/>
      <point x="592" y="162" type="line"/>
      <point x="591" y="159" type="line" smooth="yes"/>
      <point x="574" y="76"/>
      <point x="474" y="-8"/>
      <point x="401" y="-8" type="qcurve" smooth="yes"/>
      <point x="317" y="-8"/>
      <point x="288" y="45" type="qcurve"/>
      <point x="237" y="-8"/>
      <point x="154" y="-8" type="qcurve" smooth="yes"/>
      <point x="78" y="-8"/>
      <point x="12" y="79"/>
      <point x="32" y="172" type="qcurve" smooth="yes"/>
      <point x="70" y="357" type="line" smooth="yes"/>
      <point x="90" y="450"/>
      <point x="192" y="538"/>
      <point x="268" y="538" type="qcurve" smooth="yes"/>
      <point x="353" y="538"/>
      <point x="379" y="483" type="qcurve"/>
      <point x="432" y="537"/>
      <point x="513" y="538" type="qcurve" smooth="yes"/>
      <point x="587" y="538"/>
      <point x="651" y="443"/>
      <point x="632" y="351" type="qcurve" smooth="yes"/>
      <point x="610" y="245" type="line"/>
    </contour>
    <contour>
      <point x="267" y="113"/>
      <point x="280" y="180" type="qcurve" smooth="yes"/>
      <point x="316" y="349" type="line" smooth="yes"/>
      <point x="330" y="417"/>
      <point x="297" y="475"/>
      <point x="254" y="475" type="qcurve" smooth="yes"/>
      <point x="211" y="475"/>
      <point x="153" y="418"/>
      <point x="139" y="349" type="qcurve" smooth="yes"/>
      <point x="103" y="180" type="line" smooth="yes"/>
      <point x="89" y="111"/>
      <point x="123" y="54"/>
      <point x="166" y="54" type="qcurve" smooth="yes"/>
      <point x="209" y="54"/>
    </contour>
    <contour>
      <point x="400" y="418"/>
      <point x="386" y="349" type="qcurve" smooth="yes"/>
      <point x="375" y="298" type="line"/>
      <point x="552" y="298" type="line"/>
      <point x="563" y="351" type="line" smooth="yes"/>
      <point x="577" y="418"/>
      <point x="544" y="475"/>
      <point x="501" y="475" type="qcurve" smooth="yes"/>
      <point x="458" y="475"/>
    </contour>
  </outline>
</glyph>
<glyph name="florin" format="2">
  <advance width="392"/>
  <unicode hex="0192"/>
  <outline>
    <contour>
      <point x="-63" y="-89" type="line"/>
      <point x="-42" y="-89" type="line" smooth="yes"/>
      <point x="-23" y="-89"/>
      <point x="-7" y="-86"/>
      <point x="4" y="-81" type="curve" smooth="yes"/>
      <point x="15" y="-76"/>
      <point x="26" y="-67"/>
      <point x="35" y="-54" type="curve" smooth="yes"/>
      <point x="44" y="-41"/>
      <point x="53" y="-21"/>
      <point x="62" y="5" type="curve" smooth="yes"/>
      <point x="184" y="356" type="line"/>
      <point x="109" y="356" type="line"/>
      <point x="123" y="422" type="line"/>
      <point x="207" y="422" type="line"/>
      <point x="250" y="549" type="line" smooth="yes"/>
      <point x="269" y="604"/>
      <point x="294" y="645"/>
      <point x="324" y="670" type="curve" smooth="yes"/>
      <point x="353" y="695"/>
      <point x="393" y="707"/>
      <point x="443" y="707" type="curve" smooth="yes"/>
      <point x="474" y="707" type="line"/>
      <point x="460" y="640" type="line"/>
      <point x="429" y="640" type="line" smooth="yes"/>
      <point x="410" y="640"/>
      <point x="394" y="638"/>
      <point x="383" y="633" type="curve" smooth="yes"/>
      <point x="372" y="628"/>
      <point x="362" y="619"/>
      <point x="353" y="606" type="curve" smooth="yes"/>
      <point x="344" y="593"/>
      <point x="334" y="573"/>
      <point x="325" y="548" type="curve" smooth="yes"/>
      <point x="282" y="422" type="line"/>
      <point x="370" y="422" type="line"/>
      <point x="356" y="356" type="line"/>
      <point x="259" y="356" type="line"/>
      <point x="135" y="3" type="line" smooth="yes"/>
      <point x="116" y="-53"/>
      <point x="91" y="-93"/>
      <point x="62" y="-118" type="curve" smooth="yes"/>
      <point x="32" y="-143"/>
      <point x="-8" y="-156"/>
      <point x="-57" y="-156" type="curve" smooth="yes"/>
      <point x="-77" y="-156" type="line"/>
    </contour>
  </outline>
</glyph>
<glyph name="dotlessj" format="2">
  <advance width="199"/>
  <unicode hex="0237"/>
  <anchor x="207" y="529" name="top"/>
  <outline>
    <contour>
      <point x="-100" y="-93" type="line"/>
      <point x="-84" y="-93" type="line" smooth="yes"/>
      <point x="-62" y="-93"/>
      <point x="-44" y="-88"/>
      <point x="-30" y="-77" type="curve" smooth="yes"/>
      <point x="-13" y="-63"/>
      <point x="-2" y="-42"/>
      <point x="5" y="-12" type="curve" smooth="yes"/>
      <point x="117" y="529" type="line"/>
      <point x="188" y="529" type="line"/>
      <point x="75" y="-15" type="line" smooth="yes"/>
      <point x="65" y="-61"/>
      <point x="46" y="-96"/>
      <point x="17" y="-120" type="curve" smooth="yes"/>
      <point x="-13" y="-144"/>
      <point x="-50" y="-156"/>
      <point x="-95" y="-156" type="curve" smooth="yes"/>
      <point x="-113" y="-156" type="line"/>
    </contour>
  </outline>
</glyph>
<glyph name="dotaccent" format="2">
  <advance width="513"/>
  <unicode hex="02D9"/>
  <outline>
    <contour>
      <point x="312" y="701" type="line"/>
      <point x="383" y="701" type="line"/>
      <point x="364" y="609" type="line"/>
      <point x="293" y="609" type="line"/>
    </contour>
  </outline>
</glyph>
<glyph name="ogonek" format="2">
  <advance width="391"/>
  <unicode hex="02DB"/>
  <outline>
    <contour>
      <point x="183.50229806851576" y="12" type="line"/>
      <point x="213.50229806851576" y="12" type="line"/>
      <point x="211.00735777870267" y="0" type="line"/>
      <point x="134.94847971127263" y="-58" type="line"/>
      <point x="143.75068744082864" y="-83"/>
      <point x="167.46365884183328" y="-94"/>
      <point x="191.2557471510155" y="-95" type="curve"/>
      <point x="178.36522232031444" y="-157" type="line"/>
      <point x="142.5731340111322" y="-156"/>
      <point x="116.1076327550341" y="-139"/>
      <point x="101.96871855202016" y="-106" type="curve" smooth="yes"/>
      <point x="93.50321729592207" y="-89"/>
      <point x="91.07727449391278" y="-67"/>
      <point x="90.69089014599228" y="-40" type="curve"/>
    </contour>
  </outline>
</glyph>
<glyph name="tilde" format="2">
  <advance width="513"/>
  <unicode hex="02DC"/>
  <outline>
    <contour>
      <point x="227" y="656" type="line"/>
      <point x="242" y="669"/>
      <point x="254" y="678"/>
      <point x="265" y="683" type="curve" smooth="yes"/>
      <point x="275" y="688"/>
      <point x="286" y="691"/>
      <point x="299" y="691" type="curve" smooth="yes"/>
      <point x="309" y="691"/>
      <point x="317" y="690"/>
      <point x="324" y="687" type="curve" smooth="yes"/>
      <point x="331" y="684"/>
      <point x="338" y="679"/>
      <point x="346" y="673" type="curve" smooth="yes"/>
      <point x="354" y="667"/>
      <point x="361" y="662"/>
      <point x="368" y="659" type="curve" smooth="yes"/>
      <point x="375" y="656"/>
      <point x="382" y="654"/>
      <point x="391" y="654" type="curve" smooth="yes"/>
      <point x="401" y="654"/>
      <point x="410" y="657"/>
      <point x="419" y="662" type="curve" smooth="yes"/>
      <point x="427" y="667"/>
      <point x="439" y="677"/>
      <point x="456" y="692" type="curve"/>
      <point x="441" y="621" type="line"/>
      <point x="428" y="608"/>
      <point x="416" y="599"/>
      <point x="406" y="594" type="curve" smooth="yes"/>
      <point x="396" y="589"/>
      <point x="384" y="586"/>
      <point x="371" y="586" type="curve" smooth="yes"/>
      <point x="360" y="586"/>
      <point x="351" y="588"/>
      <point x="344" y="591" type="curve" smooth="yes"/>
      <point x="337" y="594"/>
      <point x="328" y="599"/>
      <point x="319" y="605" type="curve" smooth="yes"/>
      <point x="310" y="610"/>
      <point x="304" y="615"/>
      <point x="299" y="618" type="curve" smooth="yes"/>
      <point x="294" y="621"/>
      <point x="288" y="622"/>
      <point x="281" y="622" type="curve" smooth="yes"/>
      <point x="270" y="622"/>
      <point x="260" y="619"/>
      <point x="251" y="614" type="curve" smooth="yes"/>
      <point x="241" y="608"/>
      <point x="228" y="598"/>
      <point x="212" y="583" type="curve"/>
    </contour>
  </outline>
</glyph>
<glyph name="acutecomb" format="2">
  <unicode hex="0301"/>
  <anchor x="110" y="529" name="_top"/>
  <outline>
    <contour>
      <point x="123" y="722" type="line"/>
      <point x="198" y="722" type="line"/>
      <point x="60" y="590" type="line"/>
      <point x="2" y="590" type="line"/>
    </contour>
  </outline>
</glyph>
<glyph name="dieresiscmb" format="2">
  <unicode hex="0308"/>
  <outline>
    <contour>
      <point x="-30" y="681" type="line"/>
      <point x="47" y="681" type="line"/>
      <point x="28" y="593" type="line"/>
      <point x="-49" y="593" type="line"/>
    </contour>
    <contour>
      <point x="126" y="681" type="line"/>
      <point x="203" y="681" type="line"/>
      <point x="184" y="593" type="line"/>
      <point x="107" y="593" type="line"/>
    </contour>
  </outline>
</glyph>
<glyph name="ringcmb" format="2">
  <unicode hex="030A"/>
  <outline>
    <contour>
      <point x="-17" y="622"/>
      <point x="-9" y="660" type="qcurve" smooth="yes"/>
      <point x="-1" y="699"/>
      <point x="61" y="752"/>
      <point x="100" y="752" type="qcurve" smooth="yes"/>
      <point x="140" y="752"/>
      <point x="181" y="699"/>
      <point x="173" y="660" type="qcurve" smooth="yes"/>
      <point x="165" y="621"/>
      <point x="102" y="569"/>
      <point x="62" y="569" type="qcurve" smooth="yes"/>
      <point x="23" y="569"/>
    </contour>
    <contour>
      <point x="127" y="638"/>
      <point x="131" y="660" type="qcurve" smooth="yes"/>
      <point x="136" y="683"/>
      <point x="115" y="713"/>
      <point x="92" y="713" type="qcurve" smooth="yes"/>
      <point x="70" y="713"/>
      <point x="37" y="683"/>
      <point x="32" y="660" type="qcurve" smooth="yes"/>
      <point x="27" y="637"/>
      <point x="49" y="609"/>
      <point x="71" y="609" type="qcurve" smooth="yes"/>
      <point x="94" y="609"/>
    </contour>
  </outline>
</glyph>
<glyph name="commaturnedabovecmb" format="2">
  <unicode hex="0312"/>
  <outline>
    <contour>
      <point x="77" y="590" type="line"/>
      <point x="2" y="590" type="line"/>
      <point x="140" y="722" type="line"/>
      <point x="198" y="722" type="line"/>
    </contour>
  </outline>
</glyph>
<glyph name="dotbelowcomb" format="2">
  <unicode hex="0323"/>
  <outline>
    <contour>
      <point x="-104" y="-86" type="line"/>
      <point x="-34" y="-86" type="line"/>
      <point x="-52" y="-178" type="line"/>
      <point x="-124" y="-178" type="line"/>
    </contour>
  </outline>
</glyph>
<glyph name="cedillacmb" format="2">
  <unicode hex="0327"/>
  <outline>
    <contour>
      <point x="169" y="12" type="line"/>
      <point x="236" y="12" type="line"/>
      <point x="141" y="-156" type="line"/>
      <point x="63" y="-156" type="line"/>
    </contour>
  </outline>
</glyph>
<glyph name="Eukrcyr" format="2">
  <advance width="489"/>
  <unicode hex="0404"/>
  <guideline x="245" y="0" angle="90" name="h1"/>
  <anchor x="245" y="760" name="top"/>
  <outline>
    <contour>
      <point x="155" y="393" type="line"/>
      <point x="362" y="393" type="line"/>
      <point x="348" y="327" type="line"/>
      <point x="141" y="327" type="line"/>
      <point x="116" y="205" type="line" smooth="yes"/>
      <point x="95" y="108"/>
      <point x="125" y="59"/>
      <point x="204" y="59" type="curve" smooth="yes"/>
      <point x="278" y="59"/>
      <point x="328" y="108"/>
      <point x="347" y="197" type="curve" smooth="yes"/>
      <point x="349" y="206" type="line"/>
      <point x="422" y="206" type="line"/>
      <point x="420" y="196" type="line" smooth="yes"/>
      <point x="393" y="68"/>
      <point x="308" y="-8"/>
      <point x="190" y="-8" type="curve" smooth="yes"/>
      <point x="68" y="-8"/>
      <point x="13" y="72"/>
      <point x="41" y="206" type="curve" smooth="yes"/>
      <point x="102" y="501" type="line" smooth="yes"/>
      <point x="131" y="638"/>
      <point x="217" y="716"/>
      <point x="340" y="716" type="curve" smooth="yes"/>
      <point x="459" y="716"/>
      <point x="514" y="639"/>
      <point x="487" y="510" type="curve" smooth="yes"/>
      <point x="485" y="501" type="line"/>
      <point x="410" y="501" type="line"/>
      <point x="412" y="508" type="line" smooth="yes"/>
      <point x="431" y="599"/>
      <point x="401" y="648"/>
      <point x="327" y="648" type="curve" smooth="yes"/>
      <point x="247" y="648"/>
      <point x="197" y="598"/>
      <point x="176" y="494" type="curve" smooth="yes"/>
    </contour>
  </outline>
</glyph>
<glyph name="Gecyr" format="2">
  <advance width="406"/>
  <unicode hex="0413"/>
  <guideline x="231" y="0" angle="90" name="h1"/>
  <anchor x="231" y="760" name="top"/>
  <outline>
    <contour>
      <point x="153" y="707" type="line"/>
      <point x="468" y="707" type="line"/>
      <point x="454" y="640" type="line"/>
      <point x="214" y="640" type="line"/>
      <point x="81" y="0" type="line"/>
      <point x="6" y="0" type="line"/>
    </contour>
  </outline>
</glyph>
<glyph name="Decyr" format="2">
  <advance width="574"/>
  <unicode hex="0414"/>
  <outline>
    <contour>
      <point x="369" y="0" type="line"/>
      <point x="488" y="0" type="line"/>
      <point x="488" y="-170" type="line"/>
      <point x="563" y="-170" type="line"/>
      <point x="563" y="67" type="line"/>
      <point x="369" y="67" type="line"/>
    </contour>
    <contour>
      <point x="103" y="0" type="line"/>
      <point x="192" y="118"/>
      <point x="228" y="277"/>
      <point x="238" y="420" type="curve" smooth="yes"/>
      <point x="258" y="707" type="line"/>
      <point x="183" y="707" type="line"/>
      <point x="163" y="455" type="line" smooth="yes"/>
      <point x="153" y="324"/>
      <point x="132" y="188"/>
      <point x="66" y="67" type="curve"/>
    </contour>
    <contour>
      <point x="429" y="0" type="line"/>
      <point x="504" y="0" type="line"/>
      <point x="504" y="707" type="line"/>
      <point x="429" y="707" type="line"/>
    </contour>
    <contour>
      <point x="219" y="640" type="line"/>
      <point x="449" y="640" type="line"/>
      <point x="449" y="707" type="line"/>
      <point x="219" y="707" type="line"/>
    </contour>
    <contour>
      <point x="199" y="0" type="line"/>
      <point x="389" y="0" type="line"/>
      <point x="389" y="67" type="line"/>
      <point x="199" y="67" type="line"/>
    </contour>
    <contour>
      <point x="10" y="-170" type="line"/>
      <point x="85" y="-170" type="line"/>
      <point x="85" y="0" type="line"/>
      <point x="219" y="0" type="line"/>
      <point x="219" y="67" type="line"/>
      <point x="10" y="67" type="line"/>
    </contour>
  </outline>
</glyph>
<glyph name="Ucyr" format="2">
  <advance width="401"/>
  <unicode hex="0423"/>
  <guideline x="200" y="0" angle="90" name="h1"/>
  <anchor x="200" y="760" name="top"/>
  <outline>
    <contour>
      <point x="78" y="0" type="line"/>
      <point x="85" y="0" type="line" smooth="yes"/>
      <point x="145" y="0"/>
      <point x="200" y="44"/>
      <point x="220" y="114" type="curve" smooth="yes"/>
      <point x="392" y="707" type="line"/>
      <point x="310" y="707" type="line"/>
      <point x="188" y="249" type="line"/>
      <point x="195" y="263" type="line"/>
      <point x="149" y="129" type="line" smooth="yes"/>
      <point x="137" y="93"/>
      <point x="111" y="72"/>
      <point x="86" y="72" type="curve" smooth="yes"/>
      <point x="78" y="72" type="line"/>
    </contour>
    <contour>
      <point x="171" y="120" type="line"/>
      <point x="215" y="219" type="line"/>
      <point x="91" y="707" type="line"/>
      <point x="9" y="707" type="line"/>
    </contour>
  </outline>
</glyph>
<glyph name="Tsecyr" format="2">
  <advance width="480"/>
  <unicode hex="0426"/>
  <outline>
    <contour>
      <point x="153" y="707" type="line"/>
      <point x="228" y="707" type="line"/>
      <point x="95" y="67" type="line"/>
      <point x="294" y="67" type="line"/>
      <point x="427" y="707" type="line"/>
      <point x="502" y="707" type="line"/>
      <point x="369" y="67" type="line"/>
      <point x="429" y="67" type="line"/>
      <point x="380" y="-170" type="line"/>
      <point x="305" y="-170" type="line"/>
      <point x="340" y="0" type="line"/>
      <point x="6" y="0" type="line"/>
    </contour>
  </outline>
</glyph>
<glyph name="Checyr" format="2">
  <advance width="492"/>
  <unicode hex="0427"/>
  <outline>
    <contour>
      <point x="153" y="707" type="line"/>
      <point x="229" y="707" type="line"/>
      <point x="168" y="414" type="line" smooth="yes"/>
      <point x="152" y="336"/>
      <point x="183" y="289"/>
      <point x="251" y="289" type="curve" smooth="yes"/>
      <point x="307" y="289"/>
      <point x="328" y="290"/>
      <point x="364" y="308" type="curve"/>
      <point x="447" y="707" type="line"/>
      <point x="523" y="707" type="line"/>
      <point x="376" y="0" type="line"/>
      <point x="300" y="0" type="line"/>
      <point x="350" y="240" type="line"/>
      <point x="318" y="228"/>
      <point x="282" y="222"/>
      <point x="237" y="222" type="curve" smooth="yes"/>
      <point x="129" y="222"/>
      <point x="68" y="300"/>
      <point x="91" y="410" type="curve" smooth="yes"/>
    </contour>
  </outline>
</glyph>
<glyph name="Shacyr" format="2">
  <advance width="816"/>
  <unicode hex="0428"/>
  <guideline x="61" y="0" angle="90"/>
  <guideline x="137" y="0" angle="90"/>
  <guideline x="370" y="0" angle="90"/>
  <guideline x="446" y="0" angle="90"/>
  <guideline x="678" y="0" angle="90"/>
  <guideline x="754" y="0" angle="90"/>
  <guideline x="0" y="707" angle="0"/>
  <anchor x="677" y="695" name="top"/>
  <outline>
    <contour>
      <point x="61" y="0" type="line"/>
      <point x="137" y="0" type="line"/>
      <point x="137" y="707" type="line"/>
      <point x="61" y="707" type="line"/>
    </contour>
    <contour>
      <point x="370" y="0" type="line"/>
      <point x="446" y="0" type="line"/>
      <point x="446" y="707" type="line"/>
      <point x="370" y="707" type="line"/>
    </contour>
    <contour>
      <point x="678" y="0" type="line"/>
      <point x="754" y="0" type="line"/>
      <point x="754" y="707" type="line"/>
      <point x="678" y="707" type="line"/>
    </contour>
    <contour>
      <point x="106" y="0" type="line"/>
      <point x="735" y="0" type="line"/>
      <point x="735" y="67" type="line"/>
      <point x="106" y="67" type="line"/>
    </contour>
  </outline>
</glyph>
<glyph name="Shchacyr" format="2">
  <advance width="821"/>
  <unicode hex="0429"/>
  <outline>
    <contour>
      <point x="61" y="0" type="line"/>
      <point x="137" y="0" type="line"/>
      <point x="137" y="707" type="line"/>
      <point x="61" y="707" type="line"/>
    </contour>
    <contour>
      <point x="370" y="0" type="line"/>
      <point x="446" y="0" type="line"/>
      <point x="446" y="707" type="line"/>
      <point x="370" y="707" type="line"/>
    </contour>
    <contour>
      <point x="678" y="0" type="line"/>
      <point x="754" y="0" type="line"/>
      <point x="754" y="707" type="line"/>
      <point x="678" y="707" type="line"/>
    </contour>
    <contour>
      <point x="106" y="0" type="line"/>
      <point x="735" y="0" type="line"/>
      <point x="735" y="67" type="line"/>
      <point x="106" y="67" type="line"/>
    </contour>
    <contour>
      <point x="616" y="0" type="line"/>
      <point x="735" y="0" type="line"/>
      <point x="735" y="-170" type="line"/>
      <point x="810" y="-170" type="line"/>
      <point x="810" y="67" type="line"/>
      <point x="616" y="67" type="line"/>
    </contour>
  </outline>
</glyph>
<glyph name="Hardcyr" format="2">
  <advance width="589"/>
  <unicode hex="042A"/>
  <outline>
    <contour>
      <point x="92" y="707" type="line"/>
      <point x="338" y="707" type="line"/>
      <point x="276" y="408" type="line"/>
      <point x="385" y="408" type="line" smooth="yes"/>
      <point x="506" y="408"/>
      <point x="552" y="341"/>
      <point x="524" y="206" type="curve" smooth="yes"/>
      <point x="495" y="67"/>
      <point x="422" y="0"/>
      <point x="300" y="0" type="curve" smooth="yes"/>
      <point x="116" y="0" type="line"/>
      <point x="249" y="640" type="line"/>
      <point x="78" y="640" type="line"/>
    </contour>
    <contour>
      <point x="367" y="341" type="curve" smooth="yes"/>
      <point x="262" y="341" type="line"/>
      <point x="205" y="67" type="line"/>
      <point x="310" y="67" type="line" smooth="yes"/>
      <point x="387" y="67"/>
      <point x="430" y="109"/>
      <point x="450" y="206" type="curve" smooth="yes"/>
      <point x="469" y="299"/>
      <point x="443" y="341"/>
    </contour>
  </outline>
</glyph>
<glyph name="Yucyr" format="2">
  <advance width="689"/>
  <unicode hex="042E"/>
  <guideline x="397" y="0" angle="90" name="h1"/>
  <anchor x="397" y="760" name="top"/>
  <outline>
    <component base="O" xOffset="200"/>
    <contour>
      <point x="153" y="707" type="line"/>
      <point x="228" y="707" type="line"/>
      <point x="163" y="393" type="line"/>
      <point x="320" y="393" type="line"/>
      <point x="306" y="327" type="line"/>
      <point x="149" y="327" type="line"/>
      <point x="81" y="0" type="line"/>
      <point x="6" y="0" type="line"/>
    </contour>
  </outline>
</glyph>
<glyph name="becyr" format="2">
  <advance width="418"/>
  <unicode hex="0431"/>
  <outline>
    <contour>
      <point x="211" y="-8" type="curve" smooth="yes"/>
      <point x="314" y="-8"/>
      <point x="368" y="54"/>
      <point x="368" y="172" type="curve" smooth="yes"/>
      <point x="368" y="305" type="line" smooth="yes"/>
      <point x="368" y="424"/>
      <point x="314" y="486"/>
      <point x="223" y="486" type="curve" smooth="yes"/>
      <point x="172" y="486"/>
      <point x="141" y="462"/>
      <point x="120" y="430" type="curve"/>
      <point x="51" y="430" type="line"/>
      <point x="51" y="172" type="line" smooth="yes"/>
      <point x="51" y="54"/>
      <point x="106" y="-8"/>
    </contour>
    <contour>
      <point x="210" y="54" type="curve" smooth="yes"/>
      <point x="149" y="54"/>
      <point x="121" y="93"/>
      <point x="121" y="180" type="curve" smooth="yes"/>
      <point x="121" y="297" type="line" smooth="yes"/>
      <point x="121" y="384"/>
      <point x="149" y="423"/>
      <point x="210" y="423" type="curve" smooth="yes"/>
      <point x="270" y="423"/>
      <point x="298" y="383"/>
      <point x="298" y="297" type="curve" smooth="yes"/>
      <point x="298" y="180" type="line" smooth="yes"/>
      <point x="298" y="96"/>
      <point x="269" y="54"/>
    </contour>
    <contour>
      <point x="51" y="398" type="line"/>
      <point x="118" y="398" type="line"/>
      <point x="118" y="430" type="line" smooth="yes"/>
      <point x="118" y="617"/>
      <point x="203" y="566"/>
      <point x="311" y="633" type="curve"/>
      <point x="311" y="707" type="line"/>
      <point x="166" y="626"/>
      <point x="51" y="680"/>
      <point x="51" y="412" type="curve" smooth="yes"/>
    </contour>
  </outline>
</glyph>
<glyph name="vecyr" format="2">
  <advance width="423"/>
  <unicode hex="0432"/>
  <outline>
    <contour>
      <point x="115" y="529" type="line"/>
      <point x="274" y="529" type="line" smooth="yes"/>
      <point x="349" y="529"/>
      <point x="388" y="478"/>
      <point x="372" y="400" type="curve" smooth="yes"/>
      <point x="361" y="346"/>
      <point x="338" y="314"/>
      <point x="300" y="291" type="curve"/>
      <point x="343" y="269"/>
      <point x="356" y="224"/>
      <point x="340" y="149" type="curve" smooth="yes"/>
      <point x="320" y="55"/>
      <point x="250" y="0"/>
      <point x="148" y="0" type="curve" smooth="yes"/>
      <point x="5" y="0" type="line"/>
    </contour>
    <contour>
      <point x="240" y="466" type="curve" smooth="yes"/>
      <point x="171" y="466" type="line"/>
      <point x="138" y="308" type="line"/>
      <point x="207" y="308" type="line" smooth="yes"/>
      <point x="249" y="308"/>
      <point x="292" y="345"/>
      <point x="301" y="389" type="curve" smooth="yes"/>
      <point x="311" y="438"/>
      <point x="289" y="466"/>
    </contour>
    <contour>
      <point x="216" y="255" type="curve" smooth="yes"/>
      <point x="127" y="255" type="line"/>
      <point x="87" y="63" type="line"/>
      <point x="176" y="63" type="line" smooth="yes"/>
      <point x="222" y="63"/>
      <point x="262" y="104"/>
      <point x="274" y="163" type="curve" smooth="yes"/>
      <point x="285" y="218"/>
      <point x="262" y="255"/>
    </contour>
  </outline>
</glyph>
<glyph name="gecyr" format="2">
  <advance width="350"/>
  <unicode hex="0433"/>
  <guideline x="234" y="0" angle="90" name="h1"/>
  <anchor x="234" y="590" name="top"/>
  <outline>
    <contour>
      <point x="115" y="529" type="line"/>
      <point x="385" y="529" type="line"/>
      <point x="372" y="466" type="line"/>
      <point x="172" y="466" type="line"/>
      <point x="75" y="0" type="line"/>
      <point x="5" y="0" type="line"/>
    </contour>
  </outline>
</glyph>
<glyph name="decyr" format="2">
  <advance width="473"/>
  <unicode hex="0434"/>
  <guideline x="140" y="529" angle="265.217"/>
  <guideline x="189" y="258" angle="85.7792"/>
  <outline>
    <contour>
      <point x="384" y="-170" type="line"/>
      <point x="453" y="-170" type="line"/>
      <point x="453" y="63" type="line"/>
      <point x="363" y="63" type="line"/>
      <point x="363" y="0" type="line"/>
      <point x="384" y="0" type="line"/>
    </contour>
    <contour>
      <point x="20" y="-170" type="line"/>
      <point x="89" y="-170" type="line"/>
      <point x="89" y="63" type="line"/>
      <point x="20" y="63" type="line"/>
    </contour>
    <contour>
      <point x="325" y="0" type="line"/>
      <point x="394" y="0" type="line"/>
      <point x="394" y="529" type="line"/>
      <point x="325" y="529" type="line"/>
    </contour>
    <contour>
      <point x="60" y="63" type="curve"/>
      <point x="89" y="0" type="line"/>
      <point x="162" y="0"/>
      <point x="182" y="167"/>
      <point x="189" y="258" type="curve" smooth="yes"/>
      <point x="209" y="529" type="line"/>
      <point x="140" y="529" type="line"/>
      <point x="120" y="290" type="line" smooth="yes"/>
      <point x="108" y="152"/>
      <point x="95" y="63"/>
    </contour>
    <contour>
      <point x="69" y="0" type="line"/>
      <point x="345" y="0" type="line"/>
      <point x="345" y="63" type="line"/>
      <point x="69" y="63" type="line"/>
    </contour>
    <contour>
      <point x="178" y="466" type="line"/>
      <point x="345" y="466" type="line"/>
      <point x="345" y="529" type="line"/>
      <point x="178" y="529" type="line"/>
    </contour>
  </outline>
</glyph>
<glyph name="zecyr" format="2">
  <advance width="438"/>
  <unicode hex="0437"/>
  <outline>
    <contour>
      <point x="165" y="308" type="line"/>
      <point x="238" y="308" type="line" smooth="yes"/>
      <point x="282" y="308"/>
      <point x="306" y="347"/>
      <point x="306" y="389" type="curve" smooth="yes"/>
      <point x="306" y="403" type="line" smooth="yes"/>
      <point x="306" y="447"/>
      <point x="271" y="475"/>
      <point x="216" y="475" type="curve" smooth="yes"/>
      <point x="161" y="475"/>
      <point x="120" y="446"/>
      <point x="120" y="408" type="curve" smooth="yes"/>
      <point x="120" y="397" type="line"/>
      <point x="51" y="397" type="line"/>
      <point x="51" y="407" type="line" smooth="yes"/>
      <point x="51" y="485"/>
      <point x="118" y="538"/>
      <point x="215" y="538" type="curve" smooth="yes"/>
      <point x="310" y="538"/>
      <point x="375" y="484"/>
      <point x="375" y="407" type="curve" smooth="yes"/>
      <point x="375" y="392" type="line" smooth="yes"/>
      <point x="375" y="349"/>
      <point x="355" y="308"/>
      <point x="323" y="288" type="curve"/>
      <point x="363" y="267"/>
      <point x="385" y="231"/>
      <point x="385" y="163" type="curve" smooth="yes"/>
      <point x="385" y="149" type="line" smooth="yes"/>
      <point x="385" y="55"/>
      <point x="316" y="-8"/>
      <point x="214" y="-8" type="curve" smooth="yes"/>
      <point x="116" y="-8"/>
      <point x="51" y="43"/>
      <point x="51" y="118" type="curve" smooth="yes"/>
      <point x="51" y="133" type="line"/>
      <point x="120" y="133" type="line"/>
      <point x="120" y="119" type="line" smooth="yes"/>
      <point x="120" y="81"/>
      <point x="159" y="54"/>
      <point x="213" y="54" type="curve" smooth="yes"/>
      <point x="278" y="54"/>
      <point x="316" y="94"/>
      <point x="316" y="152" type="curve" smooth="yes"/>
      <point x="316" y="163" type="line" smooth="yes"/>
      <point x="316" y="215"/>
      <point x="283" y="255"/>
      <point x="234" y="255" type="curve" smooth="yes"/>
      <point x="165" y="255" type="line"/>
    </contour>
  </outline>
</glyph>
<glyph name="icyr" format="2">
  <advance width="438"/>
  <unicode hex="0438"/>
  <guideline x="214" y="0" angle="90" name="h1"/>
  <anchor x="214" y="590" name="top"/>
  <outline>
    <contour>
      <point x="115" y="529" type="line"/>
      <point x="184" y="529" type="line"/>
      <point x="101" y="130" type="line"/>
      <point x="354" y="529" type="line"/>
      <point x="433" y="529" type="line"/>
      <point x="323" y="0" type="line"/>
      <point x="254" y="0" type="line"/>
      <point x="337" y="399" type="line"/>
      <point x="84" y="0" type="line"/>
      <point x="5" y="0" type="line"/>
    </contour>
  </outline>
</glyph>
<glyph name="emcyr" format="2">
  <advance width="582"/>
  <unicode hex="043C"/>
  <outline>
    <contour>
      <point x="60" y="0" type="line"/>
      <point x="129" y="0" type="line"/>
      <point x="129" y="339" type="line" smooth="yes"/>
      <point x="129" y="379"/>
      <point x="125" y="489"/>
      <point x="119" y="529" type="curve"/>
      <point x="60" y="529" type="line"/>
    </contour>
    <contour>
      <point x="295" y="180" type="line"/>
      <point x="289" y="180" type="line"/>
      <point x="284" y="199"/>
      <point x="273" y="234"/>
      <point x="266" y="250" type="curve" smooth="yes"/>
      <point x="139" y="529" type="line"/>
      <point x="115" y="529" type="line"/>
      <point x="115" y="409" type="line"/>
      <point x="129" y="409" type="line"/>
      <point x="133" y="392"/>
      <point x="142" y="361"/>
      <point x="152" y="339" type="curve" smooth="yes"/>
      <point x="279" y="60" type="line"/>
      <point x="295" y="60" type="line"/>
    </contour>
    <contour>
      <point x="287" y="60" type="line"/>
      <point x="303" y="60" type="line"/>
      <point x="430" y="339" type="line" smooth="yes"/>
      <point x="440" y="361"/>
      <point x="449" y="392"/>
      <point x="453" y="409" type="curve"/>
      <point x="467" y="409" type="line"/>
      <point x="467" y="529" type="line"/>
      <point x="443" y="529" type="line"/>
      <point x="316" y="250" type="line" smooth="yes"/>
      <point x="309" y="234"/>
      <point x="298" y="199"/>
      <point x="293" y="180" type="curve"/>
      <point x="287" y="180" type="line"/>
    </contour>
    <contour>
      <point x="453" y="0" type="line"/>
      <point x="522" y="0" type="line"/>
      <point x="522" y="529" type="line"/>
      <point x="463" y="529" type="line"/>
      <point x="458" y="488"/>
      <point x="453" y="379"/>
      <point x="453" y="339" type="curve" smooth="yes"/>
    </contour>
  </outline>
</glyph>
<glyph name="pecyr" format="2">
  <advance width="418"/>
  <unicode hex="043F"/>
  <outline>
    <contour>
      <point x="115" y="529" type="line"/>
      <point x="413" y="529" type="line"/>
      <point x="303" y="0" type="line"/>
      <point x="234" y="0" type="line"/>
      <point x="331" y="466" type="line"/>
      <point x="171" y="466" type="line"/>
      <point x="74" y="0" type="line"/>
      <point x="5" y="0" type="line"/>
    </contour>
  </outline>
</glyph>
<glyph name="tecyr" format="2">
  <advance width="390"/>
  <unicode hex="0442"/>
  <guideline x="195" y="0" angle="90" name="h1"/>
  <anchor x="195" y="590" name="top"/>
  <outline>
    <contour>
      <point x="62" y="466" type="line"/>
      <point x="412" y="466" type="line"/>
      <point x="425" y="529" type="line"/>
      <point x="75" y="529" type="line"/>
    </contour>
    <contour>
      <point x="105" y="0" type="line"/>
      <point x="175" y="0" type="line"/>
      <point x="285" y="529" type="line"/>
      <point x="215" y="529" type="line"/>
    </contour>
  </outline>
</glyph>
<glyph name="checyr" format="2">
  <advance width="426"/>
  <unicode hex="0447"/>
  <outline>
    <contour>
      <point x="201" y="195" type="curve" smooth="yes"/>
      <point x="254" y="195"/>
      <point x="287" y="203"/>
      <point x="326" y="222" type="curve"/>
      <point x="326" y="276" type="line"/>
      <point x="296" y="276" type="line"/>
      <point x="281" y="264"/>
      <point x="248" y="257"/>
      <point x="214" y="257" type="curve" smooth="yes"/>
      <point x="145" y="257"/>
      <point x="130" y="307"/>
      <point x="130" y="390" type="curve" smooth="yes"/>
      <point x="130" y="529" type="line"/>
      <point x="60" y="529" type="line"/>
      <point x="60" y="366" type="line" smooth="yes"/>
      <point x="60" y="262"/>
      <point x="105" y="195"/>
    </contour>
    <contour>
      <point x="296" y="0" type="line"/>
      <point x="366" y="0" type="line"/>
      <point x="366" y="529" type="line"/>
      <point x="296" y="529" type="line"/>
    </contour>
  </outline>
</glyph>
<glyph name="shacyr" format="2">
  <advance width="581"/>
  <unicode hex="0448"/>
  <outline>
    <contour>
      <point x="115" y="529" type="line"/>
      <point x="184" y="529" type="line"/>
      <point x="87" y="63" type="line"/>
      <point x="214" y="63" type="line"/>
      <point x="311" y="529" type="line"/>
      <point x="380" y="529" type="line"/>
      <point x="283" y="63" type="line"/>
      <point x="410" y="63" type="line"/>
      <point x="507" y="529" type="line"/>
      <point x="576" y="529" type="line"/>
      <point x="466" y="0" type="line"/>
      <point x="5" y="0" type="line"/>
    </contour>
  </outline>
</glyph>
<glyph name="hardcyr" format="2">
  <advance width="494"/>
  <unicode hex="044A"/>
  <outline>
    <contour>
      <point x="140" y="0" type="line"/>
      <point x="209" y="0" type="line"/>
      <point x="209" y="529" type="line"/>
      <point x="140" y="529" type="line"/>
    </contour>
    <contour>
      <point x="180" y="466" type="line"/>
      <point x="180" y="529" type="line"/>
      <point x="0" y="529" type="line"/>
      <point x="0" y="466" type="line"/>
    </contour>
    <contour>
      <point x="189" y="0" type="line"/>
      <point x="283" y="0" type="line" smooth="yes"/>
      <point x="385" y="0"/>
      <point x="444" y="56"/>
      <point x="444" y="163" type="curve" smooth="yes"/>
      <point x="444" y="267"/>
      <point x="399" y="313"/>
      <point x="298" y="313" type="curve" smooth="yes"/>
      <point x="189" y="313" type="line"/>
      <point x="189" y="250" type="line"/>
      <point x="298" y="250" type="line" smooth="yes"/>
      <point x="344" y="250"/>
      <point x="375" y="214"/>
      <point x="375" y="160" type="curve" smooth="yes"/>
      <point x="375" y="103"/>
      <point x="344" y="63"/>
      <point x="298" y="63" type="curve" smooth="yes"/>
      <point x="189" y="63" type="line"/>
    </contour>
  </outline>
</glyph>
<glyph name="ereversedcyr" format="2">
  <advance width="417"/>
  <unicode hex="044D"/>
  <guideline x="210" y="0" angle="90" name="h1"/>
  <anchor x="210" y="590" name="top"/>
  <outline>
    <contour>
      <point x="199" y="313" type="line"/>
      <point x="307" y="313" type="line"/>
      <point x="315" y="349" type="line" smooth="yes"/>
      <point x="324" y="395"/>
      <point x="323" y="428"/>
      <point x="312" y="447" type="curve" smooth="yes"/>
      <point x="301" y="466"/>
      <point x="280" y="475"/>
      <point x="250" y="475" type="curve" smooth="yes"/>
      <point x="193" y="475"/>
      <point x="156" y="440"/>
      <point x="142" y="369" type="curve" smooth="yes"/>
      <point x="139" y="354" type="line"/>
      <point x="69" y="354" type="line"/>
      <point x="72" y="369" type="line" smooth="yes"/>
      <point x="84" y="426"/>
      <point x="106" y="468"/>
      <point x="139" y="496" type="curve" smooth="yes"/>
      <point x="172" y="524"/>
      <point x="214" y="538"/>
      <point x="264" y="538" type="curve" smooth="yes"/>
      <point x="315" y="538"/>
      <point x="351" y="523"/>
      <point x="373" y="494" type="curve" smooth="yes"/>
      <point x="395" y="465"/>
      <point x="399" y="419"/>
      <point x="386" y="357" type="curve" smooth="yes"/>
      <point x="348" y="172" type="line" smooth="yes"/>
      <point x="335" y="110"/>
      <point x="312" y="65"/>
      <point x="277" y="36" type="curve" smooth="yes"/>
      <point x="243" y="7"/>
      <point x="200" y="-8"/>
      <point x="149" y="-8" type="curve" smooth="yes"/>
      <point x="100" y="-8"/>
      <point x="64" y="6"/>
      <point x="43" y="35" type="curve" smooth="yes"/>
      <point x="22" y="63"/>
      <point x="17" y="105"/>
      <point x="29" y="162" type="curve" smooth="yes"/>
      <point x="31" y="175" type="line"/>
      <point x="101" y="175" type="line"/>
      <point x="98" y="161" type="line" smooth="yes"/>
      <point x="84" y="90"/>
      <point x="105" y="54"/>
      <point x="163" y="54" type="curve" smooth="yes"/>
      <point x="192" y="54"/>
      <point x="217" y="64"/>
      <point x="236" y="83" type="curve" smooth="yes"/>
      <point x="255" y="102"/>
      <point x="270" y="134"/>
      <point x="279" y="180" type="curve" smooth="yes"/>
      <point x="294" y="250" type="line"/>
      <point x="186" y="250" type="line"/>
    </contour>
  </outline>
</glyph>
<glyph name="ljecyr" format="2">
  <advance width="614"/>
  <unicode hex="0459"/>
  <outline>
    <contour>
      <point x="146" y="529" type="line"/>
      <point x="400" y="529" type="line"/>
      <point x="355" y="313" type="line"/>
      <point x="428" y="313" type="line" smooth="yes"/>
      <point x="529" y="313"/>
      <point x="565" y="267"/>
      <point x="543" y="163" type="curve" smooth="yes"/>
      <point x="521" y="56"/>
      <point x="450" y="0"/>
      <point x="348" y="0" type="curve" smooth="yes"/>
      <point x="221" y="0" type="line"/>
      <point x="318" y="466" type="line"/>
      <point x="197" y="466" type="line"/>
      <point x="94" y="99" type="line" smooth="yes"/>
      <point x="74" y="31"/>
      <point x="31" y="0"/>
      <point x="-44" y="0" type="curve"/>
      <point x="-31" y="63" type="line"/>
      <point x="4" y="63"/>
      <point x="17" y="87"/>
      <point x="28" y="123" type="curve" smooth="yes"/>
    </contour>
    <contour>
      <point x="415" y="250" type="curve" smooth="yes"/>
      <point x="342" y="250" type="line"/>
      <point x="303" y="63" type="line"/>
      <point x="376" y="63" type="line" smooth="yes"/>
      <point x="422" y="63"/>
      <point x="461" y="103"/>
      <point x="473" y="160" type="curve" smooth="yes"/>
      <point x="485" y="214"/>
      <point x="461" y="250"/>
    </contour>
  </outline>
</glyph>
<glyph name="njecyr" format="2">
  <advance width="644"/>
  <unicode hex="045A"/>
  <outline>
    <contour>
      <point x="115" y="529" type="line"/>
      <point x="184" y="529" type="line"/>
      <point x="139" y="313" type="line"/>
      <point x="305" y="313" type="line"/>
      <point x="350" y="529" type="line"/>
      <point x="419" y="529" type="line"/>
      <point x="374" y="313" type="line"/>
      <point x="458" y="313" type="line" smooth="yes"/>
      <point x="559" y="313"/>
      <point x="595" y="267"/>
      <point x="573" y="163" type="curve" smooth="yes"/>
      <point x="551" y="56"/>
      <point x="480" y="0"/>
      <point x="378" y="0" type="curve" smooth="yes"/>
      <point x="240" y="0" type="line"/>
      <point x="292" y="250" type="line"/>
      <point x="126" y="250" type="line"/>
      <point x="74" y="0" type="line"/>
      <point x="5" y="0" type="line"/>
    </contour>
    <contour>
      <point x="445" y="250" type="curve" smooth="yes"/>
      <point x="361" y="250" type="line"/>
      <point x="322" y="63" type="line"/>
      <point x="406" y="63" type="line" smooth="yes"/>
      <point x="452" y="63"/>
      <point x="491" y="103"/>
      <point x="503" y="160" type="curve" smooth="yes"/>
      <point x="515" y="214"/>
      <point x="491" y="250"/>
    </contour>
  </outline>
</glyph>
<glyph name="Germandbls" format="2">
  <advance width="480"/>
  <unicode hex="1E9E"/>
  <outline>
    <contour>
      <point x="0" y="1" type="line"/>
      <point x="104" y="487" type="line"/>
      <point x="128" y="602"/>
      <point x="180" y="651" type="qcurve" smooth="yes"/>
      <point x="250" y="715"/>
      <point x="328" y="714" type="qcurve" smooth="yes"/>
      <point x="365" y="714"/>
      <point x="445" y="656"/>
      <point x="464" y="597" type="qcurve"/>
      <point x="307" y="401" type="line"/>
      <point x="377" y="401"/>
      <point x="419" y="351" type="qcurve" smooth="yes"/>
      <point x="466" y="295"/>
      <point x="446" y="199" type="qcurve" smooth="yes"/>
      <point x="438" y="165"/>
      <point x="418" y="113"/>
      <point x="387" y="68"/>
      <point x="364" y="49" type="qcurve" smooth="yes"/>
      <point x="329" y="20"/>
      <point x="262" y="-3"/>
      <point x="215" y="-3" type="qcurve" smooth="yes"/>
      <point x="137" y="-3" type="line"/>
      <point x="151" y="64" type="line"/>
      <point x="240" y="64" type="line" smooth="yes"/>
      <point x="264" y="64"/>
      <point x="295" y="72"/>
      <point x="313" y="86" type="qcurve" smooth="yes"/>
      <point x="359" y="118"/>
      <point x="376" y="197" type="qcurve" smooth="yes"/>
      <point x="383" y="231"/>
      <point x="377" y="283"/>
      <point x="353" y="314"/>
      <point x="318" y="330"/>
      <point x="295" y="330" type="qcurve" smooth="yes"/>
      <point x="221" y="330" type="line"/>
      <point x="236" y="403" type="line"/>
      <point x="393" y="594" type="line"/>
      <point x="352" y="652"/>
      <point x="315" y="652" type="qcurve" smooth="yes"/>
      <point x="299" y="652"/>
      <point x="276" y="647"/>
      <point x="251" y="633"/>
      <point x="238" y="620" type="qcurve" smooth="yes"/>
      <point x="192" y="580"/>
      <point x="174" y="496" type="qcurve" smooth="yes"/>
      <point x="69" y="1" type="line"/>
    </contour>
  </outline>
</glyph>
<glyph name="bullet" format="2">
  <advance width="432"/>
  <unicode hex="2022"/>
  <outline>
    <contour>
      <point x="101" y="315" type="curve" smooth="yes"/>
      <point x="109" y="351"/>
      <point x="127" y="381"/>
      <point x="156" y="405" type="curve" smooth="yes"/>
      <point x="185" y="428"/>
      <point x="217" y="440"/>
      <point x="252" y="440" type="curve" smooth="yes"/>
      <point x="288" y="440"/>
      <point x="316" y="428"/>
      <point x="335" y="405" type="curve" smooth="yes"/>
      <point x="354" y="382"/>
      <point x="359" y="352"/>
      <point x="351" y="315" type="curve" smooth="yes"/>
      <point x="344" y="280"/>
      <point x="326" y="250"/>
      <point x="298" y="226" type="curve" smooth="yes"/>
      <point x="269" y="202"/>
      <point x="237" y="190"/>
      <point x="201" y="190" type="curve" smooth="yes"/>
      <point x="166" y="190"/>
      <point x="138" y="202"/>
      <point x="119" y="226" type="curve" smooth="yes"/>
      <point x="100" y="250"/>
      <point x="94" y="280"/>
    </contour>
  </outline>
</glyph>
<glyph name="Euro" format="2">
  <advance width="465"/>
  <unicode hex="20AC"/>
  <outline>
    <contour>
      <point x="78" y="183" type="curve" smooth="yes"/>
      <point x="94" y="259" type="line"/>
      <point x="30" y="259" type="line"/>
      <point x="43" y="323" type="line"/>
      <point x="107" y="323" type="line"/>
      <point x="121" y="390" type="line"/>
      <point x="57" y="390" type="line"/>
      <point x="71" y="455" type="line"/>
      <point x="135" y="455" type="line"/>
      <point x="151" y="534" type="line" smooth="yes"/>
      <point x="162" y="590"/>
      <point x="185" y="635"/>
      <point x="218" y="668" type="curve" smooth="yes"/>
      <point x="251" y="701"/>
      <point x="295" y="717"/>
      <point x="350" y="717" type="curve" smooth="yes"/>
      <point x="400" y="717"/>
      <point x="435" y="703"/>
      <point x="456" y="674" type="curve" smooth="yes"/>
      <point x="476" y="645"/>
      <point x="481" y="603"/>
      <point x="471" y="550" type="curve"/>
      <point x="401" y="550" type="line"/>
      <point x="406" y="583"/>
      <point x="404" y="608"/>
      <point x="395" y="625" type="curve" smooth="yes"/>
      <point x="385" y="642"/>
      <point x="366" y="650"/>
      <point x="337" y="650" type="curve" smooth="yes"/>
      <point x="279" y="650"/>
      <point x="242" y="613"/>
      <point x="227" y="539" type="curve" smooth="yes"/>
      <point x="210" y="455" type="line"/>
      <point x="388" y="455" type="line"/>
      <point x="362" y="390" type="line"/>
      <point x="196" y="390" type="line"/>
      <point x="182" y="323" type="line"/>
      <point x="335" y="323" type="line"/>
      <point x="309" y="259" type="line"/>
      <point x="169" y="259" type="line"/>
      <point x="152" y="180" type="line" smooth="yes"/>
      <point x="144" y="141"/>
      <point x="144" y="111"/>
      <point x="153" y="90" type="curve" smooth="yes"/>
      <point x="161" y="69"/>
      <point x="181" y="58"/>
      <point x="214" y="58" type="curve" smooth="yes"/>
      <point x="242" y="58"/>
      <point x="264" y="67"/>
      <point x="281" y="84" type="curve" smooth="yes"/>
      <point x="298" y="101"/>
      <point x="311" y="126"/>
      <point x="320" y="160" type="curve"/>
      <point x="391" y="160" type="line"/>
      <point x="378" y="105"/>
      <point x="355" y="63"/>
      <point x="322" y="35" type="curve" smooth="yes"/>
      <point x="289" y="6"/>
      <point x="248" y="-8"/>
      <point x="199" y="-8" type="curve" smooth="yes"/>
      <point x="141" y="-8"/>
      <point x="103" y="9"/>
      <point x="86" y="42" type="curve" smooth="yes"/>
      <point x="68" y="75"/>
      <point x="65" y="122"/>
    </contour>
  </outline>
</glyph>
<glyph name="trademark" format="2">
  <advance width="685"/>
  <unicode hex="2122"/>
  <outline>
    <contour>
      <point x="197" y="645" type="line"/>
      <point x="110" y="645" type="line"/>
      <point x="123" y="707" type="line"/>
      <point x="363" y="707" type="line"/>
      <point x="350" y="645" type="line"/>
      <point x="263" y="645" type="line"/>
      <point x="192" y="303" type="line"/>
      <point x="126" y="303" type="line"/>
    </contour>
    <contour>
      <point x="418" y="707" type="line"/>
      <point x="484" y="707" type="line"/>
      <point x="515" y="457" type="line"/>
      <point x="517" y="457" type="line"/>
      <point x="650" y="707" type="line"/>
      <point x="716" y="707" type="line"/>
      <point x="632" y="303" type="line"/>
      <point x="569" y="303" type="line"/>
      <point x="620" y="549" type="line"/>
      <point x="618" y="549" type="line"/>
      <point x="518" y="366" type="line"/>
      <point x="475" y="366" type="line"/>
      <point x="450" y="549" type="line"/>
      <point x="448" y="549" type="line"/>
      <point x="397" y="303" type="line"/>
      <point x="334" y="303" type="line"/>
    </contour>
  </outline>
</glyph>
<glyph name="minus" format="2">
  <advance width="402"/>
  <unicode hex="2212"/>
  <outline>
    <contour>
      <point x="77" y="389" type="line"/>
      <point x="359" y="389" type="line"/>
      <point x="345" y="323" type="line"/>
      <point x="63" y="323" type="line"/>
    </contour>
  </outline>
</glyph>
<glyph name="doubleobliquehyphen" format="2">
  <advance width="430"/>
  <unicode hex="2E17"/>
  <outline>
    <contour>
      <point x="58" y="349" type="line"/>
      <point x="410" y="469" type="line"/>
      <point x="420" y="406" type="line"/>
      <point x="68" y="286" type="line"/>
    </contour>
    <contour>
      <point x="18" y="158" type="line"/>
      <point x="371" y="278" type="line"/>
      <point x="381" y="215" type="line"/>
      <point x="28" y="95" type="line"/>
    </contour>
  </outline>
</glyph>
<glyph name=".notdef" format="2">
  <advance width="614"/>
  <outline>
    <contour>
      <point x="195" y="707" type="line"/>
      <point x="602" y="707" type="line"/>
      <point x="455" y="0" type="line"/>
      <point x="48" y="0" type="line"/>
    </contour>
    <contour>
      <point x="427" y="35" type="line"/>
      <point x="560" y="672" type="line"/>
      <point x="223" y="672" type="line"/>
      <point x="90" y="35" type="line"/>
    </contour>
  </outline>
</glyph>
<glyph name="eight.dnom" format="2">
  <advance width="263"/>
  <outline>
    <contour>
      <point x="72" y="222" type="qcurve"/>
      <point x="52" y="242"/>
      <point x="53" y="275" type="qcurve" smooth="yes"/>
      <point x="53" y="287"/>
      <point x="55" y="298" type="qcurve" smooth="yes"/>
      <point x="64" y="336" type="line" smooth="yes"/>
      <point x="74" y="381"/>
      <point x="109" y="409" type="qcurve" smooth="yes"/>
      <point x="144" y="437"/>
      <point x="193" y="437" type="qcurve" smooth="yes"/>
      <point x="242" y="437"/>
      <point x="266" y="407" type="qcurve" smooth="yes"/>
      <point x="289" y="378"/>
      <point x="279" y="332" type="qcurve" smooth="yes"/>
      <point x="270" y="293" type="line" smooth="yes"/>
      <point x="259" y="244"/>
      <point x="221" y="219" type="qcurve"/>
      <point x="242" y="199"/>
      <point x="241" y="166" type="qcurve" smooth="yes"/>
      <point x="241" y="152"/>
      <point x="238" y="137" type="qcurve" smooth="yes"/>
      <point x="228" y="91" type="line" smooth="yes"/>
      <point x="216" y="41"/>
      <point x="181" y="12" type="qcurve" smooth="yes"/>
      <point x="146" y="-17"/>
      <point x="95" y="-17" type="qcurve" smooth="yes"/>
      <point x="43" y="-17"/>
      <point x="19" y="14" type="qcurve" smooth="yes"/>
      <point x="4" y="34"/>
      <point x="4" y="56" type="qcurve" smooth="yes"/>
      <point x="4" y="78"/>
      <point x="8" y="96" type="qcurve" smooth="yes"/>
      <point x="18" y="141" type="line" smooth="yes"/>
      <point x="30" y="195"/>
    </contour>
    <contour>
      <point x="213" y="350" type="qcurve" smooth="yes"/>
      <point x="213" y="376"/>
      <point x="184" y="376" type="qcurve" smooth="yes"/>
      <point x="164" y="376"/>
      <point x="150" y="364" type="qcurve" smooth="yes"/>
      <point x="136" y="352"/>
      <point x="132" y="332" type="qcurve" smooth="yes"/>
      <point x="123" y="293" type="line" smooth="yes"/>
      <point x="114" y="250"/>
      <point x="150" y="249" type="qcurve" smooth="yes"/>
      <point x="192" y="249"/>
      <point x="203" y="298" type="qcurve" smooth="yes"/>
      <point x="213" y="344"/>
    </contour>
    <contour>
      <point x="74" y="71" type="qcurve" smooth="yes"/>
      <point x="74" y="43"/>
      <point x="104" y="43" type="qcurve" smooth="yes"/>
      <point x="149" y="44"/>
      <point x="160" y="97" type="qcurve" smooth="yes"/>
      <point x="173" y="153"/>
      <point x="173" y="166" type="qcurve" smooth="yes"/>
      <point x="173" y="190"/>
      <point x="141" y="190" type="qcurve" smooth="yes"/>
      <point x="97" y="190"/>
      <point x="87" y="141" type="qcurve" smooth="yes"/>
      <point x="74" y="81"/>
    </contour>
  </outline>
</glyph>
<glyph name="five.dnom" format="2">
  <advance width="260"/>
  <outline>
    <contour>
      <point x="173" y="195" type="qcurve" smooth="yes"/>
      <point x="173" y="205"/>
      <point x="169" y="211" type="qcurve" smooth="yes"/>
      <point x="165" y="218"/>
      <point x="142" y="219" type="qcurve" smooth="yes"/>
      <point x="120" y="219"/>
      <point x="96" y="189" type="qcurve"/>
      <point x="34" y="189" type="line"/>
      <point x="88" y="431" type="line"/>
      <point x="297" y="431" type="line"/>
      <point x="282" y="367" type="line"/>
      <point x="143" y="367" type="line"/>
      <point x="122" y="273" type="line"/>
      <point x="142" y="281"/>
      <point x="170" y="281" type="qcurve" smooth="yes"/>
      <point x="199" y="281"/>
      <point x="223" y="264" type="qcurve" smooth="yes"/>
      <point x="247" y="247"/>
      <point x="246" y="206" type="qcurve" smooth="yes"/>
      <point x="246" y="189"/>
      <point x="236" y="141" type="qcurve" smooth="yes"/>
      <point x="225" y="93"/>
      <point x="225" y="94" type="qcurve" smooth="yes"/>
      <point x="200" y="-17"/>
      <point x="93" y="-17" type="qcurve" smooth="yes"/>
      <point x="40" y="-17"/>
      <point x="18" y="12" type="qcurve" smooth="yes"/>
      <point x="3" y="31"/>
      <point x="3" y="53" type="qcurve" smooth="yes"/>
      <point x="3" y="75"/>
      <point x="7" y="92" type="qcurve" smooth="yes"/>
      <point x="9" y="102" type="line"/>
      <point x="11" y="111" type="line"/>
      <point x="82" y="111" type="line"/>
      <point x="78" y="97" type="line"/>
      <point x="76" y="87" type="line" smooth="yes"/>
      <point x="74" y="77"/>
      <point x="74" y="67" type="qcurve" smooth="yes"/>
      <point x="74" y="46"/>
      <point x="98" y="45" type="qcurve" smooth="yes"/>
      <point x="122" y="45"/>
      <point x="135" y="57" type="qcurve" smooth="yes"/>
      <point x="147" y="69"/>
      <point x="153" y="97" type="qcurve" smooth="yes"/>
      <point x="173" y="185"/>
    </contour>
  </outline>
</glyph>
<glyph name="four.dnom" format="2">
  <advance width="272"/>
  <outline>
    <contour>
      <point x="241" y="135" type="line"/>
      <point x="256" y="135" type="line"/>
      <point x="243" y="73" type="line"/>
      <point x="233" y="73" type="line"/>
      <point x="203" y="73" type="line"/>
      <point x="184" y="-11" type="line"/>
      <point x="111" y="-11" type="line"/>
      <point x="130" y="73" type="line"/>
      <point x="-7" y="73" type="line"/>
      <point x="4" y="128" type="line"/>
      <point x="170" y="431" type="line"/>
      <point x="245" y="431" type="line"/>
      <point x="83" y="135" type="line"/>
      <point x="144" y="135" type="line"/>
      <point x="169" y="245" type="line"/>
      <point x="242" y="245" type="line"/>
      <point x="217" y="135" type="line"/>
    </contour>
  </outline>
</glyph>
<glyph name="gecyr.loclBGR" format="2">
  <advance width="391"/>
  <anchor x="194" y="590" name="top"/>
  <outline>
    <contour>
      <point x="249" y="538" type="curve" smooth="yes"/>
      <point x="296" y="538"/>
      <point x="330" y="525"/>
      <point x="352" y="499" type="curve" smooth="yes"/>
      <point x="374" y="472"/>
      <point x="381" y="437"/>
      <point x="372" y="393" type="curve" smooth="yes"/>
      <point x="358" y="329"/>
      <point x="315" y="283"/>
      <point x="242" y="255" type="curve" smooth="yes"/>
      <point x="169" y="227" type="line" smooth="yes"/>
      <point x="141" y="216"/>
      <point x="120" y="205"/>
      <point x="106" y="192" type="curve" smooth="yes"/>
      <point x="92" y="179"/>
      <point x="83" y="161"/>
      <point x="79" y="138" type="curve" smooth="yes"/>
      <point x="73" y="109"/>
      <point x="76" y="88"/>
      <point x="89" y="74" type="curve" smooth="yes"/>
      <point x="102" y="60"/>
      <point x="122" y="53"/>
      <point x="149" y="53" type="curve" smooth="yes"/>
      <point x="178" y="53"/>
      <point x="202" y="61"/>
      <point x="222" y="76" type="curve" smooth="yes"/>
      <point x="242" y="91"/>
      <point x="255" y="113"/>
      <point x="261" y="142" type="curve" smooth="yes"/>
      <point x="262" y="148" type="line"/>
      <point x="326" y="148" type="line"/>
      <point x="325" y="142" type="line" smooth="yes"/>
      <point x="315" y="96"/>
      <point x="293" y="60"/>
      <point x="260" y="33" type="curve" smooth="yes"/>
      <point x="227" y="6"/>
      <point x="186" y="-8"/>
      <point x="138" y="-8" type="curve" smooth="yes"/>
      <point x="89" y="-8"/>
      <point x="53" y="5"/>
      <point x="30" y="32" type="curve" smooth="yes"/>
      <point x="7" y="58"/>
      <point x="1" y="95"/>
      <point x="11" y="143" type="curve" smooth="yes"/>
      <point x="19" y="182"/>
      <point x="34" y="212"/>
      <point x="56" y="233" type="curve" smooth="yes"/>
      <point x="79" y="254"/>
      <point x="110" y="272"/>
      <point x="149" y="287" type="curve" smooth="yes"/>
      <point x="221" y="314" type="line" smooth="yes"/>
      <point x="248" y="325"/>
      <point x="267" y="337"/>
      <point x="279" y="350" type="curve" smooth="yes"/>
      <point x="290" y="363"/>
      <point x="299" y="379"/>
      <point x="303" y="398" type="curve" smooth="yes"/>
      <point x="308" y="423"/>
      <point x="305" y="442"/>
      <point x="293" y="456" type="curve" smooth="yes"/>
      <point x="281" y="470"/>
      <point x="262" y="477"/>
      <point x="237" y="477" type="curve" smooth="yes"/>
      <point x="209" y="477"/>
      <point x="186" y="469"/>
      <point x="167" y="453" type="curve" smooth="yes"/>
      <point x="149" y="436"/>
      <point x="137" y="413"/>
      <point x="131" y="383" type="curve" smooth="yes"/>
      <point x="129" y="377" type="line"/>
      <point x="65" y="377" type="line"/>
      <point x="68" y="390" type="line" smooth="yes"/>
      <point x="77" y="435"/>
      <point x="98" y="471"/>
      <point x="131" y="498" type="curve" smooth="yes"/>
      <point x="163" y="525"/>
      <point x="202" y="538"/>
    </contour>
  </outline>
</glyph>
<glyph name="hardcyr.loclBGR" format="2">
  <advance width="494"/>
  <outline>
    <contour>
      <point x="303" y="299" type="curve" smooth="yes"/>
      <point x="269" y="299"/>
      <point x="248" y="297"/>
      <point x="215" y="293" type="curve"/>
      <point x="182" y="133" type="line"/>
      <point x="171" y="82"/>
      <point x="201" y="54"/>
      <point x="266" y="54" type="curve" smooth="yes"/>
      <point x="327" y="54"/>
      <point x="378" y="105"/>
      <point x="394" y="182" type="curve" smooth="yes"/>
      <point x="408" y="252"/>
      <point x="372" y="299"/>
    </contour>
    <contour>
      <point x="55" y="529" type="line"/>
      <point x="264" y="529" type="line"/>
      <point x="228" y="357" type="line"/>
      <point x="265" y="361"/>
      <point x="299" y="363"/>
      <point x="334" y="363" type="curve" smooth="yes"/>
      <point x="435" y="363"/>
      <point x="487" y="291"/>
      <point x="464" y="184" type="curve" smooth="yes"/>
      <point x="440" y="68"/>
      <point x="356" y="-8"/>
      <point x="250" y="-8" type="curve" smooth="yes"/>
      <point x="151" y="-8"/>
      <point x="95" y="49"/>
      <point x="113" y="133" type="curve"/>
      <point x="182" y="466" type="line"/>
      <point x="42" y="466" type="line"/>
    </contour>
  </outline>
</glyph>
<glyph name="kacyr.loclBGR" format="2">
  <advance width="418"/>
  <outline>
    <contour>
      <point x="152" y="707" type="line"/>
      <point x="222" y="707" type="line"/>
      <point x="140" y="313" type="line"/>
      <point x="174" y="313" type="line"/>
      <point x="358" y="529" type="line"/>
      <point x="435" y="529" type="line"/>
      <point x="235" y="288" type="line"/>
      <point x="348" y="0" type="line"/>
      <point x="269" y="0" type="line"/>
      <point x="169" y="249" type="line"/>
      <point x="170" y="250" type="line"/>
      <point x="127" y="250" type="line"/>
      <point x="75" y="0" type="line"/>
      <point x="5" y="0" type="line"/>
    </contour>
  </outline>
</glyph>
<glyph name="nine.dnom" format="2">
  <advance width="258"/>
  <outline>
    <contour>
      <point x="124" y="158" type="qcurve" smooth="yes"/>
      <point x="75" y="158"/>
      <point x="53" y="187" type="qcurve" smooth="yes"/>
      <point x="39" y="206"/>
      <point x="38" y="227" type="qcurve" smooth="yes"/>
      <point x="38" y="247"/>
      <point x="40" y="255" type="qcurve" smooth="yes"/>
      <point x="42" y="263"/>
      <point x="57" y="331" type="qcurve" smooth="yes"/>
      <point x="68" y="380"/>
      <point x="104" y="408" type="qcurve" smooth="yes"/>
      <point x="140" y="436"/>
      <point x="191" y="437" type="qcurve" smooth="yes"/>
      <point x="242" y="437"/>
      <point x="266" y="406" type="qcurve" smooth="yes"/>
      <point x="282" y="386"/>
      <point x="282" y="364" type="qcurve" smooth="yes"/>
      <point x="282" y="342"/>
      <point x="280" y="334" type="qcurve" smooth="yes"/>
      <point x="278" y="326"/>
      <point x="268" y="282" type="qcurve" smooth="yes"/>
      <point x="258" y="238"/>
      <point x="250" y="219" type="qcurve" smooth="yes"/>
      <point x="241" y="200"/>
      <point x="223" y="173" type="qcurve" smooth="yes"/>
      <point x="98" y="-11" type="line"/>
      <point x="21" y="-11" type="line"/>
      <point x="135" y="159" type="line"/>
      <point x="130" y="158"/>
    </contour>
    <contour>
      <point x="112" y="244" type="qcurve" smooth="yes"/>
      <point x="112" y="219"/>
      <point x="142" y="219" type="qcurve" smooth="yes"/>
      <point x="183" y="219"/>
      <point x="192" y="264" type="qcurve"/>
      <point x="207" y="331" type="line" smooth="yes"/>
      <point x="209" y="341"/>
      <point x="209" y="350" type="qcurve" smooth="yes"/>
      <point x="209" y="374"/>
      <point x="180" y="374" type="qcurve" smooth="yes"/>
      <point x="140" y="374"/>
      <point x="129" y="327" type="qcurve" smooth="yes"/>
      <point x="112" y="253"/>
    </contour>
  </outline>
</glyph>
<glyph name="nine.tosf" format="2">
  <advance width="418"/>
  <outline>
    <contour>
      <point x="226" y="130" type="line"/>
      <point x="220" y="126"/>
      <point x="211" y="123"/>
      <point x="200" y="120" type="curve" smooth="yes"/>
      <point x="189" y="117"/>
      <point x="177" y="116"/>
      <point x="165" y="116" type="curve" smooth="yes"/>
      <point x="121" y="116"/>
      <point x="89" y="130"/>
      <point x="70" y="157" type="curve" smooth="yes"/>
      <point x="51" y="184"/>
      <point x="46" y="222"/>
      <point x="56" y="269" type="curve" smooth="yes"/>
      <point x="78" y="377" type="line" smooth="yes"/>
      <point x="89" y="428"/>
      <point x="111" y="467"/>
      <point x="145" y="496" type="curve" smooth="yes"/>
      <point x="179" y="525"/>
      <point x="220" y="539"/>
      <point x="267" y="539" type="curve" smooth="yes"/>
      <point x="315" y="539"/>
      <point x="350" y="524"/>
      <point x="371" y="495" type="curve" smooth="yes"/>
      <point x="392" y="466"/>
      <point x="397" y="426"/>
      <point x="386" y="375" type="curve" smooth="yes"/>
      <point x="366" y="281" type="line" smooth="yes"/>
      <point x="360" y="252"/>
      <point x="353" y="228"/>
      <point x="345" y="208" type="curve" smooth="yes"/>
      <point x="336" y="187"/>
      <point x="323" y="162"/>
      <point x="304" y="133" type="curve" smooth="yes"/>
      <point x="115" y="-162" type="line"/>
      <point x="40" y="-162" type="line"/>
    </contour>
    <contour>
      <point x="290" y="271" type="curve" smooth="yes"/>
      <point x="312" y="377" type="line" smooth="yes"/>
      <point x="319" y="408"/>
      <point x="317" y="431"/>
      <point x="307" y="448" type="curve" smooth="yes"/>
      <point x="296" y="464"/>
      <point x="278" y="472"/>
      <point x="253" y="472" type="curve" smooth="yes"/>
      <point x="227" y="472"/>
      <point x="206" y="464"/>
      <point x="189" y="448" type="curve" smooth="yes"/>
      <point x="172" y="431"/>
      <point x="160" y="408"/>
      <point x="154" y="378" type="curve" smooth="yes"/>
      <point x="132" y="275" type="line" smooth="yes"/>
      <point x="126" y="245"/>
      <point x="128" y="222"/>
      <point x="139" y="206" type="curve" smooth="yes"/>
      <point x="149" y="189"/>
      <point x="167" y="181"/>
      <point x="193" y="181" type="curve" smooth="yes"/>
      <point x="218" y="181"/>
      <point x="239" y="189"/>
      <point x="256" y="205" type="curve" smooth="yes"/>
      <point x="273" y="220"/>
      <point x="284" y="242"/>
    </contour>
  </outline>
</glyph>
<glyph name="seven.tosf" format="2">
  <advance width="418"/>
  <outline>
    <contour>
      <point x="423" y="529" type="line"/>
      <point x="409" y="462" type="line"/>
      <point x="88" y="-162" type="line"/>
      <point x="14" y="-162" type="line"/>
      <point x="335" y="462" type="line"/>
      <point x="103" y="462" type="line"/>
      <point x="117" y="529" type="line"/>
    </contour>
  </outline>
</glyph>
<glyph name="shacyr.loclBGR" format="2">
  <advance width="659"/>
  <outline>
    <contour>
      <point x="114" y="529" type="line"/>
      <point x="185" y="529" type="line"/>
      <point x="106" y="149" type="line" smooth="yes"/>
      <point x="94" y="90"/>
      <point x="116" y="54"/>
      <point x="166" y="54" type="curve" smooth="yes"/>
      <point x="218" y="54"/>
      <point x="258" y="90"/>
      <point x="270" y="148" type="curve" smooth="yes"/>
      <point x="349" y="529" type="line"/>
      <point x="419" y="529" type="line"/>
      <point x="340" y="149" type="line" smooth="yes"/>
      <point x="328" y="90"/>
      <point x="351" y="54"/>
      <point x="403" y="54" type="curve" smooth="yes"/>
      <point x="454" y="54"/>
      <point x="493" y="90"/>
      <point x="505" y="149" type="curve" smooth="yes"/>
      <point x="584" y="529" type="line"/>
      <point x="655" y="529" type="line"/>
      <point x="545" y="0" type="line"/>
      <point x="476" y="0" type="line"/>
      <point x="486" y="48" type="line"/>
      <point x="459" y="13"/>
      <point x="414" y="-9"/>
      <point x="371" y="-9" type="curve" smooth="yes"/>
      <point x="322" y="-9"/>
      <point x="284" y="16"/>
      <point x="270" y="58" type="curve"/>
      <point x="236" y="15"/>
      <point x="188" y="-9"/>
      <point x="139" y="-9" type="curve" smooth="yes"/>
      <point x="50" y="-9"/>
      <point x="13" y="45"/>
      <point x="34" y="146" type="curve" smooth="yes"/>
    </contour>
  </outline>
</glyph>
<glyph name="shchacyr.loclBGR" format="2">
  <advance width="660"/>
  <outline>
    <component base="shacyr.loclBGR"/>
    <contour>
      <point x="549" y="63" type="line"/>
      <point x="618" y="63" type="line"/>
      <point x="570" y="-170" type="line"/>
      <point x="501" y="-170" type="line"/>
    </contour>
  </outline>
</glyph>
<glyph name="six.dnom" format="2">
  <advance width="258"/>
  <outline>
    <contour>
      <point x="185" y="431" type="line"/>
      <point x="262" y="431" type="line"/>
      <point x="148" y="261" type="line"/>
      <point x="153" y="262"/>
      <point x="159" y="262" type="qcurve" smooth="yes"/>
      <point x="208" y="262"/>
      <point x="229" y="233" type="qcurve" smooth="yes"/>
      <point x="243" y="214"/>
      <point x="244" y="193" type="qcurve" smooth="yes"/>
      <point x="244" y="172"/>
      <point x="240" y="157" type="qcurve" smooth="yes"/>
      <point x="225" y="89" type="line" smooth="yes"/>
      <point x="214" y="41"/>
      <point x="178" y="12" type="qcurve" smooth="yes"/>
      <point x="142" y="-16"/>
      <point x="92" y="-17" type="qcurve" smooth="yes"/>
      <point x="42" y="-17"/>
      <point x="17" y="14" type="qcurve" smooth="yes"/>
      <point x="1" y="34"/>
      <point x="0" y="56" type="qcurve" smooth="yes"/>
      <point x="0" y="78"/>
      <point x="4" y="94" type="qcurve" smooth="yes"/>
      <point x="18" y="155" type="line" smooth="yes"/>
      <point x="28" y="198"/>
      <point x="60" y="246" type="qcurve" smooth="yes"/>
      <point x="182" y="425"/>
      <point x="182" y="426" type="qcurve" smooth="yes"/>
    </contour>
    <contour>
      <point x="240" y="157" type="line"/>
    </contour>
    <contour>
      <point x="168" y="158" type="line" smooth="yes"/>
      <point x="178" y="200"/>
      <point x="141" y="200" type="qcurve" smooth="yes"/>
      <point x="101" y="200"/>
      <point x="91" y="156" type="qcurve" smooth="yes"/>
      <point x="76" y="88" type="line" smooth="yes"/>
      <point x="66" y="45"/>
      <point x="103" y="45" type="qcurve" smooth="yes"/>
      <point x="143" y="45"/>
      <point x="154" y="93" type="qcurve" smooth="yes"/>
    </contour>
  </outline>
</glyph>
<glyph name="three.dnom" format="2">
  <advance width="264"/>
  <outline>
    <contour>
      <point x="72" y="70" type="qcurve" smooth="yes"/>
      <point x="72" y="45"/>
      <point x="104" y="45" type="qcurve" smooth="yes"/>
      <point x="146" y="45"/>
      <point x="157" y="93" type="qcurve" smooth="yes"/>
      <point x="167" y="139" type="line" smooth="yes"/>
      <point x="169" y="150"/>
      <point x="170" y="160" type="qcurve" smooth="yes"/>
      <point x="170" y="170"/>
      <point x="164" y="179" type="qcurve" smooth="yes"/>
      <point x="159" y="187"/>
      <point x="137" y="187" type="qcurve" smooth="yes"/>
      <point x="118" y="187" type="line"/>
      <point x="103" y="187" type="line"/>
      <point x="117" y="249" type="line"/>
      <point x="127" y="249" type="line"/>
      <point x="146" y="249" type="line" smooth="yes"/>
      <point x="190" y="249"/>
      <point x="201" y="299" type="qcurve" smooth="yes"/>
      <point x="208" y="332" type="line" smooth="yes"/>
      <point x="218" y="374"/>
      <point x="181" y="374" type="qcurve" smooth="yes"/>
      <point x="141" y="374"/>
      <point x="131" y="331" type="qcurve" smooth="yes"/>
      <point x="125" y="306" type="line"/>
      <point x="123" y="298" type="line"/>
      <point x="51" y="298" type="line"/>
      <point x="54" y="311" type="line"/>
      <point x="60" y="336" type="line" smooth="yes"/>
      <point x="70" y="383"/>
      <point x="105" y="410" type="qcurve" smooth="yes"/>
      <point x="139" y="437"/>
      <point x="192" y="437" type="qcurve" smooth="yes"/>
      <point x="245" y="437"/>
      <point x="268" y="408" type="qcurve" smooth="yes"/>
      <point x="284" y="389"/>
      <point x="283" y="368" type="qcurve" smooth="yes"/>
      <point x="283" y="347"/>
      <point x="280" y="332" type="qcurve" smooth="yes"/>
      <point x="272" y="296" type="line" smooth="yes"/>
      <point x="259" y="241"/>
      <point x="220" y="219" type="qcurve"/>
      <point x="251" y="194"/>
      <point x="238" y="134" type="qcurve"/>
      <point x="228" y="90" type="line" smooth="yes"/>
      <point x="217" y="39"/>
      <point x="182" y="11" type="qcurve" smooth="yes"/>
      <point x="147" y="-17"/>
      <point x="93" y="-17" type="qcurve" smooth="yes"/>
      <point x="39" y="-17"/>
      <point x="16" y="11" type="qcurve" smooth="yes"/>
      <point x="-1" y="30"/>
      <point x="-1" y="50" type="qcurve" smooth="yes"/>
      <point x="-1" y="70"/>
      <point x="2" y="85" type="qcurve" smooth="yes"/>
      <point x="8" y="112" type="line"/>
      <point x="10" y="121" type="line"/>
      <point x="82" y="121" type="line"/>
      <point x="79" y="107" type="line"/>
      <point x="74" y="84" type="line" smooth="yes"/>
      <point x="72" y="76"/>
    </contour>
  </outline>
</glyph>
<glyph name="three.sups" format="2">
  <advance width="274"/>
  <outline>
    <contour>
      <point x="87" y="536" type="curve" smooth="yes"/>
      <point x="93" y="561" type="line"/>
      <point x="160" y="561" type="line"/>
      <point x="155" y="538" type="line" smooth="yes"/>
      <point x="152" y="525"/>
      <point x="153" y="515"/>
      <point x="158" y="508" type="curve" smooth="yes"/>
      <point x="163" y="501"/>
      <point x="171" y="497"/>
      <point x="182" y="497" type="curve" smooth="yes"/>
      <point x="207" y="497"/>
      <point x="222" y="513"/>
      <point x="229" y="544" type="curve" smooth="yes"/>
      <point x="237" y="581" type="line" smooth="yes"/>
      <point x="240" y="598"/>
      <point x="240" y="611"/>
      <point x="235" y="619" type="curve" smooth="yes"/>
      <point x="230" y="626"/>
      <point x="221" y="630"/>
      <point x="206" y="630" type="curve" smooth="yes"/>
      <point x="188" y="630" type="line"/>
      <point x="201" y="692" type="line"/>
      <point x="219" y="692" type="line" smooth="yes"/>
      <point x="245" y="692"/>
      <point x="261" y="707"/>
      <point x="267" y="737" type="curve" smooth="yes"/>
      <point x="274" y="768" type="line" smooth="yes"/>
      <point x="278" y="786"/>
      <point x="276" y="799"/>
      <point x="269" y="806" type="curve" smooth="yes"/>
      <point x="264" y="811"/>
      <point x="257" y="813"/>
      <point x="248" y="813" type="curve" smooth="yes"/>
      <point x="237" y="813"/>
      <point x="227" y="810"/>
      <point x="220" y="803" type="curve" smooth="yes"/>
      <point x="213" y="796"/>
      <point x="208" y="785"/>
      <point x="205" y="772" type="curve" smooth="yes"/>
      <point x="200" y="749" type="line"/>
      <point x="132" y="749" type="line"/>
      <point x="137" y="775" type="line" smooth="yes"/>
      <point x="144" y="806"/>
      <point x="158" y="830"/>
      <point x="181" y="849" type="curve" smooth="yes"/>
      <point x="203" y="867"/>
      <point x="230" y="876"/>
      <point x="262" y="876" type="curve" smooth="yes"/>
      <point x="295" y="876"/>
      <point x="318" y="867"/>
      <point x="333" y="848" type="curve" smooth="yes"/>
      <point x="348" y="829"/>
      <point x="352" y="804"/>
      <point x="345" y="771" type="curve" smooth="yes"/>
      <point x="340" y="746" type="line" smooth="yes"/>
      <point x="336" y="725"/>
      <point x="329" y="709"/>
      <point x="319" y="696" type="curve" smooth="yes"/>
      <point x="309" y="683"/>
      <point x="295" y="672"/>
      <point x="278" y="665" type="curve"/>
      <point x="295" y="658"/>
      <point x="305" y="647"/>
      <point x="309" y="633" type="curve" smooth="yes"/>
      <point x="312" y="618"/>
      <point x="312" y="600"/>
      <point x="307" y="577" type="curve" smooth="yes"/>
      <point x="299" y="541" type="line" smooth="yes"/>
      <point x="292" y="508"/>
      <point x="277" y="482"/>
      <point x="254" y="463" type="curve" smooth="yes"/>
      <point x="230" y="444"/>
      <point x="202" y="434"/>
      <point x="170" y="434" type="curve" smooth="yes"/>
      <point x="137" y="434"/>
      <point x="113" y="443"/>
      <point x="99" y="461" type="curve" smooth="yes"/>
      <point x="84" y="479"/>
      <point x="80" y="504"/>
    </contour>
  </outline>
</glyph>
<glyph name="two.dnom" format="2">
  <advance width="256"/>
  <outline>
    <contour>
      <point x="208" y="350" type="curve" smooth="yes"/>
      <point x="208" y="366"/>
      <point x="198" y="374"/>
      <point x="179" y="374" type="curve" smooth="yes"/>
      <point x="153" y="374"/>
      <point x="136" y="359"/>
      <point x="129" y="328" type="curve" smooth="yes"/>
      <point x="123" y="304" type="line"/>
      <point x="121" y="295" type="line"/>
      <point x="49" y="295" type="line"/>
      <point x="52" y="309" type="line"/>
      <point x="59" y="337" type="line" smooth="yes"/>
      <point x="66" y="367"/>
      <point x="81" y="391"/>
      <point x="104" y="410" type="curve" smooth="yes"/>
      <point x="127" y="428"/>
      <point x="156" y="437"/>
      <point x="190" y="437" type="curve" smooth="yes"/>
      <point x="224" y="437"/>
      <point x="249" y="427"/>
      <point x="264" y="408" type="curve" smooth="yes"/>
      <point x="275" y="395"/>
      <point x="281" y="381"/>
      <point x="281" y="368" type="curve" smooth="yes"/>
      <point x="281" y="355"/>
      <point x="280" y="343"/>
      <point x="278" y="333" type="curve" smooth="yes"/>
      <point x="273" y="311" type="line" smooth="yes"/>
      <point x="267" y="280"/>
      <point x="249" y="248"/>
      <point x="219" y="214" type="curve" smooth="yes"/>
      <point x="84" y="51" type="line"/>
      <point x="213" y="51" type="line"/>
      <point x="199" y="-11" type="line"/>
      <point x="-19" y="-11" type="line"/>
      <point x="-8" y="40" type="line"/>
      <point x="166" y="249" type="line" smooth="yes"/>
      <point x="185" y="272"/>
      <point x="197" y="294"/>
      <point x="202" y="315" type="curve" smooth="yes"/>
      <point x="206" y="332"/>
      <point x="208" y="344"/>
    </contour>
  </outline>
</glyph>
<glyph name="two.sups" format="2">
  <advance width="277"/>
  <outline>
    <contour>
      <point x="82" y="502" type="line"/>
      <point x="238" y="684" type="line" smooth="yes"/>
      <point x="249" y="697"/>
      <point x="257" y="708"/>
      <point x="262" y="718" type="curve" smooth="yes"/>
      <point x="267" y="727"/>
      <point x="271" y="738"/>
      <point x="274" y="751" type="curve" smooth="yes"/>
      <point x="278" y="771" type="line" smooth="yes"/>
      <point x="281" y="784"/>
      <point x="280" y="794"/>
      <point x="276" y="802" type="curve" smooth="yes"/>
      <point x="272" y="809"/>
      <point x="264" y="813"/>
      <point x="252" y="813" type="curve" smooth="yes"/>
      <point x="229" y="813"/>
      <point x="214" y="797"/>
      <point x="207" y="766" type="curve" smooth="yes"/>
      <point x="202" y="743" type="line"/>
      <point x="134" y="743" type="line"/>
      <point x="141" y="774" type="line" smooth="yes"/>
      <point x="147" y="805"/>
      <point x="162" y="829"/>
      <point x="185" y="848" type="curve" smooth="yes"/>
      <point x="208" y="867"/>
      <point x="235" y="876"/>
      <point x="267" y="876" type="curve" smooth="yes"/>
      <point x="298" y="876"/>
      <point x="322" y="867"/>
      <point x="337" y="848" type="curve" smooth="yes"/>
      <point x="352" y="829"/>
      <point x="356" y="804"/>
      <point x="350" y="773" type="curve" smooth="yes"/>
      <point x="345" y="749" type="line" smooth="yes"/>
      <point x="341" y="731"/>
      <point x="335" y="715"/>
      <point x="326" y="701" type="curve" smooth="yes"/>
      <point x="317" y="686"/>
      <point x="306" y="670"/>
      <point x="291" y="652" type="curve" smooth="yes"/>
      <point x="165" y="504" type="line"/>
      <point x="294" y="504" type="line"/>
      <point x="280" y="440" type="line"/>
      <point x="69" y="440" type="line"/>
    </contour>
  </outline>
</glyph>
<glyph name="zero.dnom" format="2">
  <advance width="263"/>
  <outline>
    <contour>
      <point x="230" y="103" type="qcurve" smooth="yes"/>
      <point x="203" y="-17"/>
      <point x="96" y="-17" type="qcurve" smooth="yes"/>
      <point x="57" y="-17"/>
      <point x="31" y="2" type="qcurve" smooth="yes"/>
      <point x="5" y="21"/>
      <point x="5" y="65" type="qcurve" smooth="yes"/>
      <point x="5" y="84"/>
      <point x="10" y="108" type="qcurve" smooth="yes"/>
      <point x="57" y="317" type="line" smooth="yes"/>
      <point x="69" y="369"/>
      <point x="101" y="402" type="qcurve" smooth="yes"/>
      <point x="133" y="436"/>
      <point x="193" y="437" type="qcurve" smooth="yes"/>
      <point x="283" y="437"/>
      <point x="282" y="355" type="qcurve" smooth="yes"/>
      <point x="282" y="336"/>
      <point x="277" y="312" type="qcurve" smooth="yes"/>
      <point x="230" y="106"/>
    </contour>
    <contour>
      <point x="204" y="310" type="line" smooth="yes"/>
      <point x="210" y="335"/>
      <point x="210" y="346" type="qcurve" smooth="yes"/>
      <point x="210" y="358"/>
      <point x="206" y="367" type="qcurve" smooth="yes"/>
      <point x="203" y="375"/>
      <point x="182" y="374" type="qcurve" smooth="yes"/>
      <point x="161" y="374"/>
      <point x="149" y="360" type="qcurve" smooth="yes"/>
      <point x="137" y="346"/>
      <point x="127" y="305" type="qcurve" smooth="yes"/>
      <point x="84" y="110" type="line" smooth="yes"/>
      <point x="79" y="87"/>
      <point x="78" y="74" type="qcurve" smooth="yes"/>
      <point x="78" y="61"/>
      <point x="82" y="53" type="qcurve" smooth="yes"/>
      <point x="85" y="45"/>
      <point x="106" y="45" type="qcurve" smooth="yes"/>
      <point x="127" y="45"/>
      <point x="139" y="60" type="qcurve" smooth="yes"/>
      <point x="151" y="75"/>
      <point x="160" y="115" type="qcurve" smooth="yes"/>
    </contour>
  </outline>
</glyph>
<glyph name="zero.sups" format="2">
  <advance width="281"/>
  <outline>
    <contour>
      <point x="96" y="564" type="curve" smooth="yes"/>
      <point x="135" y="750" type="line" smooth="yes"/>
      <point x="144" y="793"/>
      <point x="159" y="826"/>
      <point x="182" y="847" type="curve" smooth="yes"/>
      <point x="204" y="868"/>
      <point x="233" y="878"/>
      <point x="269" y="878" type="curve" smooth="yes"/>
      <point x="306" y="878"/>
      <point x="331" y="867"/>
      <point x="344" y="846" type="curve" smooth="yes"/>
      <point x="357" y="825"/>
      <point x="359" y="793"/>
      <point x="350" y="750" type="curve" smooth="yes"/>
      <point x="311" y="564" type="line" smooth="yes"/>
      <point x="302" y="520"/>
      <point x="287" y="487"/>
      <point x="265" y="466" type="curve" smooth="yes"/>
      <point x="243" y="445"/>
      <point x="213" y="434"/>
      <point x="176" y="434" type="curve" smooth="yes"/>
      <point x="139" y="434"/>
      <point x="115" y="445"/>
      <point x="102" y="467" type="curve" smooth="yes"/>
      <point x="89" y="488"/>
      <point x="87" y="521"/>
    </contour>
    <contour>
      <point x="240" y="564" type="curve" smooth="yes"/>
      <point x="279" y="750" type="line" smooth="yes"/>
      <point x="284" y="773"/>
      <point x="284" y="790"/>
      <point x="281" y="800" type="curve" smooth="yes"/>
      <point x="278" y="809"/>
      <point x="269" y="814"/>
      <point x="255" y="814" type="curve" smooth="yes"/>
      <point x="242" y="814"/>
      <point x="231" y="809"/>
      <point x="224" y="799" type="curve" smooth="yes"/>
      <point x="216" y="789"/>
      <point x="210" y="773"/>
      <point x="205" y="750" type="curve" smooth="yes"/>
      <point x="166" y="564" type="line" smooth="yes"/>
      <point x="161" y="540"/>
      <point x="161" y="523"/>
      <point x="165" y="513" type="curve" smooth="yes"/>
      <point x="168" y="503"/>
      <point x="177" y="498"/>
      <point x="190" y="498" type="curve" smooth="yes"/>
      <point x="204" y="498"/>
      <point x="215" y="503"/>
      <point x="222" y="513" type="curve" smooth="yes"/>
      <point x="229" y="523"/>
      <point x="235" y="540"/>
    </contour>
  </outline>
</glyph>
<glyph name="zero.tosf" format="2">
  <advance width="418"/>
  <outline>
    <contour>
      <point x="38" y="178" type="curve" smooth="yes"/>
      <point x="74" y="352" type="line" smooth="yes"/>
      <point x="100" y="476"/>
      <point x="164" y="538"/>
      <point x="267" y="539" type="curve" smooth="yes"/>
      <point x="308" y="539"/>
      <point x="339" y="529"/>
      <point x="359" y="508" type="curve" smooth="yes"/>
      <point x="388" y="478"/>
      <point x="395" y="426"/>
      <point x="380" y="352" type="curve" smooth="yes"/>
      <point x="344" y="178" type="line" smooth="yes"/>
      <point x="318" y="53"/>
      <point x="254" y="-9"/>
      <point x="153" y="-9" type="curve" smooth="yes"/>
      <point x="111" y="-9"/>
      <point x="79" y="2"/>
      <point x="59" y="23" type="curve" smooth="yes"/>
      <point x="30" y="53"/>
      <point x="23" y="105"/>
    </contour>
    <contour>
      <point x="272" y="189" type="curve" smooth="yes"/>
      <point x="304" y="340" type="line" smooth="yes"/>
      <point x="314" y="389"/>
      <point x="315" y="423"/>
      <point x="308" y="443" type="curve" smooth="yes"/>
      <point x="301" y="462"/>
      <point x="282" y="472"/>
      <point x="253" y="472" type="curve" smooth="yes"/>
      <point x="224" y="472"/>
      <point x="201" y="462"/>
      <point x="186" y="443" type="curve" smooth="yes"/>
      <point x="170" y="423"/>
      <point x="157" y="389"/>
      <point x="147" y="340" type="curve" smooth="yes"/>
      <point x="115" y="189" type="line" smooth="yes"/>
      <point x="105" y="140"/>
      <point x="104" y="106"/>
      <point x="112" y="87" type="curve" smooth="yes"/>
      <point x="119" y="67"/>
      <point x="138" y="57"/>
      <point x="167" y="57" type="curve" smooth="yes"/>
      <point x="196" y="57"/>
      <point x="219" y="67"/>
      <point x="234" y="87" type="curve" smooth="yes"/>
      <point x="249" y="107"/>
      <point x="262" y="141"/>
    </contour>
  </outline>
</glyph>
